<ttFont>
    <TTGlyph name=".notdef" xMin="180" yMin="0" xMax="570" yMax="701">
      <contour>
        <pt x="234" y="651" on="1"/>
        <pt x="234" y="50" on="1"/>
        <pt x="516" y="50" on="1"/>
        <pt x="516" y="651" on="1"/>
      </contour>
      <contour>
        <pt x="180" y="0" on="1"/>
        <pt x="180" y="701" on="1"/>
        <pt x="570" y="701" on="1"/>
        <pt x="570" y="0" on="1"/>
      </contour>
    </TTGlyph>
    <TTGlyph name="A" xMin="35" yMin="14" xMax="580" yMax="744">
      <contour>
        <pt x="580" y="364" on="1"/>
        <pt x="580" y="333" on="0"/>
        <pt x="496" y="306" on="1"/>
        <pt x="499" y="244" on="0"/>
        <pt x="499" y="83" on="0"/>
        <pt x="477" y="14" on="0"/>
        <pt x="429" y="14" on="0"/>
        <pt x="402" y="63" on="0"/>
        <pt x="387" y="162" on="0"/>
        <pt x="375" y="274" on="1"/>
        <pt x="306" y="258" on="0"/>
        <pt x="231" y="234" on="1"/>
        <pt x="151" y="14" on="0"/>
        <pt x="125" y="14" on="1"/>
        <pt x="104" y="14" on="0"/>
        <pt x="35" y="70" on="0"/>
        <pt x="35" y="121" on="0"/>
        <pt x="84" y="228" on="1"/>
        <pt x="62" y="253" on="0"/>
        <pt x="62" y="286" on="1"/>
        <pt x="62" y="315" on="0"/>
        <pt x="132" y="342" on="1"/>
        <pt x="180" y="476" on="0"/>
        <pt x="225" y="599" on="0"/>
        <pt x="245" y="662" on="1"/>
        <pt x="254" y="692" on="0"/>
        <pt x="361" y="744" on="0"/>
        <pt x="391" y="744" on="1"/>
        <pt x="425" y="744" on="0"/>
        <pt x="479" y="556" on="0"/>
        <pt x="491" y="399" on="1"/>
        <pt x="517" y="399" on="1"/>
        <pt x="536" y="398" on="0"/>
        <pt x="558" y="395" on="0"/>
        <pt x="580" y="379" on="0"/>
      </contour>
      <contour>
        <pt x="281" y="381" on="1"/>
        <pt x="335" y="389" on="0"/>
        <pt x="364" y="392" on="1"/>
        <pt x="360" y="432" on="0"/>
        <pt x="347" y="574" on="0"/>
        <pt x="346" y="581" on="1"/>
        <pt x="346" y="580" on="0"/>
        <pt x="297" y="426" on="0"/>
      </contour>
    </TTGlyph>
    <TTGlyph name="AE" xMin="34" yMin="15" xMax="938" yMax="736">
      <contour>
        <pt x="621" y="594" on="1"/>
        <pt x="621" y="525" on="0"/>
        <pt x="599" y="439" on="1"/>
        <pt x="647" y="441" on="0"/>
        <pt x="734" y="442" on="0"/>
        <pt x="818" y="424" on="0"/>
        <pt x="818" y="396" on="1"/>
        <pt x="818" y="380" on="0"/>
        <pt x="793" y="364" on="0"/>
        <pt x="773" y="356" on="0"/>
        <pt x="740" y="348" on="0"/>
        <pt x="713" y="342" on="0"/>
        <pt x="668" y="336" on="0"/>
        <pt x="652" y="334" on="1"/>
        <pt x="619" y="328" on="0"/>
        <pt x="565" y="322" on="1"/>
        <pt x="525" y="196" on="0"/>
        <pt x="525" y="167" on="1"/>
        <pt x="525" y="150" on="0"/>
        <pt x="542" y="150" on="1"/>
        <pt x="656" y="150" on="0"/>
        <pt x="776" y="180" on="1"/>
        <pt x="818" y="191" on="0"/>
        <pt x="824" y="191" on="1"/>
        <pt x="843" y="191" on="0"/>
        <pt x="843" y="164" on="1"/>
        <pt x="843" y="128" on="0"/>
        <pt x="737" y="60" on="0"/>
        <pt x="577" y="20" on="0"/>
        <pt x="500" y="20" on="1"/>
        <pt x="454" y="20" on="0"/>
        <pt x="380" y="89" on="0"/>
        <pt x="380" y="180" on="0"/>
        <pt x="412" y="297" on="1"/>
        <pt x="297" y="277" on="0"/>
        <pt x="247" y="271" on="1"/>
        <pt x="148" y="15" on="0"/>
        <pt x="118" y="15" on="1"/>
        <pt x="97" y="15" on="0"/>
        <pt x="34" y="72" on="0"/>
        <pt x="34" y="99" on="1"/>
        <pt x="34" y="117" on="0"/>
        <pt x="135" y="361" on="0"/>
        <pt x="150" y="401" on="1"/>
        <pt x="234" y="627" on="0"/>
        <pt x="296" y="711" on="0"/>
        <pt x="431" y="736" on="0"/>
        <pt x="723" y="736" on="0"/>
        <pt x="879" y="714" on="0"/>
        <pt x="943" y="681" on="0"/>
        <pt x="938" y="662" on="1"/>
        <pt x="932" y="638" on="0"/>
        <pt x="876" y="628" on="1"/>
        <pt x="831" y="620" on="0"/>
        <pt x="617" y="611" on="1"/>
        <pt x="621" y="603" on="0"/>
      </contour>
      <contour>
        <pt x="446" y="424" on="1"/>
        <pt x="475" y="533" on="0"/>
        <pt x="482" y="605" on="1"/>
        <pt x="407" y="599" on="0"/>
        <pt x="393" y="584" on="1"/>
        <pt x="361" y="550" on="0"/>
        <pt x="299" y="403" on="1"/>
        <pt x="382" y="418" on="0"/>
      </contour>
    </TTGlyph>
    <TTGlyph name="Aacute" xMin="34" yMin="14" xMax="579" yMax="998">
      <contour>
        <pt x="579" y="364" on="1"/>
        <pt x="579" y="333" on="0"/>
        <pt x="495" y="306" on="1"/>
        <pt x="498" y="244" on="0"/>
        <pt x="498" y="83" on="0"/>
        <pt x="476" y="14" on="0"/>
        <pt x="428" y="14" on="0"/>
        <pt x="401" y="63" on="0"/>
        <pt x="386" y="162" on="0"/>
        <pt x="374" y="274" on="1"/>
        <pt x="311" y="260" on="0"/>
        <pt x="230" y="234" on="1"/>
        <pt x="150" y="14" on="0"/>
        <pt x="124" y="14" on="1"/>
        <pt x="103" y="14" on="0"/>
        <pt x="34" y="70" on="0"/>
        <pt x="34" y="121" on="0"/>
        <pt x="83" y="228" on="1"/>
        <pt x="61" y="253" on="0"/>
        <pt x="61" y="286" on="1"/>
        <pt x="61" y="315" on="0"/>
        <pt x="131" y="342" on="1"/>
        <pt x="179" y="476" on="0"/>
        <pt x="224" y="599" on="0"/>
        <pt x="244" y="662" on="1"/>
        <pt x="253" y="692" on="0"/>
        <pt x="360" y="744" on="0"/>
        <pt x="390" y="744" on="1"/>
        <pt x="424" y="744" on="0"/>
        <pt x="478" y="556" on="0"/>
        <pt x="490" y="399" on="1"/>
        <pt x="516" y="399" on="1"/>
        <pt x="535" y="398" on="0"/>
        <pt x="557" y="395" on="0"/>
        <pt x="579" y="379" on="0"/>
      </contour>
      <contour>
        <pt x="280" y="381" on="1"/>
        <pt x="334" y="389" on="0"/>
        <pt x="363" y="392" on="1"/>
        <pt x="359" y="432" on="0"/>
        <pt x="346" y="574" on="0"/>
        <pt x="345" y="581" on="1"/>
        <pt x="345" y="580" on="0"/>
        <pt x="296" y="426" on="0"/>
      </contour>
      <contour>
        <pt x="541" y="882" on="1"/>
        <pt x="432" y="827" on="1"/>
        <pt x="425" y="823" on="0"/>
        <pt x="397" y="805" on="0"/>
        <pt x="379" y="795" on="0"/>
        <pt x="368" y="792" on="1"/>
        <pt x="344" y="784" on="0"/>
        <pt x="312" y="829" on="0"/>
        <pt x="331" y="886" on="0"/>
        <pt x="359" y="910" on="1"/>
        <pt x="465" y="998" on="1"/>
        <pt x="506" y="1033" on="0"/>
        <pt x="543" y="988" on="1"/>
        <pt x="566" y="959" on="0"/>
        <pt x="563" y="894" on="0"/>
      </contour>
    </TTGlyph>
    <TTGlyph name="Abreve" xMin="34" yMin="14" xMax="579" yMax="1002">
      <contour>
        <pt x="579" y="364" on="1"/>
        <pt x="579" y="333" on="0"/>
        <pt x="495" y="306" on="1"/>
        <pt x="498" y="244" on="0"/>
        <pt x="498" y="83" on="0"/>
        <pt x="476" y="14" on="0"/>
        <pt x="428" y="14" on="0"/>
        <pt x="401" y="63" on="0"/>
        <pt x="386" y="162" on="0"/>
        <pt x="374" y="274" on="1"/>
        <pt x="311" y="260" on="0"/>
        <pt x="230" y="234" on="1"/>
        <pt x="150" y="14" on="0"/>
        <pt x="124" y="14" on="1"/>
        <pt x="103" y="14" on="0"/>
        <pt x="34" y="70" on="0"/>
        <pt x="34" y="121" on="0"/>
        <pt x="83" y="228" on="1"/>
        <pt x="61" y="253" on="0"/>
        <pt x="61" y="286" on="1"/>
        <pt x="61" y="315" on="0"/>
        <pt x="131" y="342" on="1"/>
        <pt x="179" y="476" on="0"/>
        <pt x="224" y="599" on="0"/>
        <pt x="244" y="662" on="1"/>
        <pt x="253" y="692" on="0"/>
        <pt x="360" y="744" on="0"/>
        <pt x="390" y="744" on="1"/>
        <pt x="424" y="744" on="0"/>
        <pt x="478" y="556" on="0"/>
        <pt x="490" y="399" on="1"/>
        <pt x="516" y="399" on="1"/>
        <pt x="535" y="398" on="0"/>
        <pt x="557" y="395" on="0"/>
        <pt x="579" y="379" on="0"/>
      </contour>
      <contour>
        <pt x="280" y="381" on="1"/>
        <pt x="334" y="389" on="0"/>
        <pt x="363" y="392" on="1"/>
        <pt x="359" y="432" on="0"/>
        <pt x="346" y="574" on="0"/>
        <pt x="345" y="581" on="1"/>
        <pt x="345" y="580" on="0"/>
        <pt x="296" y="426" on="0"/>
      </contour>
      <contour>
        <pt x="554" y="881" on="0"/>
        <pt x="437" y="788" on="0"/>
        <pt x="308" y="788" on="0"/>
        <pt x="221" y="874" on="0"/>
        <pt x="221" y="961" on="0"/>
        <pt x="268" y="1002" on="0"/>
        <pt x="290" y="1002" on="1"/>
        <pt x="310" y="1002" on="0"/>
        <pt x="324" y="944" on="1"/>
        <pt x="330" y="923" on="0"/>
        <pt x="363" y="887" on="0"/>
        <pt x="419" y="887" on="0"/>
        <pt x="467" y="923" on="0"/>
        <pt x="505" y="959" on="0"/>
        <pt x="537" y="959" on="0"/>
        <pt x="554" y="941" on="0"/>
        <pt x="554" y="927" on="1"/>
      </contour>
    </TTGlyph>
    <TTGlyph name="Acircumflex" xMin="34" yMin="14" xMax="579" yMax="1001">
      <contour>
        <pt x="579" y="364" on="1"/>
        <pt x="579" y="333" on="0"/>
        <pt x="495" y="306" on="1"/>
        <pt x="498" y="244" on="0"/>
        <pt x="498" y="83" on="0"/>
        <pt x="476" y="14" on="0"/>
        <pt x="428" y="14" on="0"/>
        <pt x="401" y="63" on="0"/>
        <pt x="386" y="162" on="0"/>
        <pt x="374" y="274" on="1"/>
        <pt x="311" y="260" on="0"/>
        <pt x="230" y="234" on="1"/>
        <pt x="150" y="14" on="0"/>
        <pt x="124" y="14" on="1"/>
        <pt x="103" y="14" on="0"/>
        <pt x="34" y="70" on="0"/>
        <pt x="34" y="121" on="0"/>
        <pt x="83" y="228" on="1"/>
        <pt x="61" y="253" on="0"/>
        <pt x="61" y="286" on="1"/>
        <pt x="61" y="315" on="0"/>
        <pt x="131" y="342" on="1"/>
        <pt x="179" y="476" on="0"/>
        <pt x="224" y="599" on="0"/>
        <pt x="244" y="662" on="1"/>
        <pt x="253" y="692" on="0"/>
        <pt x="360" y="744" on="0"/>
        <pt x="390" y="744" on="1"/>
        <pt x="424" y="744" on="0"/>
        <pt x="478" y="556" on="0"/>
        <pt x="490" y="399" on="1"/>
        <pt x="516" y="399" on="1"/>
        <pt x="535" y="398" on="0"/>
        <pt x="557" y="395" on="0"/>
        <pt x="579" y="379" on="0"/>
      </contour>
      <contour>
        <pt x="280" y="381" on="1"/>
        <pt x="334" y="389" on="0"/>
        <pt x="363" y="392" on="1"/>
        <pt x="359" y="432" on="0"/>
        <pt x="346" y="574" on="0"/>
        <pt x="345" y="581" on="1"/>
        <pt x="345" y="580" on="0"/>
        <pt x="296" y="426" on="0"/>
      </contour>
      <contour>
        <pt x="287" y="826" on="0"/>
        <pt x="257" y="806" on="0"/>
        <pt x="221" y="806" on="0"/>
        <pt x="197" y="834" on="0"/>
        <pt x="197" y="855" on="1"/>
        <pt x="197" y="903" on="0"/>
        <pt x="270" y="945" on="1"/>
        <pt x="281" y="951" on="0"/>
        <pt x="313" y="971" on="0"/>
        <pt x="333" y="983" on="0"/>
        <pt x="344" y="989" on="1"/>
        <pt x="368" y="1001" on="0"/>
        <pt x="390" y="1001" on="0"/>
        <pt x="410" y="979" on="0"/>
        <pt x="439" y="934" on="0"/>
        <pt x="459" y="913" on="0"/>
        <pt x="510" y="863" on="0"/>
        <pt x="531" y="831" on="0"/>
        <pt x="531" y="804" on="0"/>
        <pt x="512" y="787" on="0"/>
        <pt x="501" y="787" on="1"/>
        <pt x="474" y="787" on="0"/>
        <pt x="393" y="844" on="0"/>
        <pt x="365" y="879" on="1"/>
        <pt x="337" y="865" on="0"/>
      </contour>
    </TTGlyph>
    <TTGlyph name="Adieresis" xMin="34" yMin="14" xMax="579" yMax="961">
      <contour>
        <pt x="579" y="364" on="1"/>
        <pt x="579" y="333" on="0"/>
        <pt x="495" y="306" on="1"/>
        <pt x="498" y="244" on="0"/>
        <pt x="498" y="83" on="0"/>
        <pt x="476" y="14" on="0"/>
        <pt x="428" y="14" on="0"/>
        <pt x="401" y="63" on="0"/>
        <pt x="386" y="162" on="0"/>
        <pt x="374" y="274" on="1"/>
        <pt x="311" y="260" on="0"/>
        <pt x="230" y="234" on="1"/>
        <pt x="150" y="14" on="0"/>
        <pt x="124" y="14" on="1"/>
        <pt x="103" y="14" on="0"/>
        <pt x="34" y="70" on="0"/>
        <pt x="34" y="121" on="0"/>
        <pt x="83" y="228" on="1"/>
        <pt x="61" y="253" on="0"/>
        <pt x="61" y="286" on="1"/>
        <pt x="61" y="315" on="0"/>
        <pt x="131" y="342" on="1"/>
        <pt x="179" y="476" on="0"/>
        <pt x="224" y="599" on="0"/>
        <pt x="244" y="662" on="1"/>
        <pt x="253" y="692" on="0"/>
        <pt x="360" y="744" on="0"/>
        <pt x="390" y="744" on="1"/>
        <pt x="424" y="744" on="0"/>
        <pt x="478" y="556" on="0"/>
        <pt x="490" y="399" on="1"/>
        <pt x="516" y="399" on="1"/>
        <pt x="535" y="398" on="0"/>
        <pt x="557" y="395" on="0"/>
        <pt x="579" y="379" on="0"/>
      </contour>
      <contour>
        <pt x="280" y="381" on="1"/>
        <pt x="334" y="389" on="0"/>
        <pt x="363" y="392" on="1"/>
        <pt x="359" y="432" on="0"/>
        <pt x="346" y="574" on="0"/>
        <pt x="345" y="581" on="1"/>
        <pt x="345" y="580" on="0"/>
        <pt x="296" y="426" on="0"/>
      </contour>
      <contour>
        <pt x="297" y="799" on="1"/>
        <pt x="270" y="799" on="0"/>
        <pt x="206" y="864" on="0"/>
        <pt x="206" y="911" on="0"/>
        <pt x="248" y="961" on="0"/>
        <pt x="289" y="961" on="0"/>
        <pt x="343" y="863" on="0"/>
        <pt x="343" y="828" on="0"/>
        <pt x="312" y="799" on="0"/>
      </contour>
      <contour>
        <pt x="475" y="799" on="1"/>
        <pt x="448" y="799" on="0"/>
        <pt x="384" y="864" on="0"/>
        <pt x="384" y="911" on="0"/>
        <pt x="426" y="961" on="0"/>
        <pt x="467" y="961" on="0"/>
        <pt x="521" y="863" on="0"/>
        <pt x="521" y="828" on="0"/>
        <pt x="490" y="799" on="0"/>
      </contour>
    </TTGlyph>
    <TTGlyph name="Agrave" xMin="34" yMin="14" xMax="579" yMax="996">
      <contour>
        <pt x="579" y="364" on="1"/>
        <pt x="579" y="333" on="0"/>
        <pt x="495" y="306" on="1"/>
        <pt x="498" y="244" on="0"/>
        <pt x="498" y="83" on="0"/>
        <pt x="476" y="14" on="0"/>
        <pt x="428" y="14" on="0"/>
        <pt x="401" y="63" on="0"/>
        <pt x="386" y="162" on="0"/>
        <pt x="374" y="274" on="1"/>
        <pt x="311" y="260" on="0"/>
        <pt x="230" y="234" on="1"/>
        <pt x="150" y="14" on="0"/>
        <pt x="124" y="14" on="1"/>
        <pt x="103" y="14" on="0"/>
        <pt x="34" y="70" on="0"/>
        <pt x="34" y="121" on="0"/>
        <pt x="83" y="228" on="1"/>
        <pt x="61" y="253" on="0"/>
        <pt x="61" y="286" on="1"/>
        <pt x="61" y="315" on="0"/>
        <pt x="131" y="342" on="1"/>
        <pt x="179" y="476" on="0"/>
        <pt x="224" y="599" on="0"/>
        <pt x="244" y="662" on="1"/>
        <pt x="253" y="692" on="0"/>
        <pt x="360" y="744" on="0"/>
        <pt x="390" y="744" on="1"/>
        <pt x="424" y="744" on="0"/>
        <pt x="478" y="556" on="0"/>
        <pt x="490" y="399" on="1"/>
        <pt x="516" y="399" on="1"/>
        <pt x="535" y="398" on="0"/>
        <pt x="557" y="395" on="0"/>
        <pt x="579" y="379" on="0"/>
      </contour>
      <contour>
        <pt x="280" y="381" on="1"/>
        <pt x="334" y="389" on="0"/>
        <pt x="363" y="392" on="1"/>
        <pt x="359" y="432" on="0"/>
        <pt x="346" y="574" on="0"/>
        <pt x="345" y="581" on="1"/>
        <pt x="345" y="580" on="0"/>
        <pt x="296" y="426" on="0"/>
      </contour>
      <contour>
        <pt x="420" y="791" on="0"/>
        <pt x="391" y="791" on="0"/>
        <pt x="373" y="801" on="0"/>
        <pt x="354" y="815" on="1"/>
        <pt x="337" y="828" on="0"/>
        <pt x="225" y="899" on="1"/>
        <pt x="205" y="911" on="0"/>
        <pt x="207" y="967" on="0"/>
        <pt x="232" y="992" on="1"/>
        <pt x="272" y="1035" on="0"/>
        <pt x="309" y="996" on="1"/>
        <pt x="408" y="897" on="1"/>
        <pt x="465" y="841" on="0"/>
        <pt x="432" y="804" on="1"/>
      </contour>
    </TTGlyph>
    <TTGlyph name="Amacron" xMin="34" yMin="14" xMax="579" yMax="913">
      <contour>
        <pt x="579" y="364" on="1"/>
        <pt x="579" y="333" on="0"/>
        <pt x="495" y="306" on="1"/>
        <pt x="498" y="244" on="0"/>
        <pt x="498" y="83" on="0"/>
        <pt x="476" y="14" on="0"/>
        <pt x="428" y="14" on="0"/>
        <pt x="401" y="63" on="0"/>
        <pt x="386" y="162" on="0"/>
        <pt x="374" y="274" on="1"/>
        <pt x="311" y="260" on="0"/>
        <pt x="230" y="234" on="1"/>
        <pt x="150" y="14" on="0"/>
        <pt x="124" y="14" on="1"/>
        <pt x="103" y="14" on="0"/>
        <pt x="34" y="70" on="0"/>
        <pt x="34" y="121" on="0"/>
        <pt x="83" y="228" on="1"/>
        <pt x="61" y="253" on="0"/>
        <pt x="61" y="286" on="1"/>
        <pt x="61" y="315" on="0"/>
        <pt x="131" y="342" on="1"/>
        <pt x="179" y="476" on="0"/>
        <pt x="224" y="599" on="0"/>
        <pt x="244" y="662" on="1"/>
        <pt x="253" y="692" on="0"/>
        <pt x="360" y="744" on="0"/>
        <pt x="390" y="744" on="1"/>
        <pt x="424" y="744" on="0"/>
        <pt x="478" y="556" on="0"/>
        <pt x="490" y="399" on="1"/>
        <pt x="516" y="399" on="1"/>
        <pt x="535" y="398" on="0"/>
        <pt x="557" y="395" on="0"/>
        <pt x="579" y="379" on="0"/>
      </contour>
      <contour>
        <pt x="280" y="381" on="1"/>
        <pt x="334" y="389" on="0"/>
        <pt x="363" y="392" on="1"/>
        <pt x="359" y="432" on="0"/>
        <pt x="346" y="574" on="0"/>
        <pt x="345" y="581" on="1"/>
        <pt x="345" y="580" on="0"/>
        <pt x="296" y="426" on="0"/>
      </contour>
      <contour>
        <pt x="535" y="884" on="1"/>
        <pt x="535" y="865" on="0"/>
        <pt x="472" y="847" on="0"/>
        <pt x="346" y="826" on="0"/>
        <pt x="312" y="820" on="1"/>
        <pt x="252" y="808" on="0"/>
        <pt x="214" y="809" on="0"/>
        <pt x="178" y="854" on="0"/>
        <pt x="178" y="873" on="1"/>
        <pt x="179" y="900" on="0"/>
        <pt x="322" y="915" on="0"/>
        <pt x="461" y="913" on="1"/>
        <pt x="535" y="911" on="0"/>
      </contour>
    </TTGlyph>
    <TTGlyph name="Aogonek" xMin="34" yMin="-169" xMax="579" yMax="744">
      <contour>
        <pt x="399" y="86" on="1"/>
        <pt x="389" y="130" on="0"/>
        <pt x="374" y="274" on="1"/>
        <pt x="311" y="260" on="0"/>
        <pt x="230" y="234" on="1"/>
        <pt x="150" y="14" on="0"/>
        <pt x="124" y="14" on="1"/>
        <pt x="103" y="14" on="0"/>
        <pt x="34" y="70" on="0"/>
        <pt x="34" y="121" on="0"/>
        <pt x="83" y="228" on="1"/>
        <pt x="61" y="253" on="0"/>
        <pt x="61" y="286" on="1"/>
        <pt x="61" y="315" on="0"/>
        <pt x="131" y="342" on="1"/>
        <pt x="179" y="476" on="0"/>
        <pt x="224" y="599" on="0"/>
        <pt x="244" y="662" on="1"/>
        <pt x="253" y="692" on="0"/>
        <pt x="360" y="744" on="0"/>
        <pt x="390" y="744" on="1"/>
        <pt x="424" y="744" on="0"/>
        <pt x="478" y="556" on="0"/>
        <pt x="490" y="399" on="1"/>
        <pt x="516" y="399" on="1"/>
        <pt x="535" y="398" on="0"/>
        <pt x="557" y="395" on="0"/>
        <pt x="579" y="379" on="0"/>
        <pt x="579" y="364" on="1"/>
        <pt x="579" y="333" on="0"/>
        <pt x="495" y="306" on="1"/>
        <pt x="498" y="244" on="0"/>
        <pt x="498" y="177" on="1"/>
        <pt x="498" y="42" on="0"/>
        <pt x="470" y="21" on="1"/>
        <pt x="460" y="6" on="0"/>
        <pt x="446" y="-5" on="1"/>
        <pt x="394" y="-44" on="0"/>
        <pt x="394" y="-60" on="1"/>
        <pt x="394" y="-70" on="0"/>
        <pt x="440" y="-70" on="0"/>
        <pt x="464" y="-64" on="0"/>
        <pt x="497" y="-83" on="0"/>
        <pt x="512" y="-120" on="0"/>
        <pt x="495" y="-138" on="1"/>
        <pt x="466" y="-169" on="0"/>
        <pt x="355" y="-169" on="1"/>
        <pt x="320" y="-169" on="0"/>
        <pt x="267" y="-131" on="0"/>
        <pt x="267" y="-107" on="1"/>
        <pt x="267" y="-63" on="0"/>
        <pt x="350" y="49" on="0"/>
        <pt x="398" y="85" on="1"/>
      </contour>
      <contour>
        <pt x="280" y="381" on="1"/>
        <pt x="334" y="389" on="0"/>
        <pt x="363" y="392" on="1"/>
        <pt x="359" y="432" on="0"/>
        <pt x="346" y="574" on="0"/>
        <pt x="345" y="581" on="1"/>
        <pt x="345" y="580" on="0"/>
        <pt x="296" y="426" on="0"/>
      </contour>
    </TTGlyph>
    <TTGlyph name="Aring" xMin="34" yMin="14" xMax="579" yMax="1010">
      <contour>
        <pt x="579" y="364" on="1"/>
        <pt x="579" y="333" on="0"/>
        <pt x="495" y="306" on="1"/>
        <pt x="498" y="244" on="0"/>
        <pt x="498" y="83" on="0"/>
        <pt x="476" y="14" on="0"/>
        <pt x="428" y="14" on="0"/>
        <pt x="401" y="63" on="0"/>
        <pt x="386" y="162" on="0"/>
        <pt x="374" y="274" on="1"/>
        <pt x="311" y="260" on="0"/>
        <pt x="230" y="234" on="1"/>
        <pt x="150" y="14" on="0"/>
        <pt x="124" y="14" on="1"/>
        <pt x="103" y="14" on="0"/>
        <pt x="34" y="70" on="0"/>
        <pt x="34" y="121" on="0"/>
        <pt x="83" y="228" on="1"/>
        <pt x="61" y="253" on="0"/>
        <pt x="61" y="286" on="1"/>
        <pt x="61" y="315" on="0"/>
        <pt x="131" y="342" on="1"/>
        <pt x="179" y="476" on="0"/>
        <pt x="224" y="599" on="0"/>
        <pt x="244" y="662" on="1"/>
        <pt x="253" y="692" on="0"/>
        <pt x="360" y="744" on="0"/>
        <pt x="390" y="744" on="1"/>
        <pt x="424" y="744" on="0"/>
        <pt x="478" y="556" on="0"/>
        <pt x="490" y="399" on="1"/>
        <pt x="516" y="399" on="1"/>
        <pt x="535" y="398" on="0"/>
        <pt x="557" y="395" on="0"/>
        <pt x="579" y="379" on="0"/>
      </contour>
      <contour>
        <pt x="280" y="381" on="1"/>
        <pt x="334" y="389" on="0"/>
        <pt x="363" y="392" on="1"/>
        <pt x="359" y="432" on="0"/>
        <pt x="346" y="574" on="0"/>
        <pt x="345" y="581" on="1"/>
        <pt x="345" y="580" on="0"/>
        <pt x="296" y="426" on="0"/>
      </contour>
      <contour>
        <pt x="419" y="786" on="0"/>
        <pt x="329" y="786" on="0"/>
        <pt x="271" y="852" on="0"/>
        <pt x="275" y="898" on="1"/>
        <pt x="280" y="944" on="0"/>
        <pt x="347" y="1010" on="0"/>
        <pt x="437" y="1010" on="0"/>
        <pt x="495" y="944" on="0"/>
        <pt x="486" y="852" on="0"/>
      </contour>
      <contour>
        <pt x="355" y="881" on="0"/>
        <pt x="370" y="858" on="0"/>
        <pt x="391" y="858" on="0"/>
        <pt x="408" y="881" on="0"/>
        <pt x="410" y="912" on="0"/>
        <pt x="395" y="934" on="0"/>
        <pt x="373" y="934" on="0"/>
        <pt x="357" y="912" on="0"/>
      </contour>
    </TTGlyph>
    <TTGlyph name="Atilde" xMin="34" yMin="14" xMax="579" yMax="985">
      <contour>
        <pt x="579" y="364" on="1"/>
        <pt x="579" y="333" on="0"/>
        <pt x="495" y="306" on="1"/>
        <pt x="498" y="244" on="0"/>
        <pt x="498" y="83" on="0"/>
        <pt x="476" y="14" on="0"/>
        <pt x="428" y="14" on="0"/>
        <pt x="401" y="63" on="0"/>
        <pt x="386" y="162" on="0"/>
        <pt x="374" y="274" on="1"/>
        <pt x="311" y="260" on="0"/>
        <pt x="230" y="234" on="1"/>
        <pt x="150" y="14" on="0"/>
        <pt x="124" y="14" on="1"/>
        <pt x="103" y="14" on="0"/>
        <pt x="34" y="70" on="0"/>
        <pt x="34" y="121" on="0"/>
        <pt x="83" y="228" on="1"/>
        <pt x="61" y="253" on="0"/>
        <pt x="61" y="286" on="1"/>
        <pt x="61" y="315" on="0"/>
        <pt x="131" y="342" on="1"/>
        <pt x="179" y="476" on="0"/>
        <pt x="224" y="599" on="0"/>
        <pt x="244" y="662" on="1"/>
        <pt x="253" y="692" on="0"/>
        <pt x="360" y="744" on="0"/>
        <pt x="390" y="744" on="1"/>
        <pt x="424" y="744" on="0"/>
        <pt x="478" y="556" on="0"/>
        <pt x="490" y="399" on="1"/>
        <pt x="516" y="399" on="1"/>
        <pt x="535" y="398" on="0"/>
        <pt x="557" y="395" on="0"/>
        <pt x="579" y="379" on="0"/>
      </contour>
      <contour>
        <pt x="280" y="381" on="1"/>
        <pt x="334" y="389" on="0"/>
        <pt x="363" y="392" on="1"/>
        <pt x="359" y="432" on="0"/>
        <pt x="346" y="574" on="0"/>
        <pt x="345" y="581" on="1"/>
        <pt x="345" y="580" on="0"/>
        <pt x="296" y="426" on="0"/>
      </contour>
      <contour>
        <pt x="270" y="831" on="0"/>
        <pt x="240" y="794" on="0"/>
        <pt x="193" y="794" on="0"/>
        <pt x="162" y="819" on="0"/>
        <pt x="163" y="842" on="1"/>
        <pt x="165" y="891" on="0"/>
        <pt x="250" y="985" on="0"/>
        <pt x="336" y="985" on="0"/>
        <pt x="386" y="947" on="0"/>
        <pt x="419" y="898" on="0"/>
        <pt x="429" y="893" on="1"/>
        <pt x="438" y="898" on="0"/>
        <pt x="450" y="920" on="1"/>
        <pt x="480" y="974" on="0"/>
        <pt x="517" y="974" on="1"/>
        <pt x="536" y="974" on="0"/>
        <pt x="558" y="949" on="0"/>
        <pt x="557" y="926" on="1"/>
        <pt x="555" y="878" on="0"/>
        <pt x="478" y="783" on="0"/>
        <pt x="409" y="783" on="0"/>
        <pt x="340" y="841" on="0"/>
        <pt x="315" y="888" on="1"/>
        <pt x="297" y="879" on="0"/>
      </contour>
    </TTGlyph>
    <TTGlyph name="B" xMin="5" yMin="7" xMax="570" yMax="737">
      <contour>
        <pt x="565" y="260" on="1"/>
        <pt x="565" y="198" on="0"/>
        <pt x="428" y="78" on="0"/>
        <pt x="233" y="7" on="0"/>
        <pt x="145" y="7" on="1"/>
        <pt x="107" y="7" on="0"/>
        <pt x="5" y="100" on="0"/>
        <pt x="5" y="130" on="1"/>
        <pt x="5" y="147" on="0"/>
        <pt x="20" y="167" on="0"/>
        <pt x="40" y="167" on="0"/>
        <pt x="109" y="134" on="0"/>
        <pt x="144" y="134" on="0"/>
        <pt x="161" y="137" on="1"/>
        <pt x="136" y="147" on="0"/>
        <pt x="86" y="197" on="0"/>
        <pt x="86" y="220" on="1"/>
        <pt x="86" y="230" on="0"/>
        <pt x="152" y="501" on="0"/>
        <pt x="154" y="597" on="1"/>
        <pt x="136" y="614" on="0"/>
        <pt x="107" y="663" on="0"/>
        <pt x="107" y="675" on="1"/>
        <pt x="107" y="703" on="0"/>
        <pt x="195" y="737" on="0"/>
        <pt x="261" y="737" on="1"/>
        <pt x="401" y="737" on="0"/>
        <pt x="570" y="663" on="0"/>
        <pt x="570" y="582" on="1"/>
        <pt x="570" y="531" on="0"/>
        <pt x="484" y="426" on="0"/>
        <pt x="414" y="381" on="1"/>
        <pt x="478" y="366" on="0"/>
        <pt x="565" y="301" on="0"/>
      </contour>
      <contour>
        <pt x="390" y="606" on="1"/>
        <pt x="368" y="606" on="0"/>
        <pt x="243" y="586" on="1"/>
        <pt x="278" y="545" on="0"/>
        <pt x="278" y="495" on="0"/>
        <pt x="261" y="424" on="1"/>
        <pt x="272" y="433" on="0"/>
        <pt x="358" y="481" on="0"/>
        <pt x="381" y="497" on="0"/>
        <pt x="399" y="512" on="1"/>
        <pt x="432" y="540" on="0"/>
        <pt x="432" y="606" on="0"/>
      </contour>
      <contour>
        <pt x="439" y="264" on="1"/>
        <pt x="439" y="284" on="0"/>
        <pt x="324" y="313" on="0"/>
        <pt x="286" y="313" on="1"/>
        <pt x="265" y="313" on="0"/>
        <pt x="241" y="344" on="1"/>
        <pt x="196" y="159" on="0"/>
        <pt x="187" y="141" on="1"/>
        <pt x="271" y="159" on="0"/>
        <pt x="439" y="233" on="0"/>
      </contour>
    </TTGlyph>
    <TTGlyph name="C" xMin="35" yMin="13" xMax="557" yMax="747">
      <contour>
        <pt x="467" y="747" on="0"/>
        <pt x="533" y="648" on="0"/>
        <pt x="533" y="584" on="0"/>
        <pt x="520" y="584" on="1"/>
        <pt x="514" y="584" on="0"/>
        <pt x="475" y="592" on="0"/>
        <pt x="461" y="592" on="1"/>
        <pt x="411" y="592" on="0"/>
        <pt x="277" y="464" on="0"/>
        <pt x="182" y="286" on="0"/>
        <pt x="182" y="221" on="1"/>
        <pt x="182" y="189" on="0"/>
        <pt x="202" y="160" on="0"/>
        <pt x="228" y="160" on="1"/>
        <pt x="297" y="160" on="0"/>
        <pt x="439" y="202" on="0"/>
        <pt x="531" y="245" on="0"/>
        <pt x="544" y="245" on="0"/>
        <pt x="557" y="222" on="0"/>
        <pt x="557" y="206" on="1"/>
        <pt x="557" y="172" on="0"/>
        <pt x="449" y="79" on="0"/>
        <pt x="296" y="13" on="0"/>
        <pt x="172" y="13" on="0"/>
        <pt x="35" y="163" on="0"/>
        <pt x="35" y="231" on="1"/>
        <pt x="35" y="326" on="0"/>
        <pt x="157" y="569" on="0"/>
        <pt x="350" y="747" on="0"/>
        <pt x="439" y="747" on="1"/>
      </contour>
    </TTGlyph>
    <TTGlyph name="Cacute" xMin="37" yMin="13" xMax="674" yMax="998">
      <contour>
        <pt x="469" y="747" on="0"/>
        <pt x="535" y="648" on="0"/>
        <pt x="535" y="584" on="0"/>
        <pt x="522" y="584" on="1"/>
        <pt x="516" y="584" on="0"/>
        <pt x="477" y="592" on="0"/>
        <pt x="463" y="592" on="1"/>
        <pt x="413" y="592" on="0"/>
        <pt x="279" y="464" on="0"/>
        <pt x="184" y="286" on="0"/>
        <pt x="184" y="221" on="1"/>
        <pt x="184" y="189" on="0"/>
        <pt x="204" y="160" on="0"/>
        <pt x="230" y="160" on="1"/>
        <pt x="299" y="160" on="0"/>
        <pt x="441" y="202" on="0"/>
        <pt x="533" y="245" on="0"/>
        <pt x="546" y="245" on="0"/>
        <pt x="559" y="222" on="0"/>
        <pt x="559" y="206" on="1"/>
        <pt x="559" y="172" on="0"/>
        <pt x="451" y="79" on="0"/>
        <pt x="298" y="13" on="0"/>
        <pt x="174" y="13" on="0"/>
        <pt x="37" y="163" on="0"/>
        <pt x="37" y="231" on="1"/>
        <pt x="37" y="326" on="0"/>
        <pt x="159" y="569" on="0"/>
        <pt x="352" y="747" on="0"/>
        <pt x="441" y="747" on="1"/>
      </contour>
      <contour>
        <pt x="574" y="998" on="1"/>
        <pt x="615" y="1033" on="0"/>
        <pt x="652" y="988" on="1"/>
        <pt x="675" y="959" on="0"/>
        <pt x="672" y="894" on="0"/>
        <pt x="650" y="882" on="1"/>
        <pt x="541" y="827" on="1"/>
        <pt x="534" y="823" on="0"/>
        <pt x="506" y="805" on="0"/>
        <pt x="488" y="795" on="0"/>
        <pt x="476" y="792" on="1"/>
        <pt x="453" y="784" on="0"/>
        <pt x="421" y="829" on="0"/>
        <pt x="440" y="886" on="0"/>
        <pt x="468" y="910" on="1"/>
      </contour>
    </TTGlyph>
    <TTGlyph name="Ccaron" xMin="37" yMin="13" xMax="635" yMax="998">
      <contour>
        <pt x="469" y="747" on="0"/>
        <pt x="535" y="648" on="0"/>
        <pt x="535" y="584" on="0"/>
        <pt x="522" y="584" on="1"/>
        <pt x="516" y="584" on="0"/>
        <pt x="477" y="592" on="0"/>
        <pt x="463" y="592" on="1"/>
        <pt x="413" y="592" on="0"/>
        <pt x="279" y="464" on="0"/>
        <pt x="184" y="286" on="0"/>
        <pt x="184" y="221" on="1"/>
        <pt x="184" y="189" on="0"/>
        <pt x="204" y="160" on="0"/>
        <pt x="230" y="160" on="1"/>
        <pt x="299" y="160" on="0"/>
        <pt x="441" y="202" on="0"/>
        <pt x="533" y="245" on="0"/>
        <pt x="546" y="245" on="0"/>
        <pt x="559" y="222" on="0"/>
        <pt x="559" y="206" on="1"/>
        <pt x="559" y="172" on="0"/>
        <pt x="451" y="79" on="0"/>
        <pt x="298" y="13" on="0"/>
        <pt x="174" y="13" on="0"/>
        <pt x="37" y="163" on="0"/>
        <pt x="37" y="231" on="1"/>
        <pt x="37" y="326" on="0"/>
        <pt x="159" y="569" on="0"/>
        <pt x="352" y="747" on="0"/>
        <pt x="441" y="747" on="1"/>
      </contour>
      <contour>
        <pt x="598" y="964" on="1"/>
        <pt x="635" y="964" on="0"/>
        <pt x="635" y="929" on="1"/>
        <pt x="635" y="912" on="0"/>
        <pt x="603" y="884" on="0"/>
        <pt x="584" y="870" on="0"/>
        <pt x="551" y="847" on="0"/>
        <pt x="531" y="832" on="0"/>
        <pt x="501" y="807" on="0"/>
        <pt x="492" y="800" on="1"/>
        <pt x="471" y="782" on="0"/>
        <pt x="455" y="782" on="1"/>
        <pt x="432" y="782" on="0"/>
        <pt x="305" y="907" on="0"/>
        <pt x="305" y="944" on="1"/>
        <pt x="305" y="967" on="0"/>
        <pt x="330" y="998" on="0"/>
        <pt x="370" y="998" on="0"/>
        <pt x="400" y="975" on="0"/>
        <pt x="446" y="922" on="0"/>
        <pt x="468" y="904" on="1"/>
        <pt x="551" y="964" on="0"/>
      </contour>
    </TTGlyph>
    <TTGlyph name="Ccedilla" xMin="37" yMin="-204" xMax="559" yMax="747">
      <contour>
        <pt x="559" y="206" on="1"/>
        <pt x="559" y="156" on="0"/>
        <pt x="356" y="25" on="0"/>
        <pt x="263" y="14" on="1"/>
        <pt x="255" y="-4" on="0"/>
        <pt x="241" y="-28" on="1"/>
        <pt x="275" y="-33" on="0"/>
        <pt x="336" y="-68" on="0"/>
        <pt x="336" y="-91" on="1"/>
        <pt x="335" y="-135" on="0"/>
        <pt x="204" y="-205" on="0"/>
        <pt x="126" y="-204" on="1"/>
        <pt x="97" y="-203" on="0"/>
        <pt x="55" y="-178" on="0"/>
        <pt x="55" y="-152" on="0"/>
        <pt x="110" y="-136" on="0"/>
        <pt x="190" y="-122" on="0"/>
        <pt x="206" y="-115" on="1"/>
        <pt x="200" y="-104" on="0"/>
        <pt x="159" y="-92" on="0"/>
        <pt x="130" y="-81" on="0"/>
        <pt x="134" y="-69" on="1"/>
        <pt x="136" y="-53" on="0"/>
        <pt x="170" y="17" on="0"/>
        <pt x="176" y="31" on="1"/>
        <pt x="122" y="61" on="0"/>
        <pt x="37" y="180" on="0"/>
        <pt x="37" y="231" on="1"/>
        <pt x="37" y="326" on="0"/>
        <pt x="159" y="569" on="0"/>
        <pt x="352" y="747" on="0"/>
        <pt x="441" y="747" on="1"/>
        <pt x="469" y="747" on="0"/>
        <pt x="535" y="648" on="0"/>
        <pt x="535" y="584" on="0"/>
        <pt x="522" y="584" on="1"/>
        <pt x="516" y="584" on="0"/>
        <pt x="477" y="592" on="0"/>
        <pt x="463" y="592" on="1"/>
        <pt x="413" y="592" on="0"/>
        <pt x="279" y="464" on="0"/>
        <pt x="184" y="286" on="0"/>
        <pt x="184" y="221" on="1"/>
        <pt x="184" y="189" on="0"/>
        <pt x="204" y="160" on="0"/>
        <pt x="230" y="160" on="1"/>
        <pt x="299" y="160" on="0"/>
        <pt x="441" y="202" on="0"/>
        <pt x="533" y="245" on="0"/>
        <pt x="546" y="245" on="0"/>
        <pt x="559" y="222" on="0"/>
      </contour>
    </TTGlyph>
    <TTGlyph name="D" xMin="52" yMin="13" xMax="639" yMax="747">
      <contour>
        <pt x="110" y="747" on="1"/>
        <pt x="188" y="747" on="0"/>
        <pt x="373" y="683" on="0"/>
        <pt x="532" y="579" on="0"/>
        <pt x="639" y="433" on="0"/>
        <pt x="639" y="358" on="1"/>
        <pt x="639" y="302" on="0"/>
        <pt x="458" y="135" on="0"/>
        <pt x="220" y="13" on="0"/>
        <pt x="144" y="13" on="1"/>
        <pt x="127" y="13" on="0"/>
        <pt x="52" y="102" on="0"/>
        <pt x="52" y="123" on="1"/>
        <pt x="52" y="164" on="0"/>
        <pt x="161" y="539" on="0"/>
        <pt x="174" y="609" on="1"/>
        <pt x="138" y="633" on="0"/>
        <pt x="90" y="700" on="0"/>
        <pt x="90" y="747" on="0"/>
      </contour>
      <contour>
        <pt x="495" y="386" on="1"/>
        <pt x="495" y="418" on="0"/>
        <pt x="377" y="523" on="0"/>
        <pt x="299" y="558" on="1"/>
        <pt x="293" y="483" on="0"/>
        <pt x="214" y="237" on="1"/>
        <pt x="210" y="224" on="0"/>
        <pt x="193" y="165" on="0"/>
        <pt x="189" y="155" on="1"/>
        <pt x="287" y="188" on="0"/>
        <pt x="495" y="345" on="0"/>
      </contour>
    </TTGlyph>
    <TTGlyph name="Dcaron" xMin="52" yMin="13" xMax="639" yMax="938">
      <contour>
        <pt x="110" y="747" on="1"/>
        <pt x="188" y="747" on="0"/>
        <pt x="373" y="683" on="0"/>
        <pt x="532" y="579" on="0"/>
        <pt x="639" y="433" on="0"/>
        <pt x="639" y="358" on="1"/>
        <pt x="639" y="302" on="0"/>
        <pt x="458" y="135" on="0"/>
        <pt x="220" y="13" on="0"/>
        <pt x="144" y="13" on="1"/>
        <pt x="127" y="13" on="0"/>
        <pt x="52" y="102" on="0"/>
        <pt x="52" y="123" on="1"/>
        <pt x="52" y="164" on="0"/>
        <pt x="161" y="539" on="0"/>
        <pt x="174" y="609" on="1"/>
        <pt x="138" y="633" on="0"/>
        <pt x="90" y="700" on="0"/>
        <pt x="90" y="747" on="0"/>
      </contour>
      <contour>
        <pt x="495" y="386" on="1"/>
        <pt x="495" y="418" on="0"/>
        <pt x="377" y="523" on="0"/>
        <pt x="299" y="558" on="1"/>
        <pt x="293" y="483" on="0"/>
        <pt x="214" y="237" on="1"/>
        <pt x="210" y="224" on="0"/>
        <pt x="193" y="165" on="0"/>
        <pt x="189" y="155" on="1"/>
        <pt x="287" y="188" on="0"/>
        <pt x="495" y="345" on="0"/>
      </contour>
      <contour>
        <pt x="444" y="722" on="1"/>
        <pt x="421" y="722" on="0"/>
        <pt x="294" y="847" on="0"/>
        <pt x="294" y="884" on="1"/>
        <pt x="294" y="907" on="0"/>
        <pt x="319" y="938" on="0"/>
        <pt x="359" y="938" on="0"/>
        <pt x="389" y="915" on="0"/>
        <pt x="435" y="862" on="0"/>
        <pt x="457" y="844" on="1"/>
        <pt x="540" y="904" on="0"/>
        <pt x="587" y="904" on="1"/>
        <pt x="624" y="904" on="0"/>
        <pt x="624" y="869" on="1"/>
        <pt x="624" y="852" on="0"/>
        <pt x="592" y="824" on="0"/>
        <pt x="573" y="810" on="0"/>
        <pt x="540" y="787" on="0"/>
        <pt x="520" y="772" on="0"/>
        <pt x="490" y="747" on="0"/>
        <pt x="482" y="740" on="1"/>
        <pt x="460" y="722" on="0"/>
      </contour>
    </TTGlyph>
    <TTGlyph name="Dcroat" xMin="18" yMin="13" xMax="639" yMax="747">
      <contour>
        <pt x="138" y="633" on="0"/>
        <pt x="90" y="700" on="0"/>
        <pt x="90" y="747" on="0"/>
        <pt x="110" y="747" on="1"/>
        <pt x="188" y="747" on="0"/>
        <pt x="373" y="683" on="0"/>
        <pt x="532" y="579" on="0"/>
        <pt x="639" y="433" on="0"/>
        <pt x="639" y="358" on="1"/>
        <pt x="639" y="302" on="0"/>
        <pt x="458" y="135" on="0"/>
        <pt x="220" y="13" on="0"/>
        <pt x="144" y="13" on="1"/>
        <pt x="127" y="13" on="0"/>
        <pt x="52" y="102" on="0"/>
        <pt x="52" y="123" on="1"/>
        <pt x="52" y="160" on="0"/>
        <pt x="87" y="283" on="1"/>
        <pt x="32" y="290" on="0"/>
        <pt x="20" y="334" on="1"/>
        <pt x="18" y="351" on="0"/>
        <pt x="18" y="365" on="1"/>
        <pt x="20" y="396" on="0"/>
        <pt x="72" y="404" on="1"/>
        <pt x="124" y="411" on="1"/>
        <pt x="160" y="538" on="0"/>
        <pt x="174" y="609" on="1"/>
      </contour>
      <contour>
        <pt x="495" y="386" on="1"/>
        <pt x="495" y="418" on="0"/>
        <pt x="377" y="523" on="0"/>
        <pt x="299" y="558" on="1"/>
        <pt x="296" y="519" on="0"/>
        <pt x="273" y="432" on="1"/>
        <pt x="326" y="439" on="0"/>
        <pt x="408" y="405" on="0"/>
        <pt x="415" y="376" on="1"/>
        <pt x="419" y="326" on="0"/>
        <pt x="349" y="318" on="1"/>
        <pt x="351" y="319" on="0"/>
        <pt x="281" y="308" on="0"/>
        <pt x="234" y="301" on="1"/>
        <pt x="211" y="227" on="0"/>
        <pt x="193" y="165" on="0"/>
        <pt x="189" y="155" on="1"/>
        <pt x="287" y="188" on="0"/>
        <pt x="495" y="345" on="0"/>
      </contour>
    </TTGlyph>
    <TTGlyph name="E" xMin="25" yMin="20" xMax="591" yMax="728">
      <contour>
        <pt x="298" y="432" on="0"/>
        <pt x="424" y="444" on="0"/>
        <pt x="452" y="444" on="0"/>
        <pt x="469" y="430" on="0"/>
        <pt x="469" y="420" on="1"/>
        <pt x="469" y="376" on="0"/>
        <pt x="303" y="324" on="0"/>
        <pt x="209" y="320" on="1"/>
        <pt x="170" y="199" on="0"/>
        <pt x="170" y="167" on="1"/>
        <pt x="170" y="150" on="0"/>
        <pt x="187" y="150" on="1"/>
        <pt x="301" y="150" on="0"/>
        <pt x="422" y="180" on="1"/>
        <pt x="463" y="191" on="0"/>
        <pt x="469" y="191" on="1"/>
        <pt x="488" y="191" on="0"/>
        <pt x="488" y="164" on="1"/>
        <pt x="488" y="128" on="0"/>
        <pt x="382" y="60" on="0"/>
        <pt x="222" y="20" on="0"/>
        <pt x="145" y="20" on="1"/>
        <pt x="99" y="20" on="0"/>
        <pt x="25" y="89" on="0"/>
        <pt x="25" y="182" on="0"/>
        <pt x="128" y="556" on="0"/>
        <pt x="131" y="651" on="1"/>
        <pt x="130" y="654" on="0"/>
        <pt x="130" y="663" on="1"/>
        <pt x="130" y="677" on="0"/>
        <pt x="134" y="685" on="1"/>
        <pt x="145" y="713" on="0"/>
        <pt x="245" y="728" on="0"/>
        <pt x="375" y="728" on="1"/>
        <pt x="591" y="728" on="0"/>
        <pt x="591" y="680" on="1"/>
        <pt x="591" y="649" on="0"/>
        <pt x="538" y="637" on="1"/>
        <pt x="502" y="629" on="0"/>
        <pt x="439" y="622" on="1"/>
        <pt x="342" y="611" on="0"/>
        <pt x="266" y="590" on="1"/>
        <pt x="266" y="522" on="0"/>
        <pt x="242" y="433" on="1"/>
      </contour>
    </TTGlyph>
    <TTGlyph name="Eacute" xMin="25" yMin="20" xMax="591" yMax="998">
      <contour>
        <pt x="298" y="432" on="0"/>
        <pt x="424" y="444" on="0"/>
        <pt x="452" y="444" on="0"/>
        <pt x="469" y="430" on="0"/>
        <pt x="469" y="420" on="1"/>
        <pt x="469" y="376" on="0"/>
        <pt x="303" y="324" on="0"/>
        <pt x="209" y="320" on="1"/>
        <pt x="170" y="199" on="0"/>
        <pt x="170" y="167" on="1"/>
        <pt x="170" y="150" on="0"/>
        <pt x="187" y="150" on="1"/>
        <pt x="301" y="150" on="0"/>
        <pt x="422" y="180" on="1"/>
        <pt x="463" y="191" on="0"/>
        <pt x="469" y="191" on="1"/>
        <pt x="488" y="191" on="0"/>
        <pt x="488" y="164" on="1"/>
        <pt x="488" y="128" on="0"/>
        <pt x="382" y="60" on="0"/>
        <pt x="222" y="20" on="0"/>
        <pt x="145" y="20" on="1"/>
        <pt x="99" y="20" on="0"/>
        <pt x="25" y="89" on="0"/>
        <pt x="25" y="182" on="0"/>
        <pt x="128" y="556" on="0"/>
        <pt x="131" y="651" on="1"/>
        <pt x="130" y="654" on="0"/>
        <pt x="130" y="663" on="1"/>
        <pt x="130" y="677" on="0"/>
        <pt x="134" y="685" on="1"/>
        <pt x="145" y="713" on="0"/>
        <pt x="245" y="728" on="0"/>
        <pt x="375" y="728" on="1"/>
        <pt x="591" y="728" on="0"/>
        <pt x="591" y="680" on="1"/>
        <pt x="591" y="649" on="0"/>
        <pt x="538" y="637" on="1"/>
        <pt x="502" y="629" on="0"/>
        <pt x="439" y="622" on="1"/>
        <pt x="342" y="611" on="0"/>
        <pt x="266" y="590" on="1"/>
        <pt x="266" y="522" on="0"/>
        <pt x="242" y="433" on="1"/>
      </contour>
      <contour>
        <pt x="552" y="882" on="1"/>
        <pt x="443" y="827" on="1"/>
        <pt x="436" y="823" on="0"/>
        <pt x="408" y="805" on="0"/>
        <pt x="390" y="795" on="0"/>
        <pt x="378" y="792" on="1"/>
        <pt x="355" y="784" on="0"/>
        <pt x="323" y="829" on="0"/>
        <pt x="342" y="886" on="0"/>
        <pt x="370" y="910" on="1"/>
        <pt x="476" y="998" on="1"/>
        <pt x="517" y="1033" on="0"/>
        <pt x="554" y="988" on="1"/>
        <pt x="577" y="959" on="0"/>
        <pt x="574" y="894" on="0"/>
      </contour>
    </TTGlyph>
    <TTGlyph name="Ecaron" xMin="25" yMin="20" xMax="591" yMax="998">
      <contour>
        <pt x="298" y="432" on="0"/>
        <pt x="424" y="444" on="0"/>
        <pt x="452" y="444" on="0"/>
        <pt x="469" y="430" on="0"/>
        <pt x="469" y="420" on="1"/>
        <pt x="469" y="376" on="0"/>
        <pt x="303" y="324" on="0"/>
        <pt x="209" y="320" on="1"/>
        <pt x="170" y="199" on="0"/>
        <pt x="170" y="167" on="1"/>
        <pt x="170" y="150" on="0"/>
        <pt x="187" y="150" on="1"/>
        <pt x="301" y="150" on="0"/>
        <pt x="422" y="180" on="1"/>
        <pt x="463" y="191" on="0"/>
        <pt x="469" y="191" on="1"/>
        <pt x="488" y="191" on="0"/>
        <pt x="488" y="164" on="1"/>
        <pt x="488" y="128" on="0"/>
        <pt x="382" y="60" on="0"/>
        <pt x="222" y="20" on="0"/>
        <pt x="145" y="20" on="1"/>
        <pt x="99" y="20" on="0"/>
        <pt x="25" y="89" on="0"/>
        <pt x="25" y="182" on="0"/>
        <pt x="128" y="556" on="0"/>
        <pt x="131" y="651" on="1"/>
        <pt x="130" y="654" on="0"/>
        <pt x="130" y="663" on="1"/>
        <pt x="130" y="677" on="0"/>
        <pt x="134" y="685" on="1"/>
        <pt x="145" y="713" on="0"/>
        <pt x="245" y="728" on="0"/>
        <pt x="375" y="728" on="1"/>
        <pt x="591" y="728" on="0"/>
        <pt x="591" y="680" on="1"/>
        <pt x="591" y="649" on="0"/>
        <pt x="538" y="637" on="1"/>
        <pt x="502" y="629" on="0"/>
        <pt x="439" y="622" on="1"/>
        <pt x="342" y="611" on="0"/>
        <pt x="266" y="590" on="1"/>
        <pt x="266" y="522" on="0"/>
        <pt x="242" y="433" on="1"/>
      </contour>
      <contour>
        <pt x="357" y="782" on="1"/>
        <pt x="334" y="782" on="0"/>
        <pt x="207" y="907" on="0"/>
        <pt x="207" y="944" on="1"/>
        <pt x="207" y="967" on="0"/>
        <pt x="232" y="998" on="0"/>
        <pt x="272" y="998" on="0"/>
        <pt x="302" y="975" on="0"/>
        <pt x="348" y="922" on="0"/>
        <pt x="370" y="904" on="1"/>
        <pt x="453" y="964" on="0"/>
        <pt x="500" y="964" on="1"/>
        <pt x="537" y="964" on="0"/>
        <pt x="537" y="929" on="1"/>
        <pt x="537" y="912" on="0"/>
        <pt x="505" y="884" on="0"/>
        <pt x="486" y="870" on="0"/>
        <pt x="453" y="847" on="0"/>
        <pt x="433" y="832" on="0"/>
        <pt x="403" y="807" on="0"/>
        <pt x="394" y="800" on="1"/>
        <pt x="373" y="782" on="0"/>
      </contour>
    </TTGlyph>
    <TTGlyph name="Ecircumflex" xMin="25" yMin="20" xMax="591" yMax="1001">
      <contour>
        <pt x="298" y="432" on="0"/>
        <pt x="424" y="444" on="0"/>
        <pt x="452" y="444" on="0"/>
        <pt x="469" y="430" on="0"/>
        <pt x="469" y="420" on="1"/>
        <pt x="469" y="376" on="0"/>
        <pt x="303" y="324" on="0"/>
        <pt x="209" y="320" on="1"/>
        <pt x="170" y="199" on="0"/>
        <pt x="170" y="167" on="1"/>
        <pt x="170" y="150" on="0"/>
        <pt x="187" y="150" on="1"/>
        <pt x="301" y="150" on="0"/>
        <pt x="422" y="180" on="1"/>
        <pt x="463" y="191" on="0"/>
        <pt x="469" y="191" on="1"/>
        <pt x="488" y="191" on="0"/>
        <pt x="488" y="164" on="1"/>
        <pt x="488" y="128" on="0"/>
        <pt x="382" y="60" on="0"/>
        <pt x="222" y="20" on="0"/>
        <pt x="145" y="20" on="1"/>
        <pt x="99" y="20" on="0"/>
        <pt x="25" y="89" on="0"/>
        <pt x="25" y="182" on="0"/>
        <pt x="128" y="556" on="0"/>
        <pt x="131" y="651" on="1"/>
        <pt x="130" y="654" on="0"/>
        <pt x="130" y="663" on="1"/>
        <pt x="130" y="677" on="0"/>
        <pt x="134" y="685" on="1"/>
        <pt x="145" y="713" on="0"/>
        <pt x="245" y="728" on="0"/>
        <pt x="375" y="728" on="1"/>
        <pt x="591" y="728" on="0"/>
        <pt x="591" y="680" on="1"/>
        <pt x="591" y="649" on="0"/>
        <pt x="538" y="637" on="1"/>
        <pt x="502" y="629" on="0"/>
        <pt x="439" y="622" on="1"/>
        <pt x="342" y="611" on="0"/>
        <pt x="266" y="590" on="1"/>
        <pt x="266" y="522" on="0"/>
        <pt x="242" y="433" on="1"/>
      </contour>
      <contour>
        <pt x="298" y="826" on="0"/>
        <pt x="268" y="806" on="0"/>
        <pt x="232" y="806" on="0"/>
        <pt x="208" y="834" on="0"/>
        <pt x="208" y="855" on="1"/>
        <pt x="208" y="903" on="0"/>
        <pt x="281" y="945" on="1"/>
        <pt x="292" y="951" on="0"/>
        <pt x="324" y="971" on="0"/>
        <pt x="344" y="983" on="0"/>
        <pt x="356" y="989" on="1"/>
        <pt x="379" y="1001" on="0"/>
        <pt x="401" y="1001" on="0"/>
        <pt x="421" y="979" on="0"/>
        <pt x="450" y="934" on="0"/>
        <pt x="470" y="913" on="0"/>
        <pt x="521" y="863" on="0"/>
        <pt x="542" y="831" on="0"/>
        <pt x="542" y="804" on="0"/>
        <pt x="523" y="787" on="0"/>
        <pt x="512" y="787" on="1"/>
        <pt x="485" y="787" on="0"/>
        <pt x="404" y="844" on="0"/>
        <pt x="376" y="879" on="1"/>
        <pt x="348" y="865" on="0"/>
      </contour>
    </TTGlyph>
    <TTGlyph name="Edieresis" xMin="25" yMin="20" xMax="591" yMax="961">
      <contour>
        <pt x="298" y="432" on="0"/>
        <pt x="424" y="444" on="0"/>
        <pt x="452" y="444" on="0"/>
        <pt x="469" y="430" on="0"/>
        <pt x="469" y="420" on="1"/>
        <pt x="469" y="376" on="0"/>
        <pt x="303" y="324" on="0"/>
        <pt x="209" y="320" on="1"/>
        <pt x="170" y="199" on="0"/>
        <pt x="170" y="167" on="1"/>
        <pt x="170" y="150" on="0"/>
        <pt x="187" y="150" on="1"/>
        <pt x="301" y="150" on="0"/>
        <pt x="422" y="180" on="1"/>
        <pt x="463" y="191" on="0"/>
        <pt x="469" y="191" on="1"/>
        <pt x="488" y="191" on="0"/>
        <pt x="488" y="164" on="1"/>
        <pt x="488" y="128" on="0"/>
        <pt x="382" y="60" on="0"/>
        <pt x="222" y="20" on="0"/>
        <pt x="145" y="20" on="1"/>
        <pt x="99" y="20" on="0"/>
        <pt x="25" y="89" on="0"/>
        <pt x="25" y="182" on="0"/>
        <pt x="128" y="556" on="0"/>
        <pt x="131" y="651" on="1"/>
        <pt x="130" y="654" on="0"/>
        <pt x="130" y="663" on="1"/>
        <pt x="130" y="677" on="0"/>
        <pt x="134" y="685" on="1"/>
        <pt x="145" y="713" on="0"/>
        <pt x="245" y="728" on="0"/>
        <pt x="375" y="728" on="1"/>
        <pt x="591" y="728" on="0"/>
        <pt x="591" y="680" on="1"/>
        <pt x="591" y="649" on="0"/>
        <pt x="538" y="637" on="1"/>
        <pt x="502" y="629" on="0"/>
        <pt x="439" y="622" on="1"/>
        <pt x="342" y="611" on="0"/>
        <pt x="266" y="590" on="1"/>
        <pt x="266" y="522" on="0"/>
        <pt x="242" y="433" on="1"/>
      </contour>
      <contour>
        <pt x="308" y="799" on="1"/>
        <pt x="281" y="799" on="0"/>
        <pt x="217" y="864" on="0"/>
        <pt x="217" y="911" on="0"/>
        <pt x="259" y="961" on="0"/>
        <pt x="300" y="961" on="0"/>
        <pt x="354" y="863" on="0"/>
        <pt x="354" y="828" on="0"/>
        <pt x="323" y="799" on="0"/>
      </contour>
      <contour>
        <pt x="486" y="799" on="1"/>
        <pt x="459" y="799" on="0"/>
        <pt x="395" y="864" on="0"/>
        <pt x="395" y="911" on="0"/>
        <pt x="437" y="961" on="0"/>
        <pt x="478" y="961" on="0"/>
        <pt x="532" y="863" on="0"/>
        <pt x="532" y="828" on="0"/>
        <pt x="501" y="799" on="0"/>
      </contour>
    </TTGlyph>
    <TTGlyph name="Edotaccent" xMin="25" yMin="20" xMax="591" yMax="944">
      <contour>
        <pt x="298" y="432" on="0"/>
        <pt x="424" y="444" on="0"/>
        <pt x="452" y="444" on="0"/>
        <pt x="469" y="430" on="0"/>
        <pt x="469" y="420" on="1"/>
        <pt x="469" y="376" on="0"/>
        <pt x="303" y="324" on="0"/>
        <pt x="209" y="320" on="1"/>
        <pt x="170" y="199" on="0"/>
        <pt x="170" y="167" on="1"/>
        <pt x="170" y="150" on="0"/>
        <pt x="187" y="150" on="1"/>
        <pt x="301" y="150" on="0"/>
        <pt x="422" y="180" on="1"/>
        <pt x="463" y="191" on="0"/>
        <pt x="469" y="191" on="1"/>
        <pt x="488" y="191" on="0"/>
        <pt x="488" y="164" on="1"/>
        <pt x="488" y="128" on="0"/>
        <pt x="382" y="60" on="0"/>
        <pt x="222" y="20" on="0"/>
        <pt x="145" y="20" on="1"/>
        <pt x="99" y="20" on="0"/>
        <pt x="25" y="89" on="0"/>
        <pt x="25" y="182" on="0"/>
        <pt x="128" y="556" on="0"/>
        <pt x="131" y="651" on="1"/>
        <pt x="130" y="654" on="0"/>
        <pt x="130" y="663" on="1"/>
        <pt x="130" y="677" on="0"/>
        <pt x="134" y="685" on="1"/>
        <pt x="145" y="713" on="0"/>
        <pt x="245" y="728" on="0"/>
        <pt x="375" y="728" on="1"/>
        <pt x="591" y="728" on="0"/>
        <pt x="591" y="680" on="1"/>
        <pt x="591" y="649" on="0"/>
        <pt x="538" y="637" on="1"/>
        <pt x="502" y="629" on="0"/>
        <pt x="439" y="622" on="1"/>
        <pt x="342" y="611" on="0"/>
        <pt x="266" y="590" on="1"/>
        <pt x="266" y="522" on="0"/>
        <pt x="242" y="433" on="1"/>
      </contour>
      <contour>
        <pt x="391" y="785" on="1"/>
        <pt x="364" y="785" on="0"/>
        <pt x="300" y="849" on="0"/>
        <pt x="300" y="896" on="0"/>
        <pt x="341" y="944" on="0"/>
        <pt x="382" y="944" on="0"/>
        <pt x="436" y="850" on="0"/>
        <pt x="436" y="814" on="0"/>
        <pt x="406" y="785" on="0"/>
      </contour>
    </TTGlyph>
    <TTGlyph name="Egrave" xMin="25" yMin="20" xMax="591" yMax="996">
      <contour>
        <pt x="298" y="432" on="0"/>
        <pt x="424" y="444" on="0"/>
        <pt x="452" y="444" on="0"/>
        <pt x="469" y="430" on="0"/>
        <pt x="469" y="420" on="1"/>
        <pt x="469" y="376" on="0"/>
        <pt x="303" y="324" on="0"/>
        <pt x="209" y="320" on="1"/>
        <pt x="170" y="199" on="0"/>
        <pt x="170" y="167" on="1"/>
        <pt x="170" y="150" on="0"/>
        <pt x="187" y="150" on="1"/>
        <pt x="301" y="150" on="0"/>
        <pt x="422" y="180" on="1"/>
        <pt x="463" y="191" on="0"/>
        <pt x="469" y="191" on="1"/>
        <pt x="488" y="191" on="0"/>
        <pt x="488" y="164" on="1"/>
        <pt x="488" y="128" on="0"/>
        <pt x="382" y="60" on="0"/>
        <pt x="222" y="20" on="0"/>
        <pt x="145" y="20" on="1"/>
        <pt x="99" y="20" on="0"/>
        <pt x="25" y="89" on="0"/>
        <pt x="25" y="182" on="0"/>
        <pt x="128" y="556" on="0"/>
        <pt x="131" y="651" on="1"/>
        <pt x="130" y="654" on="0"/>
        <pt x="130" y="663" on="1"/>
        <pt x="130" y="677" on="0"/>
        <pt x="134" y="685" on="1"/>
        <pt x="145" y="713" on="0"/>
        <pt x="245" y="728" on="0"/>
        <pt x="375" y="728" on="1"/>
        <pt x="591" y="728" on="0"/>
        <pt x="591" y="680" on="1"/>
        <pt x="591" y="649" on="0"/>
        <pt x="538" y="637" on="1"/>
        <pt x="502" y="629" on="0"/>
        <pt x="439" y="622" on="1"/>
        <pt x="342" y="611" on="0"/>
        <pt x="266" y="590" on="1"/>
        <pt x="266" y="522" on="0"/>
        <pt x="242" y="433" on="1"/>
      </contour>
      <contour>
        <pt x="431" y="791" on="0"/>
        <pt x="402" y="791" on="0"/>
        <pt x="384" y="801" on="0"/>
        <pt x="366" y="815" on="1"/>
        <pt x="348" y="828" on="0"/>
        <pt x="236" y="899" on="1"/>
        <pt x="216" y="911" on="0"/>
        <pt x="218" y="967" on="0"/>
        <pt x="243" y="992" on="1"/>
        <pt x="283" y="1035" on="0"/>
        <pt x="320" y="996" on="1"/>
        <pt x="419" y="897" on="1"/>
        <pt x="476" y="841" on="0"/>
        <pt x="443" y="804" on="1"/>
      </contour>
    </TTGlyph>
    <TTGlyph name="Emacron" xMin="25" yMin="20" xMax="591" yMax="913">
      <contour>
        <pt x="298" y="432" on="0"/>
        <pt x="424" y="444" on="0"/>
        <pt x="452" y="444" on="0"/>
        <pt x="469" y="430" on="0"/>
        <pt x="469" y="420" on="1"/>
        <pt x="469" y="376" on="0"/>
        <pt x="303" y="324" on="0"/>
        <pt x="209" y="320" on="1"/>
        <pt x="170" y="199" on="0"/>
        <pt x="170" y="167" on="1"/>
        <pt x="170" y="150" on="0"/>
        <pt x="187" y="150" on="1"/>
        <pt x="301" y="150" on="0"/>
        <pt x="422" y="180" on="1"/>
        <pt x="463" y="191" on="0"/>
        <pt x="469" y="191" on="1"/>
        <pt x="488" y="191" on="0"/>
        <pt x="488" y="164" on="1"/>
        <pt x="488" y="128" on="0"/>
        <pt x="382" y="60" on="0"/>
        <pt x="222" y="20" on="0"/>
        <pt x="145" y="20" on="1"/>
        <pt x="99" y="20" on="0"/>
        <pt x="25" y="89" on="0"/>
        <pt x="25" y="182" on="0"/>
        <pt x="128" y="556" on="0"/>
        <pt x="131" y="651" on="1"/>
        <pt x="130" y="654" on="0"/>
        <pt x="130" y="663" on="1"/>
        <pt x="130" y="677" on="0"/>
        <pt x="134" y="685" on="1"/>
        <pt x="145" y="713" on="0"/>
        <pt x="245" y="728" on="0"/>
        <pt x="375" y="728" on="1"/>
        <pt x="591" y="728" on="0"/>
        <pt x="591" y="680" on="1"/>
        <pt x="591" y="649" on="0"/>
        <pt x="538" y="637" on="1"/>
        <pt x="502" y="629" on="0"/>
        <pt x="439" y="622" on="1"/>
        <pt x="342" y="611" on="0"/>
        <pt x="266" y="590" on="1"/>
        <pt x="266" y="522" on="0"/>
        <pt x="242" y="433" on="1"/>
      </contour>
      <contour>
        <pt x="546" y="884" on="1"/>
        <pt x="546" y="865" on="0"/>
        <pt x="483" y="847" on="0"/>
        <pt x="357" y="826" on="0"/>
        <pt x="323" y="820" on="1"/>
        <pt x="263" y="808" on="0"/>
        <pt x="225" y="809" on="0"/>
        <pt x="189" y="854" on="0"/>
        <pt x="189" y="873" on="1"/>
        <pt x="190" y="900" on="0"/>
        <pt x="333" y="915" on="0"/>
        <pt x="472" y="913" on="1"/>
        <pt x="546" y="911" on="0"/>
      </contour>
    </TTGlyph>
    <TTGlyph name="Eogonek" xMin="25" yMin="-76" xMax="591" yMax="728">
      <contour>
        <pt x="298" y="432" on="0"/>
        <pt x="424" y="444" on="0"/>
        <pt x="452" y="444" on="0"/>
        <pt x="469" y="430" on="0"/>
        <pt x="469" y="420" on="1"/>
        <pt x="469" y="376" on="0"/>
        <pt x="303" y="324" on="0"/>
        <pt x="209" y="320" on="1"/>
        <pt x="170" y="199" on="0"/>
        <pt x="170" y="167" on="1"/>
        <pt x="170" y="150" on="0"/>
        <pt x="187" y="150" on="1"/>
        <pt x="301" y="150" on="0"/>
        <pt x="422" y="180" on="1"/>
        <pt x="463" y="191" on="0"/>
        <pt x="474" y="191" on="0"/>
        <pt x="478" y="189" on="1"/>
        <pt x="501" y="186" on="0"/>
        <pt x="530" y="151" on="0"/>
        <pt x="515" y="107" on="0"/>
        <pt x="490" y="88" on="1"/>
        <pt x="438" y="49" on="0"/>
        <pt x="438" y="33" on="1"/>
        <pt x="438" y="23" on="0"/>
        <pt x="484" y="23" on="0"/>
        <pt x="508" y="29" on="0"/>
        <pt x="541" y="10" on="0"/>
        <pt x="556" y="-27" on="0"/>
        <pt x="539" y="-45" on="1"/>
        <pt x="510" y="-76" on="0"/>
        <pt x="399" y="-76" on="1"/>
        <pt x="364" y="-76" on="0"/>
        <pt x="311" y="-38" on="0"/>
        <pt x="311" y="14" on="0"/>
        <pt x="329" y="48" on="1"/>
        <pt x="235" y="20" on="0"/>
        <pt x="145" y="20" on="1"/>
        <pt x="99" y="20" on="0"/>
        <pt x="25" y="89" on="0"/>
        <pt x="25" y="182" on="0"/>
        <pt x="128" y="556" on="0"/>
        <pt x="131" y="651" on="1"/>
        <pt x="130" y="654" on="0"/>
        <pt x="130" y="663" on="1"/>
        <pt x="130" y="677" on="0"/>
        <pt x="134" y="685" on="1"/>
        <pt x="145" y="713" on="0"/>
        <pt x="245" y="728" on="0"/>
        <pt x="375" y="728" on="1"/>
        <pt x="591" y="728" on="0"/>
        <pt x="591" y="680" on="1"/>
        <pt x="591" y="649" on="0"/>
        <pt x="538" y="637" on="1"/>
        <pt x="502" y="629" on="0"/>
        <pt x="439" y="622" on="1"/>
        <pt x="342" y="611" on="0"/>
        <pt x="266" y="590" on="1"/>
        <pt x="266" y="522" on="0"/>
        <pt x="242" y="433" on="1"/>
      </contour>
    </TTGlyph>
    <TTGlyph name="Eth" xMin="18" yMin="20" xMax="682" yMax="754">
      <contour>
        <pt x="153" y="754" on="1"/>
        <pt x="231" y="754" on="0"/>
        <pt x="416" y="690" on="0"/>
        <pt x="575" y="586" on="0"/>
        <pt x="682" y="440" on="0"/>
        <pt x="682" y="365" on="1"/>
        <pt x="682" y="309" on="0"/>
        <pt x="501" y="142" on="0"/>
        <pt x="263" y="20" on="0"/>
        <pt x="187" y="20" on="1"/>
        <pt x="170" y="20" on="0"/>
        <pt x="95" y="109" on="0"/>
        <pt x="95" y="130" on="1"/>
        <pt x="95" y="167" on="0"/>
        <pt x="128" y="282" on="1"/>
        <pt x="85" y="277" on="0"/>
        <pt x="27" y="307" on="0"/>
        <pt x="20" y="334" on="1"/>
        <pt x="18" y="351" on="0"/>
        <pt x="18" y="365" on="1"/>
        <pt x="20" y="396" on="0"/>
        <pt x="72" y="404" on="1"/>
        <pt x="166" y="416" on="1"/>
        <pt x="202" y="537" on="0"/>
        <pt x="217" y="616" on="1"/>
        <pt x="181" y="640" on="0"/>
        <pt x="133" y="707" on="0"/>
        <pt x="133" y="754" on="0"/>
      </contour>
      <contour>
        <pt x="538" y="393" on="1"/>
        <pt x="538" y="425" on="0"/>
        <pt x="420" y="530" on="0"/>
        <pt x="342" y="565" on="1"/>
        <pt x="339" y="523" on="0"/>
        <pt x="315" y="434" on="1"/>
        <pt x="354" y="432" on="0"/>
        <pt x="410" y="399" on="0"/>
        <pt x="415" y="376" on="1"/>
        <pt x="419" y="326" on="0"/>
        <pt x="349" y="318" on="1"/>
        <pt x="277" y="307" on="1"/>
        <pt x="254" y="235" on="0"/>
        <pt x="236" y="172" on="0"/>
        <pt x="232" y="162" on="1"/>
        <pt x="330" y="195" on="0"/>
        <pt x="538" y="352" on="0"/>
      </contour>
    </TTGlyph>
    <TTGlyph name="Euro" xMin="7" yMin="11" xMax="624" yMax="737">
      <contour>
        <pt x="107" y="311" on="1"/>
        <pt x="107" y="315" on="0"/>
        <pt x="116" y="351" on="1"/>
        <pt x="98" y="351" on="1"/>
        <pt x="80" y="351" on="0"/>
        <pt x="44" y="422" on="0"/>
        <pt x="43" y="478" on="0"/>
        <pt x="169" y="490" on="1"/>
        <pt x="227" y="599" on="0"/>
        <pt x="407" y="737" on="0"/>
        <pt x="511" y="737" on="1"/>
        <pt x="543" y="737" on="0"/>
        <pt x="605" y="641" on="0"/>
        <pt x="605" y="593" on="0"/>
        <pt x="578" y="553" on="0"/>
        <pt x="564" y="553" on="1"/>
        <pt x="560" y="553" on="0"/>
        <pt x="534" y="602" on="0"/>
        <pt x="517" y="602" on="1"/>
        <pt x="474" y="602" on="0"/>
        <pt x="375" y="543" on="0"/>
        <pt x="331" y="495" on="1"/>
        <pt x="474" y="495" on="0"/>
        <pt x="599" y="476" on="0"/>
        <pt x="599" y="443" on="1"/>
        <pt x="599" y="415" on="0"/>
        <pt x="376" y="377" on="0"/>
        <pt x="292" y="373" on="1"/>
        <pt x="256" y="369" on="0"/>
        <pt x="247" y="369" on="1"/>
        <pt x="242" y="358" on="0"/>
        <pt x="233" y="328" on="1"/>
        <pt x="371" y="344" on="0"/>
        <pt x="475" y="344" on="1"/>
        <pt x="597" y="348" on="0"/>
        <pt x="597" y="312" on="1"/>
        <pt x="597" y="261" on="0"/>
        <pt x="238" y="204" on="1"/>
        <pt x="259" y="142" on="0"/>
        <pt x="332" y="142" on="1"/>
        <pt x="423" y="142" on="0"/>
        <pt x="546" y="186" on="1"/>
        <pt x="587" y="200" on="0"/>
        <pt x="609" y="200" on="0"/>
        <pt x="624" y="179" on="0"/>
        <pt x="624" y="165" on="1"/>
        <pt x="624" y="136" on="0"/>
        <pt x="528" y="63" on="0"/>
        <pt x="386" y="11" on="0"/>
        <pt x="327" y="11" on="1"/>
        <pt x="130" y="11" on="0"/>
        <pt x="104" y="185" on="1"/>
        <pt x="91" y="184" on="0"/>
        <pt x="60" y="184" on="1"/>
        <pt x="44" y="184" on="0"/>
        <pt x="7" y="256" on="0"/>
        <pt x="7" y="280" on="1"/>
        <pt x="7" y="294" on="0"/>
      </contour>
    </TTGlyph>
    <TTGlyph name="F" xMin="40" yMin="13" xMax="592" yMax="734">
      <contour>
        <pt x="157" y="716" on="0"/>
        <pt x="263" y="734" on="0"/>
        <pt x="478" y="734" on="0"/>
        <pt x="592" y="699" on="0"/>
        <pt x="592" y="667" on="1"/>
        <pt x="592" y="627" on="0"/>
        <pt x="415" y="612" on="1"/>
        <pt x="406" y="611" on="0"/>
        <pt x="396" y="610" on="0"/>
        <pt x="388" y="610" on="1"/>
        <pt x="343" y="607" on="0"/>
        <pt x="267" y="592" on="1"/>
        <pt x="267" y="591" on="1"/>
        <pt x="267" y="555" on="0"/>
        <pt x="236" y="400" on="1"/>
        <pt x="285" y="395" on="0"/>
        <pt x="431" y="410" on="0"/>
        <pt x="465" y="410" on="0"/>
        <pt x="489" y="392" on="0"/>
        <pt x="489" y="381" on="1"/>
        <pt x="489" y="354" on="0"/>
        <pt x="425" y="312" on="0"/>
        <pt x="377" y="300" on="1"/>
        <pt x="281" y="276" on="0"/>
        <pt x="208" y="274" on="1"/>
        <pt x="178" y="147" on="0"/>
        <pt x="165" y="90" on="0"/>
        <pt x="158" y="64" on="1"/>
        <pt x="145" y="13" on="0"/>
        <pt x="134" y="13" on="1"/>
        <pt x="113" y="13" on="0"/>
        <pt x="42" y="105" on="0"/>
        <pt x="39" y="161" on="0"/>
        <pt x="140" y="596" on="0"/>
        <pt x="144" y="652" on="1"/>
        <pt x="143" y="655" on="0"/>
        <pt x="143" y="662" on="1"/>
        <pt x="143" y="674" on="0"/>
        <pt x="146" y="683" on="1"/>
      </contour>
    </TTGlyph>
    <TTGlyph name="G" xMin="21" yMin="-82" xMax="544" yMax="740">
      <contour>
        <pt x="330" y="280" on="0"/>
        <pt x="277" y="319" on="0"/>
        <pt x="277" y="361" on="0"/>
        <pt x="373" y="387" on="0"/>
        <pt x="485" y="387" on="0"/>
        <pt x="544" y="297" on="0"/>
        <pt x="544" y="187" on="0"/>
        <pt x="451" y="-82" on="0"/>
        <pt x="417" y="-82" on="1"/>
        <pt x="403" y="-82" on="0"/>
        <pt x="384" y="-65" on="0"/>
        <pt x="384" y="-52" on="1"/>
        <pt x="384" y="20" on="0"/>
        <pt x="424" y="154" on="1"/>
        <pt x="377" y="94" on="0"/>
        <pt x="266" y="20" on="0"/>
        <pt x="149" y="20" on="0"/>
        <pt x="21" y="122" on="0"/>
        <pt x="21" y="183" on="1"/>
        <pt x="21" y="291" on="0"/>
        <pt x="149" y="554" on="0"/>
        <pt x="345" y="740" on="0"/>
        <pt x="432" y="740" on="1"/>
        <pt x="462" y="740" on="0"/>
        <pt x="529" y="640" on="0"/>
        <pt x="529" y="600" on="1"/>
        <pt x="529" y="582" on="0"/>
        <pt x="514" y="582" on="1"/>
        <pt x="506" y="582" on="0"/>
        <pt x="482" y="593" on="0"/>
        <pt x="454" y="593" on="1"/>
        <pt x="397" y="593" on="0"/>
        <pt x="258" y="463" on="0"/>
        <pt x="158" y="262" on="0"/>
        <pt x="158" y="172" on="1"/>
        <pt x="158" y="146" on="0"/>
        <pt x="192" y="146" on="1"/>
        <pt x="239" y="146" on="0"/>
        <pt x="376" y="230" on="0"/>
        <pt x="413" y="282" on="1"/>
        <pt x="358" y="281" on="1"/>
      </contour>
    </TTGlyph>
    <TTGlyph name="Gbreve" xMin="21" yMin="-82" xMax="684" yMax="982">
      <contour>
        <pt x="597" y="903" on="0"/>
        <pt x="635" y="939" on="0"/>
        <pt x="667" y="939" on="0"/>
        <pt x="684" y="921" on="0"/>
        <pt x="684" y="907" on="1"/>
        <pt x="684" y="861" on="0"/>
        <pt x="567" y="768" on="0"/>
        <pt x="438" y="768" on="0"/>
        <pt x="351" y="854" on="0"/>
        <pt x="351" y="941" on="0"/>
        <pt x="398" y="982" on="0"/>
        <pt x="420" y="982" on="1"/>
        <pt x="440" y="982" on="0"/>
        <pt x="454" y="924" on="1"/>
        <pt x="460" y="903" on="0"/>
        <pt x="493" y="867" on="0"/>
        <pt x="549" y="867" on="0"/>
      </contour>
      <contour>
        <pt x="330" y="280" on="0"/>
        <pt x="277" y="319" on="0"/>
        <pt x="277" y="361" on="0"/>
        <pt x="373" y="387" on="0"/>
        <pt x="485" y="387" on="0"/>
        <pt x="544" y="297" on="0"/>
        <pt x="544" y="187" on="0"/>
        <pt x="451" y="-82" on="0"/>
        <pt x="417" y="-82" on="1"/>
        <pt x="403" y="-82" on="0"/>
        <pt x="384" y="-65" on="0"/>
        <pt x="384" y="-52" on="1"/>
        <pt x="384" y="20" on="0"/>
        <pt x="424" y="154" on="1"/>
        <pt x="377" y="94" on="0"/>
        <pt x="266" y="20" on="0"/>
        <pt x="149" y="20" on="0"/>
        <pt x="21" y="122" on="0"/>
        <pt x="21" y="183" on="1"/>
        <pt x="21" y="291" on="0"/>
        <pt x="149" y="554" on="0"/>
        <pt x="345" y="740" on="0"/>
        <pt x="432" y="740" on="1"/>
        <pt x="462" y="740" on="0"/>
        <pt x="529" y="640" on="0"/>
        <pt x="529" y="600" on="1"/>
        <pt x="529" y="582" on="0"/>
        <pt x="514" y="582" on="1"/>
        <pt x="506" y="582" on="0"/>
        <pt x="482" y="593" on="0"/>
        <pt x="454" y="593" on="1"/>
        <pt x="397" y="593" on="0"/>
        <pt x="258" y="463" on="0"/>
        <pt x="158" y="262" on="0"/>
        <pt x="158" y="172" on="1"/>
        <pt x="158" y="146" on="0"/>
        <pt x="192" y="146" on="1"/>
        <pt x="239" y="146" on="0"/>
        <pt x="376" y="230" on="0"/>
        <pt x="413" y="282" on="1"/>
        <pt x="358" y="281" on="1"/>
      </contour>
    </TTGlyph>
    <TTGlyph name="H" xMin="50" yMin="13" xMax="621" yMax="745">
      <contour>
        <pt x="147" y="13" on="1"/>
        <pt x="126" y="13" on="0"/>
        <pt x="50" y="108" on="0"/>
        <pt x="50" y="159" on="0"/>
        <pt x="80" y="288" on="1"/>
        <pt x="56" y="312" on="0"/>
        <pt x="56" y="348" on="1"/>
        <pt x="56" y="368" on="0"/>
        <pt x="104" y="388" on="1"/>
        <pt x="167" y="644" on="0"/>
        <pt x="167" y="712" on="1"/>
        <pt x="167" y="745" on="0"/>
        <pt x="196" y="745" on="1"/>
        <pt x="220" y="745" on="0"/>
        <pt x="297" y="649" on="0"/>
        <pt x="297" y="607" on="1"/>
        <pt x="297" y="580" on="0"/>
        <pt x="261" y="427" on="1"/>
        <pt x="347" y="442" on="0"/>
        <pt x="432" y="445" on="1"/>
        <pt x="480" y="646" on="0"/>
        <pt x="480" y="712" on="1"/>
        <pt x="480" y="745" on="0"/>
        <pt x="509" y="745" on="1"/>
        <pt x="533" y="745" on="0"/>
        <pt x="610" y="649" on="0"/>
        <pt x="610" y="607" on="1"/>
        <pt x="610" y="585" on="0"/>
        <pt x="571" y="436" on="1"/>
        <pt x="621" y="422" on="0"/>
        <pt x="621" y="396" on="1"/>
        <pt x="621" y="365" on="0"/>
        <pt x="547" y="347" on="1"/>
        <pt x="517" y="233" on="0"/>
        <pt x="507" y="197" on="0"/>
        <pt x="489" y="121" on="0"/>
        <pt x="478" y="75" on="0"/>
        <pt x="472" y="54" on="1"/>
        <pt x="461" y="13" on="0"/>
        <pt x="451" y="13" on="1"/>
        <pt x="427" y="13" on="0"/>
        <pt x="360" y="89" on="0"/>
        <pt x="360" y="127" on="1"/>
        <pt x="360" y="149" on="0"/>
        <pt x="402" y="322" on="1"/>
        <pt x="287" y="303" on="0"/>
        <pt x="225" y="287" on="1"/>
        <pt x="194" y="168" on="0"/>
        <pt x="174" y="75" on="0"/>
        <pt x="168" y="54" on="1"/>
        <pt x="157" y="13" on="0"/>
      </contour>
    </TTGlyph>
    <TTGlyph name="I" xMin="49" yMin="13" xMax="286" yMax="745">
      <contour>
        <pt x="182" y="745" on="1"/>
        <pt x="206" y="745" on="0"/>
        <pt x="287" y="648" on="0"/>
        <pt x="286" y="607" on="1"/>
        <pt x="286" y="587" on="0"/>
        <pt x="231" y="354" on="0"/>
        <pt x="212" y="261" on="0"/>
        <pt x="198" y="188" on="0"/>
        <pt x="194" y="167" on="1"/>
        <pt x="166" y="39" on="0"/>
        <pt x="150" y="20" on="1"/>
        <pt x="144" y="13" on="0"/>
        <pt x="138" y="13" on="1"/>
        <pt x="118" y="13" on="0"/>
        <pt x="49" y="96" on="0"/>
        <pt x="50" y="133" on="0"/>
        <pt x="149" y="653" on="0"/>
        <pt x="151" y="712" on="1"/>
        <pt x="153" y="745" on="0"/>
      </contour>
    </TTGlyph>
    <TTGlyph name="Iacute" xMin="49" yMin="13" xMax="468" yMax="998">
      <contour>
        <pt x="368" y="998" on="1"/>
        <pt x="409" y="1033" on="0"/>
        <pt x="446" y="988" on="1"/>
        <pt x="469" y="959" on="0"/>
        <pt x="466" y="894" on="0"/>
        <pt x="444" y="882" on="1"/>
        <pt x="335" y="827" on="1"/>
        <pt x="328" y="823" on="0"/>
        <pt x="300" y="805" on="0"/>
        <pt x="282" y="795" on="0"/>
        <pt x="270" y="792" on="1"/>
        <pt x="247" y="784" on="0"/>
        <pt x="215" y="829" on="0"/>
        <pt x="234" y="886" on="0"/>
        <pt x="262" y="910" on="1"/>
      </contour>
      <contour>
        <pt x="182" y="745" on="1"/>
        <pt x="206" y="745" on="0"/>
        <pt x="287" y="648" on="0"/>
        <pt x="286" y="607" on="1"/>
        <pt x="286" y="587" on="0"/>
        <pt x="231" y="354" on="0"/>
        <pt x="212" y="261" on="0"/>
        <pt x="198" y="188" on="0"/>
        <pt x="194" y="167" on="1"/>
        <pt x="166" y="39" on="0"/>
        <pt x="150" y="20" on="1"/>
        <pt x="144" y="13" on="0"/>
        <pt x="138" y="13" on="1"/>
        <pt x="118" y="13" on="0"/>
        <pt x="49" y="96" on="0"/>
        <pt x="50" y="133" on="0"/>
        <pt x="149" y="653" on="0"/>
        <pt x="151" y="712" on="1"/>
        <pt x="153" y="745" on="0"/>
      </contour>
    </TTGlyph>
    <TTGlyph name="Icircumflex" xMin="49" yMin="13" xMax="434" yMax="1001">
      <contour>
        <pt x="413" y="863" on="0"/>
        <pt x="434" y="831" on="0"/>
        <pt x="434" y="804" on="0"/>
        <pt x="415" y="787" on="0"/>
        <pt x="404" y="787" on="1"/>
        <pt x="377" y="787" on="0"/>
        <pt x="296" y="844" on="0"/>
        <pt x="268" y="879" on="1"/>
        <pt x="240" y="865" on="0"/>
        <pt x="190" y="826" on="0"/>
        <pt x="160" y="806" on="0"/>
        <pt x="124" y="806" on="0"/>
        <pt x="100" y="834" on="0"/>
        <pt x="100" y="855" on="1"/>
        <pt x="100" y="903" on="0"/>
        <pt x="173" y="945" on="1"/>
        <pt x="184" y="951" on="0"/>
        <pt x="216" y="971" on="0"/>
        <pt x="236" y="983" on="0"/>
        <pt x="248" y="989" on="1"/>
        <pt x="271" y="1001" on="0"/>
        <pt x="293" y="1001" on="0"/>
        <pt x="313" y="979" on="0"/>
        <pt x="342" y="934" on="0"/>
        <pt x="362" y="913" on="0"/>
      </contour>
      <contour>
        <pt x="182" y="745" on="1"/>
        <pt x="206" y="745" on="0"/>
        <pt x="287" y="648" on="0"/>
        <pt x="286" y="607" on="1"/>
        <pt x="286" y="587" on="0"/>
        <pt x="231" y="354" on="0"/>
        <pt x="212" y="261" on="0"/>
        <pt x="198" y="188" on="0"/>
        <pt x="194" y="167" on="1"/>
        <pt x="166" y="39" on="0"/>
        <pt x="150" y="20" on="1"/>
        <pt x="144" y="13" on="0"/>
        <pt x="138" y="13" on="1"/>
        <pt x="118" y="13" on="0"/>
        <pt x="49" y="96" on="0"/>
        <pt x="50" y="133" on="0"/>
        <pt x="149" y="653" on="0"/>
        <pt x="151" y="712" on="1"/>
        <pt x="153" y="745" on="0"/>
      </contour>
    </TTGlyph>
    <TTGlyph name="Idieresis" xMin="49" yMin="13" xMax="424" yMax="961">
      <contour>
        <pt x="370" y="961" on="0"/>
        <pt x="424" y="863" on="0"/>
        <pt x="424" y="828" on="0"/>
        <pt x="393" y="799" on="0"/>
        <pt x="378" y="799" on="1"/>
        <pt x="351" y="799" on="0"/>
        <pt x="287" y="864" on="0"/>
        <pt x="287" y="911" on="0"/>
        <pt x="329" y="961" on="0"/>
      </contour>
      <contour>
        <pt x="192" y="961" on="0"/>
        <pt x="246" y="863" on="0"/>
        <pt x="246" y="828" on="0"/>
        <pt x="215" y="799" on="0"/>
        <pt x="200" y="799" on="1"/>
        <pt x="173" y="799" on="0"/>
        <pt x="109" y="864" on="0"/>
        <pt x="109" y="911" on="0"/>
        <pt x="151" y="961" on="0"/>
      </contour>
      <contour>
        <pt x="182" y="745" on="1"/>
        <pt x="206" y="745" on="0"/>
        <pt x="287" y="648" on="0"/>
        <pt x="286" y="607" on="1"/>
        <pt x="286" y="587" on="0"/>
        <pt x="231" y="354" on="0"/>
        <pt x="212" y="261" on="0"/>
        <pt x="198" y="188" on="0"/>
        <pt x="194" y="167" on="1"/>
        <pt x="166" y="39" on="0"/>
        <pt x="150" y="20" on="1"/>
        <pt x="144" y="13" on="0"/>
        <pt x="138" y="13" on="1"/>
        <pt x="118" y="13" on="0"/>
        <pt x="49" y="96" on="0"/>
        <pt x="50" y="133" on="0"/>
        <pt x="149" y="653" on="0"/>
        <pt x="151" y="712" on="1"/>
        <pt x="153" y="745" on="0"/>
      </contour>
    </TTGlyph>
    <TTGlyph name="Idotaccent" xMin="49" yMin="13" xMax="328" yMax="944">
      <contour>
        <pt x="256" y="785" on="0"/>
        <pt x="192" y="849" on="0"/>
        <pt x="192" y="896" on="0"/>
        <pt x="233" y="944" on="0"/>
        <pt x="274" y="944" on="0"/>
        <pt x="328" y="850" on="0"/>
        <pt x="328" y="814" on="0"/>
        <pt x="298" y="785" on="0"/>
        <pt x="283" y="785" on="1"/>
      </contour>
      <contour>
        <pt x="182" y="745" on="1"/>
        <pt x="206" y="745" on="0"/>
        <pt x="287" y="648" on="0"/>
        <pt x="286" y="607" on="1"/>
        <pt x="286" y="587" on="0"/>
        <pt x="231" y="354" on="0"/>
        <pt x="212" y="261" on="0"/>
        <pt x="198" y="188" on="0"/>
        <pt x="194" y="167" on="1"/>
        <pt x="166" y="39" on="0"/>
        <pt x="150" y="20" on="1"/>
        <pt x="144" y="13" on="0"/>
        <pt x="138" y="13" on="1"/>
        <pt x="118" y="13" on="0"/>
        <pt x="49" y="96" on="0"/>
        <pt x="50" y="133" on="0"/>
        <pt x="149" y="653" on="0"/>
        <pt x="151" y="712" on="1"/>
        <pt x="153" y="745" on="0"/>
      </contour>
    </TTGlyph>
    <TTGlyph name="Igrave" xMin="49" yMin="13" xMax="335" yMax="996">
      <contour>
        <pt x="323" y="791" on="0"/>
        <pt x="294" y="791" on="0"/>
        <pt x="276" y="801" on="0"/>
        <pt x="258" y="815" on="1"/>
        <pt x="240" y="828" on="0"/>
        <pt x="128" y="899" on="1"/>
        <pt x="108" y="911" on="0"/>
        <pt x="110" y="967" on="0"/>
        <pt x="135" y="992" on="1"/>
        <pt x="175" y="1035" on="0"/>
        <pt x="212" y="996" on="1"/>
        <pt x="311" y="897" on="1"/>
        <pt x="368" y="841" on="0"/>
        <pt x="335" y="804" on="1"/>
      </contour>
      <contour>
        <pt x="182" y="745" on="1"/>
        <pt x="206" y="745" on="0"/>
        <pt x="287" y="648" on="0"/>
        <pt x="286" y="607" on="1"/>
        <pt x="286" y="587" on="0"/>
        <pt x="231" y="354" on="0"/>
        <pt x="212" y="261" on="0"/>
        <pt x="198" y="188" on="0"/>
        <pt x="194" y="167" on="1"/>
        <pt x="166" y="39" on="0"/>
        <pt x="150" y="20" on="1"/>
        <pt x="144" y="13" on="0"/>
        <pt x="138" y="13" on="1"/>
        <pt x="118" y="13" on="0"/>
        <pt x="49" y="96" on="0"/>
        <pt x="50" y="133" on="0"/>
        <pt x="149" y="653" on="0"/>
        <pt x="151" y="712" on="1"/>
        <pt x="153" y="745" on="0"/>
      </contour>
    </TTGlyph>
    <TTGlyph name="Imacron" xMin="49" yMin="13" xMax="438" yMax="913">
      <contour>
        <pt x="438" y="884" on="1"/>
        <pt x="438" y="865" on="0"/>
        <pt x="375" y="847" on="0"/>
        <pt x="249" y="826" on="0"/>
        <pt x="215" y="820" on="1"/>
        <pt x="155" y="808" on="0"/>
        <pt x="117" y="809" on="0"/>
        <pt x="81" y="854" on="0"/>
        <pt x="81" y="873" on="1"/>
        <pt x="82" y="900" on="0"/>
        <pt x="225" y="915" on="0"/>
        <pt x="364" y="913" on="1"/>
        <pt x="438" y="911" on="0"/>
      </contour>
      <contour>
        <pt x="182" y="745" on="1"/>
        <pt x="206" y="745" on="0"/>
        <pt x="287" y="648" on="0"/>
        <pt x="286" y="607" on="1"/>
        <pt x="286" y="587" on="0"/>
        <pt x="231" y="354" on="0"/>
        <pt x="212" y="261" on="0"/>
        <pt x="198" y="188" on="0"/>
        <pt x="194" y="167" on="1"/>
        <pt x="166" y="39" on="0"/>
        <pt x="150" y="20" on="1"/>
        <pt x="144" y="13" on="0"/>
        <pt x="138" y="13" on="1"/>
        <pt x="118" y="13" on="0"/>
        <pt x="49" y="96" on="0"/>
        <pt x="50" y="133" on="0"/>
        <pt x="149" y="653" on="0"/>
        <pt x="151" y="712" on="1"/>
        <pt x="153" y="745" on="0"/>
      </contour>
    </TTGlyph>
    <TTGlyph name="Iogonek" xMin="-52" yMin="-169" xMax="286" yMax="745">
      <contour>
        <pt x="182" y="745" on="1"/>
        <pt x="206" y="745" on="0"/>
        <pt x="287" y="648" on="0"/>
        <pt x="286" y="607" on="1"/>
        <pt x="286" y="587" on="0"/>
        <pt x="231" y="354" on="0"/>
        <pt x="212" y="261" on="0"/>
        <pt x="192" y="160" on="0"/>
        <pt x="187" y="136" on="1"/>
        <pt x="172" y="67" on="0"/>
        <pt x="160" y="39" on="1"/>
        <pt x="154" y="15" on="0"/>
        <pt x="127" y="-5" on="1"/>
        <pt x="75" y="-44" on="0"/>
        <pt x="75" y="-60" on="1"/>
        <pt x="75" y="-70" on="0"/>
        <pt x="121" y="-70" on="0"/>
        <pt x="145" y="-64" on="0"/>
        <pt x="178" y="-83" on="0"/>
        <pt x="193" y="-120" on="0"/>
        <pt x="176" y="-138" on="1"/>
        <pt x="147" y="-169" on="0"/>
        <pt x="36" y="-169" on="1"/>
        <pt x="1" y="-169" on="0"/>
        <pt x="-52" y="-131" on="0"/>
        <pt x="-52" y="-107" on="1"/>
        <pt x="-52" y="-65" on="0"/>
        <pt x="22" y="38" on="0"/>
        <pt x="68" y="76" on="1"/>
        <pt x="50" y="102" on="0"/>
        <pt x="50" y="133" on="0"/>
        <pt x="149" y="653" on="0"/>
        <pt x="151" y="712" on="1"/>
        <pt x="153" y="745" on="0"/>
      </contour>
    </TTGlyph>
    <TTGlyph name="J" xMin="13" yMin="13" xMax="514" yMax="740">
      <contour>
        <pt x="13" y="233" on="0"/>
        <pt x="24" y="255" on="0"/>
        <pt x="53" y="255" on="0"/>
        <pt x="101" y="199" on="0"/>
        <pt x="162" y="143" on="0"/>
        <pt x="192" y="143" on="1"/>
        <pt x="215" y="143" on="0"/>
        <pt x="261" y="271" on="0"/>
        <pt x="313" y="472" on="0"/>
        <pt x="320" y="506" on="1"/>
        <pt x="336" y="585" on="0"/>
        <pt x="343" y="602" on="1"/>
        <pt x="316" y="596" on="0"/>
        <pt x="191" y="579" on="0"/>
        <pt x="149" y="579" on="0"/>
        <pt x="123" y="605" on="0"/>
        <pt x="123" y="623" on="1"/>
        <pt x="123" y="659" on="0"/>
        <pt x="276" y="717" on="0"/>
        <pt x="429" y="740" on="0"/>
        <pt x="458" y="740" on="1"/>
        <pt x="514" y="740" on="0"/>
        <pt x="514" y="704" on="1"/>
        <pt x="514" y="689" on="0"/>
        <pt x="452" y="501" on="0"/>
        <pt x="444" y="469" on="1"/>
        <pt x="380" y="215" on="0"/>
        <pt x="358" y="154" on="1"/>
        <pt x="319" y="46" on="0"/>
        <pt x="262" y="22" on="1"/>
        <pt x="241" y="13" on="0"/>
        <pt x="213" y="13" on="1"/>
        <pt x="142" y="13" on="0"/>
        <pt x="13" y="150" on="0"/>
        <pt x="13" y="206" on="1"/>
      </contour>
    </TTGlyph>
    <TTGlyph name="K" xMin="29" yMin="13" xMax="574" yMax="745">
      <contour>
        <pt x="119" y="13" on="1"/>
        <pt x="117" y="13" on="1"/>
        <pt x="95" y="13" on="0"/>
        <pt x="29" y="94" on="0"/>
        <pt x="29" y="155" on="0"/>
        <pt x="146" y="641" on="0"/>
        <pt x="146" y="705" on="1"/>
        <pt x="146" y="745" on="0"/>
        <pt x="175" y="745" on="1"/>
        <pt x="199" y="745" on="0"/>
        <pt x="267" y="650" on="0"/>
        <pt x="267" y="607" on="1"/>
        <pt x="267" y="581" on="0"/>
        <pt x="241" y="474" on="1"/>
        <pt x="323" y="583" on="0"/>
        <pt x="467" y="730" on="0"/>
        <pt x="520" y="730" on="0"/>
        <pt x="574" y="685" on="0"/>
        <pt x="574" y="652" on="0"/>
        <pt x="472" y="556" on="0"/>
        <pt x="322" y="408" on="0"/>
        <pt x="281" y="344" on="1"/>
        <pt x="281" y="267" on="0"/>
        <pt x="370" y="189" on="1"/>
        <pt x="397" y="166" on="0"/>
        <pt x="487" y="117" on="0"/>
        <pt x="538" y="82" on="0"/>
        <pt x="538" y="64" on="1"/>
        <pt x="538" y="13" on="0"/>
        <pt x="394" y="13" on="0"/>
        <pt x="228" y="130" on="0"/>
        <pt x="187" y="227" on="1"/>
        <pt x="161" y="153" on="0"/>
        <pt x="149" y="86" on="0"/>
        <pt x="144" y="64" on="0"/>
        <pt x="140" y="51" on="0"/>
        <pt x="136" y="35" on="0"/>
        <pt x="132" y="26" on="0"/>
        <pt x="130" y="22" on="1"/>
        <pt x="124" y="13" on="0"/>
      </contour>
    </TTGlyph>
    <TTGlyph name="L" xMin="41" yMin="14" xMax="488" yMax="760">
      <contour>
        <pt x="315" y="659" on="1"/>
        <pt x="315" y="591" on="0"/>
        <pt x="286" y="494" on="1"/>
        <pt x="277" y="466" on="0"/>
        <pt x="269" y="438" on="0"/>
        <pt x="247" y="375" on="0"/>
        <pt x="241" y="356" on="0"/>
        <pt x="229" y="323" on="1"/>
        <pt x="182" y="194" on="0"/>
        <pt x="182" y="152" on="1"/>
        <pt x="182" y="147" on="0"/>
        <pt x="186" y="145" on="0"/>
        <pt x="256" y="145" on="0"/>
        <pt x="379" y="166" on="0"/>
        <pt x="456" y="186" on="0"/>
        <pt x="463" y="186" on="1"/>
        <pt x="488" y="186" on="0"/>
        <pt x="488" y="154" on="1"/>
        <pt x="488" y="91" on="0"/>
        <pt x="297" y="14" on="0"/>
        <pt x="171" y="14" on="1"/>
        <pt x="122" y="14" on="0"/>
        <pt x="41" y="87" on="0"/>
        <pt x="41" y="175" on="0"/>
        <pt x="189" y="656" on="0"/>
        <pt x="189" y="727" on="1"/>
        <pt x="189" y="760" on="0"/>
        <pt x="218" y="760" on="1"/>
        <pt x="243" y="760" on="0"/>
        <pt x="315" y="694" on="0"/>
      </contour>
    </TTGlyph>
    <TTGlyph name="Lacute" xMin="41" yMin="14" xMax="572" yMax="998">
      <contour>
        <pt x="315" y="659" on="1"/>
        <pt x="315" y="591" on="0"/>
        <pt x="286" y="494" on="1"/>
        <pt x="277" y="466" on="0"/>
        <pt x="269" y="438" on="0"/>
        <pt x="247" y="375" on="0"/>
        <pt x="241" y="356" on="0"/>
        <pt x="229" y="323" on="1"/>
        <pt x="182" y="194" on="0"/>
        <pt x="182" y="152" on="1"/>
        <pt x="182" y="147" on="0"/>
        <pt x="186" y="145" on="0"/>
        <pt x="256" y="145" on="0"/>
        <pt x="379" y="166" on="0"/>
        <pt x="456" y="186" on="0"/>
        <pt x="463" y="186" on="1"/>
        <pt x="488" y="186" on="0"/>
        <pt x="488" y="154" on="1"/>
        <pt x="488" y="91" on="0"/>
        <pt x="297" y="14" on="0"/>
        <pt x="171" y="14" on="1"/>
        <pt x="122" y="14" on="0"/>
        <pt x="41" y="87" on="0"/>
        <pt x="41" y="175" on="0"/>
        <pt x="189" y="656" on="0"/>
        <pt x="189" y="727" on="1"/>
        <pt x="189" y="760" on="0"/>
        <pt x="218" y="760" on="1"/>
        <pt x="243" y="760" on="0"/>
        <pt x="315" y="694" on="0"/>
      </contour>
      <contour>
        <pt x="472" y="998" on="1"/>
        <pt x="513" y="1033" on="0"/>
        <pt x="550" y="988" on="1"/>
        <pt x="573" y="959" on="0"/>
        <pt x="570" y="894" on="0"/>
        <pt x="548" y="882" on="1"/>
        <pt x="439" y="827" on="1"/>
        <pt x="432" y="823" on="0"/>
        <pt x="404" y="805" on="0"/>
        <pt x="386" y="795" on="0"/>
        <pt x="374" y="792" on="1"/>
        <pt x="351" y="784" on="0"/>
        <pt x="319" y="829" on="0"/>
        <pt x="338" y="886" on="0"/>
        <pt x="366" y="910" on="1"/>
      </contour>
    </TTGlyph>
    <TTGlyph name="Lcaron" xMin="41" yMin="14" xMax="546" yMax="760">
      <contour>
        <pt x="315" y="659" on="1"/>
        <pt x="315" y="591" on="0"/>
        <pt x="286" y="494" on="1"/>
        <pt x="277" y="466" on="0"/>
        <pt x="269" y="438" on="0"/>
        <pt x="247" y="375" on="0"/>
        <pt x="241" y="356" on="0"/>
        <pt x="229" y="323" on="1"/>
        <pt x="182" y="194" on="0"/>
        <pt x="182" y="152" on="1"/>
        <pt x="182" y="147" on="0"/>
        <pt x="186" y="145" on="0"/>
        <pt x="256" y="145" on="0"/>
        <pt x="379" y="166" on="0"/>
        <pt x="456" y="186" on="0"/>
        <pt x="463" y="186" on="1"/>
        <pt x="488" y="186" on="0"/>
        <pt x="488" y="154" on="1"/>
        <pt x="488" y="91" on="0"/>
        <pt x="297" y="14" on="0"/>
        <pt x="171" y="14" on="1"/>
        <pt x="122" y="14" on="0"/>
        <pt x="41" y="87" on="0"/>
        <pt x="41" y="175" on="0"/>
        <pt x="189" y="656" on="0"/>
        <pt x="189" y="727" on="1"/>
        <pt x="189" y="760" on="0"/>
        <pt x="218" y="760" on="1"/>
        <pt x="243" y="760" on="0"/>
        <pt x="315" y="694" on="0"/>
      </contour>
      <contour>
        <pt x="408" y="642" on="0"/>
        <pt x="372" y="671" on="0"/>
        <pt x="372" y="711" on="0"/>
        <pt x="427" y="756" on="0"/>
        <pt x="448" y="756" on="1"/>
        <pt x="487" y="756" on="0"/>
        <pt x="546" y="699" on="0"/>
        <pt x="546" y="669" on="1"/>
        <pt x="546" y="617" on="0"/>
        <pt x="437" y="513" on="0"/>
        <pt x="379" y="513" on="1"/>
        <pt x="344" y="513" on="0"/>
        <pt x="344" y="544" on="1"/>
        <pt x="344" y="564" on="0"/>
        <pt x="422" y="626" on="0"/>
        <pt x="435" y="646" on="1"/>
      </contour>
    </TTGlyph>
    <TTGlyph name="Lslash" xMin="0" yMin="14" xMax="488" yMax="760">
      <contour>
        <pt x="182" y="152" on="1"/>
        <pt x="182" y="147" on="0"/>
        <pt x="186" y="145" on="0"/>
        <pt x="256" y="145" on="0"/>
        <pt x="379" y="166" on="0"/>
        <pt x="456" y="186" on="0"/>
        <pt x="463" y="186" on="1"/>
        <pt x="488" y="186" on="0"/>
        <pt x="488" y="154" on="1"/>
        <pt x="488" y="91" on="0"/>
        <pt x="297" y="14" on="0"/>
        <pt x="171" y="14" on="1"/>
        <pt x="122" y="14" on="0"/>
        <pt x="41" y="87" on="0"/>
        <pt x="41" y="173" on="0"/>
        <pt x="92" y="341" on="1"/>
        <pt x="86" y="340" on="0"/>
        <pt x="45" y="333" on="0"/>
        <pt x="2" y="373" on="0"/>
        <pt x="0" y="391" on="1"/>
        <pt x="-4" y="420" on="0"/>
        <pt x="125" y="448" on="1"/>
        <pt x="189" y="661" on="0"/>
        <pt x="189" y="727" on="1"/>
        <pt x="189" y="760" on="0"/>
        <pt x="218" y="760" on="1"/>
        <pt x="243" y="760" on="0"/>
        <pt x="315" y="694" on="0"/>
        <pt x="315" y="659" on="1"/>
        <pt x="315" y="590" on="0"/>
        <pt x="280" y="474" on="1"/>
        <pt x="322" y="480" on="1"/>
        <pt x="396" y="489" on="0"/>
        <pt x="400" y="462" on="1"/>
        <pt x="403" y="442" on="0"/>
        <pt x="336" y="408" on="0"/>
        <pt x="250" y="382" on="1"/>
        <pt x="222" y="302" on="0"/>
        <pt x="216" y="287" on="1"/>
        <pt x="182" y="190" on="0"/>
      </contour>
    </TTGlyph>
    <TTGlyph name="M" xMin="33" yMin="13" xMax="756" yMax="745">
      <contour>
        <pt x="656" y="718" on="0"/>
        <pt x="704" y="718" on="0"/>
        <pt x="756" y="664" on="0"/>
        <pt x="756" y="610" on="0"/>
        <pt x="740" y="525" on="0"/>
        <pt x="721" y="452" on="0"/>
        <pt x="686" y="326" on="0"/>
        <pt x="667" y="253" on="0"/>
        <pt x="647" y="170" on="0"/>
        <pt x="636" y="123" on="0"/>
        <pt x="623" y="72" on="0"/>
        <pt x="613" y="45" on="0"/>
        <pt x="607" y="34" on="1"/>
        <pt x="596" y="13" on="0"/>
        <pt x="556" y="13" on="0"/>
        <pt x="517" y="92" on="0"/>
        <pt x="517" y="135" on="1"/>
        <pt x="517" y="241" on="0"/>
        <pt x="578" y="416" on="1"/>
        <pt x="561" y="394" on="0"/>
        <pt x="497" y="309" on="0"/>
        <pt x="466" y="270" on="0"/>
        <pt x="443" y="244" on="1"/>
        <pt x="402" y="199" on="0"/>
        <pt x="363" y="199" on="1"/>
        <pt x="311" y="199" on="0"/>
        <pt x="289" y="240" on="1"/>
        <pt x="278" y="261" on="0"/>
        <pt x="241" y="408" on="0"/>
        <pt x="233" y="436" on="1"/>
        <pt x="218" y="316" on="0"/>
        <pt x="147" y="60" on="0"/>
        <pt x="123" y="13" on="0"/>
        <pt x="114" y="13" on="1"/>
        <pt x="96" y="13" on="0"/>
        <pt x="33" y="108" on="0"/>
        <pt x="33" y="162" on="0"/>
        <pt x="150" y="648" on="0"/>
        <pt x="150" y="712" on="1"/>
        <pt x="150" y="745" on="0"/>
        <pt x="179" y="745" on="1"/>
        <pt x="198" y="745" on="0"/>
        <pt x="310" y="663" on="0"/>
        <pt x="309" y="644" on="1"/>
        <pt x="307" y="615" on="0"/>
        <pt x="355" y="450" on="0"/>
        <pt x="385" y="384" on="1"/>
        <pt x="415" y="419" on="0"/>
        <pt x="558" y="608" on="0"/>
      </contour>
    </TTGlyph>
    <TTGlyph name="N" xMin="32" yMin="13" xMax="624" yMax="750">
      <contour>
        <pt x="436" y="13" on="1"/>
        <pt x="421" y="13" on="0"/>
        <pt x="373" y="46" on="0"/>
        <pt x="357" y="91" on="0"/>
        <pt x="334" y="162" on="1"/>
        <pt x="281" y="325" on="0"/>
        <pt x="234" y="432" on="1"/>
        <pt x="161" y="104" on="0"/>
        <pt x="129" y="13" on="0"/>
        <pt x="116" y="13" on="1"/>
        <pt x="96" y="13" on="0"/>
        <pt x="32" y="86" on="0"/>
        <pt x="32" y="139" on="0"/>
        <pt x="147" y="643" on="0"/>
        <pt x="152" y="707" on="1"/>
        <pt x="155" y="745" on="0"/>
        <pt x="175" y="745" on="1"/>
        <pt x="192" y="745" on="0"/>
        <pt x="245" y="705" on="0"/>
        <pt x="284" y="648" on="0"/>
        <pt x="386" y="334" on="0"/>
        <pt x="416" y="266" on="1"/>
        <pt x="455" y="382" on="0"/>
        <pt x="488" y="616" on="1"/>
        <pt x="501" y="709" on="0"/>
        <pt x="509" y="750" on="0"/>
        <pt x="524" y="750" on="1"/>
        <pt x="553" y="750" on="0"/>
        <pt x="624" y="690" on="0"/>
        <pt x="624" y="671" on="1"/>
        <pt x="623" y="608" on="0"/>
        <pt x="565" y="297" on="0"/>
        <pt x="473" y="13" on="0"/>
      </contour>
    </TTGlyph>
    <TTGlyph name="Nacute" xMin="32" yMin="13" xMax="624" yMax="998">
      <contour>
        <pt x="436" y="13" on="1"/>
        <pt x="421" y="13" on="0"/>
        <pt x="373" y="46" on="0"/>
        <pt x="357" y="91" on="0"/>
        <pt x="334" y="162" on="1"/>
        <pt x="281" y="325" on="0"/>
        <pt x="234" y="432" on="1"/>
        <pt x="161" y="104" on="0"/>
        <pt x="129" y="13" on="0"/>
        <pt x="116" y="13" on="1"/>
        <pt x="96" y="13" on="0"/>
        <pt x="32" y="86" on="0"/>
        <pt x="32" y="139" on="0"/>
        <pt x="147" y="643" on="0"/>
        <pt x="152" y="707" on="1"/>
        <pt x="155" y="745" on="0"/>
        <pt x="175" y="745" on="1"/>
        <pt x="192" y="745" on="0"/>
        <pt x="245" y="705" on="0"/>
        <pt x="284" y="648" on="0"/>
        <pt x="386" y="334" on="0"/>
        <pt x="416" y="266" on="1"/>
        <pt x="455" y="382" on="0"/>
        <pt x="488" y="616" on="1"/>
        <pt x="501" y="709" on="0"/>
        <pt x="509" y="750" on="0"/>
        <pt x="524" y="750" on="1"/>
        <pt x="553" y="750" on="0"/>
        <pt x="624" y="690" on="0"/>
        <pt x="624" y="671" on="1"/>
        <pt x="623" y="608" on="0"/>
        <pt x="565" y="297" on="0"/>
        <pt x="473" y="13" on="0"/>
      </contour>
      <contour>
        <pt x="515" y="998" on="1"/>
        <pt x="556" y="1033" on="0"/>
        <pt x="593" y="988" on="1"/>
        <pt x="616" y="959" on="0"/>
        <pt x="613" y="894" on="0"/>
        <pt x="591" y="882" on="1"/>
        <pt x="482" y="827" on="1"/>
        <pt x="475" y="823" on="0"/>
        <pt x="447" y="805" on="0"/>
        <pt x="429" y="795" on="0"/>
        <pt x="418" y="792" on="1"/>
        <pt x="394" y="784" on="0"/>
        <pt x="362" y="829" on="0"/>
        <pt x="381" y="886" on="0"/>
        <pt x="409" y="910" on="1"/>
      </contour>
    </TTGlyph>
    <TTGlyph name="Ncaron" xMin="32" yMin="13" xMax="624" yMax="998">
      <contour>
        <pt x="436" y="13" on="1"/>
        <pt x="421" y="13" on="0"/>
        <pt x="373" y="46" on="0"/>
        <pt x="357" y="91" on="0"/>
        <pt x="334" y="162" on="1"/>
        <pt x="281" y="325" on="0"/>
        <pt x="234" y="432" on="1"/>
        <pt x="161" y="104" on="0"/>
        <pt x="129" y="13" on="0"/>
        <pt x="116" y="13" on="1"/>
        <pt x="96" y="13" on="0"/>
        <pt x="32" y="86" on="0"/>
        <pt x="32" y="139" on="0"/>
        <pt x="147" y="643" on="0"/>
        <pt x="152" y="707" on="1"/>
        <pt x="155" y="745" on="0"/>
        <pt x="175" y="745" on="1"/>
        <pt x="192" y="745" on="0"/>
        <pt x="245" y="705" on="0"/>
        <pt x="284" y="648" on="0"/>
        <pt x="386" y="334" on="0"/>
        <pt x="416" y="266" on="1"/>
        <pt x="455" y="382" on="0"/>
        <pt x="488" y="616" on="1"/>
        <pt x="501" y="709" on="0"/>
        <pt x="509" y="750" on="0"/>
        <pt x="524" y="750" on="1"/>
        <pt x="553" y="750" on="0"/>
        <pt x="624" y="690" on="0"/>
        <pt x="624" y="671" on="1"/>
        <pt x="623" y="608" on="0"/>
        <pt x="565" y="297" on="0"/>
        <pt x="473" y="13" on="0"/>
      </contour>
      <contour>
        <pt x="539" y="964" on="1"/>
        <pt x="576" y="964" on="0"/>
        <pt x="576" y="929" on="1"/>
        <pt x="576" y="912" on="0"/>
        <pt x="544" y="884" on="0"/>
        <pt x="525" y="870" on="0"/>
        <pt x="492" y="847" on="0"/>
        <pt x="472" y="832" on="0"/>
        <pt x="442" y="807" on="0"/>
        <pt x="434" y="800" on="1"/>
        <pt x="412" y="782" on="0"/>
        <pt x="396" y="782" on="1"/>
        <pt x="373" y="782" on="0"/>
        <pt x="246" y="907" on="0"/>
        <pt x="246" y="944" on="1"/>
        <pt x="246" y="967" on="0"/>
        <pt x="271" y="998" on="0"/>
        <pt x="311" y="998" on="0"/>
        <pt x="341" y="975" on="0"/>
        <pt x="387" y="922" on="0"/>
        <pt x="409" y="904" on="1"/>
        <pt x="492" y="964" on="0"/>
      </contour>
    </TTGlyph>
    <TTGlyph name="Ntilde" xMin="32" yMin="13" xMax="624" yMax="985">
      <contour>
        <pt x="215" y="891" on="0"/>
        <pt x="300" y="985" on="0"/>
        <pt x="386" y="985" on="0"/>
        <pt x="436" y="947" on="0"/>
        <pt x="469" y="898" on="0"/>
        <pt x="479" y="893" on="1"/>
        <pt x="488" y="898" on="0"/>
        <pt x="500" y="920" on="1"/>
        <pt x="530" y="974" on="0"/>
        <pt x="567" y="974" on="1"/>
        <pt x="586" y="974" on="0"/>
        <pt x="608" y="949" on="0"/>
        <pt x="607" y="926" on="1"/>
        <pt x="605" y="878" on="0"/>
        <pt x="528" y="783" on="0"/>
        <pt x="459" y="783" on="0"/>
        <pt x="390" y="841" on="0"/>
        <pt x="365" y="888" on="1"/>
        <pt x="347" y="879" on="0"/>
        <pt x="320" y="831" on="0"/>
        <pt x="290" y="794" on="0"/>
        <pt x="243" y="794" on="0"/>
        <pt x="212" y="819" on="0"/>
        <pt x="213" y="842" on="1"/>
      </contour>
      <contour>
        <pt x="436" y="13" on="1"/>
        <pt x="421" y="13" on="0"/>
        <pt x="373" y="46" on="0"/>
        <pt x="357" y="91" on="0"/>
        <pt x="334" y="162" on="1"/>
        <pt x="281" y="325" on="0"/>
        <pt x="234" y="432" on="1"/>
        <pt x="161" y="104" on="0"/>
        <pt x="129" y="13" on="0"/>
        <pt x="116" y="13" on="1"/>
        <pt x="96" y="13" on="0"/>
        <pt x="32" y="86" on="0"/>
        <pt x="32" y="139" on="0"/>
        <pt x="147" y="643" on="0"/>
        <pt x="152" y="707" on="1"/>
        <pt x="155" y="745" on="0"/>
        <pt x="175" y="745" on="1"/>
        <pt x="192" y="745" on="0"/>
        <pt x="245" y="705" on="0"/>
        <pt x="284" y="648" on="0"/>
        <pt x="386" y="334" on="0"/>
        <pt x="416" y="266" on="1"/>
        <pt x="455" y="382" on="0"/>
        <pt x="488" y="616" on="1"/>
        <pt x="501" y="709" on="0"/>
        <pt x="509" y="750" on="0"/>
        <pt x="524" y="750" on="1"/>
        <pt x="553" y="750" on="0"/>
        <pt x="624" y="690" on="0"/>
        <pt x="624" y="671" on="1"/>
        <pt x="623" y="608" on="0"/>
        <pt x="565" y="297" on="0"/>
        <pt x="473" y="13" on="0"/>
      </contour>
    </TTGlyph>
    <TTGlyph name="O" xMin="32" yMin="13" xMax="607" yMax="747">
      <contour>
        <pt x="465" y="538" on="0"/>
        <pt x="429" y="616" on="0"/>
        <pt x="365" y="616" on="0"/>
        <pt x="262" y="501" on="0"/>
        <pt x="179" y="315" on="0"/>
        <pt x="179" y="230" on="1"/>
        <pt x="179" y="187" on="0"/>
        <pt x="203" y="134" on="0"/>
        <pt x="221" y="134" on="1"/>
        <pt x="263" y="134" on="0"/>
        <pt x="379" y="237" on="0"/>
        <pt x="465" y="394" on="0"/>
      </contour>
      <contour>
        <pt x="32" y="230" on="1"/>
        <pt x="32" y="322" on="0"/>
        <pt x="102" y="515" on="0"/>
        <pt x="207" y="656" on="0"/>
        <pt x="333" y="747" on="0"/>
        <pt x="386" y="747" on="1"/>
        <pt x="483" y="747" on="0"/>
        <pt x="607" y="582" on="0"/>
        <pt x="607" y="376" on="0"/>
        <pt x="503" y="165" on="0"/>
        <pt x="320" y="13" on="0"/>
        <pt x="222" y="13" on="1"/>
        <pt x="148" y="13" on="0"/>
        <pt x="32" y="158" on="0"/>
      </contour>
    </TTGlyph>
    <TTGlyph name="OE" xMin="32" yMin="12" xMax="990" yMax="720">
      <contour>
        <pt x="661" y="416" on="0"/>
        <pt x="802" y="427" on="0"/>
        <pt x="833" y="427" on="0"/>
        <pt x="853" y="415" on="0"/>
        <pt x="853" y="406" on="1"/>
        <pt x="853" y="363" on="0"/>
        <pt x="659" y="310" on="0"/>
        <pt x="558" y="308" on="1"/>
        <pt x="523" y="199" on="0"/>
        <pt x="523" y="153" on="1"/>
        <pt x="523" y="139" on="0"/>
        <pt x="542" y="139" on="1"/>
        <pt x="660" y="139" on="0"/>
        <pt x="804" y="166" on="1"/>
        <pt x="852" y="175" on="0"/>
        <pt x="862" y="175" on="1"/>
        <pt x="880" y="175" on="0"/>
        <pt x="880" y="153" on="1"/>
        <pt x="880" y="115" on="0"/>
        <pt x="761" y="49" on="0"/>
        <pt x="588" y="13" on="0"/>
        <pt x="503" y="13" on="1"/>
        <pt x="468" y="13" on="0"/>
        <pt x="405" y="46" on="0"/>
        <pt x="387" y="72" on="1"/>
        <pt x="304" y="12" on="0"/>
        <pt x="213" y="12" on="1"/>
        <pt x="142" y="12" on="0"/>
        <pt x="32" y="149" on="0"/>
        <pt x="32" y="218" on="1"/>
        <pt x="32" y="338" on="0"/>
        <pt x="141" y="575" on="0"/>
        <pt x="301" y="720" on="0"/>
        <pt x="441" y="720" on="0"/>
        <pt x="495" y="674" on="1"/>
        <pt x="513" y="695" on="0"/>
        <pt x="624" y="707" on="0"/>
        <pt x="734" y="707" on="1"/>
        <pt x="990" y="707" on="0"/>
        <pt x="990" y="661" on="1"/>
        <pt x="990" y="638" on="0"/>
        <pt x="920" y="617" on="0"/>
        <pt x="760" y="603" on="0"/>
        <pt x="700" y="593" on="0"/>
        <pt x="615" y="572" on="0"/>
        <pt x="613" y="572" on="1"/>
        <pt x="610" y="498" on="0"/>
        <pt x="590" y="417" on="1"/>
        <pt x="598" y="417" on="1"/>
      </contour>
      <contour>
        <pt x="220" y="138" on="1"/>
        <pt x="264" y="138" on="0"/>
        <pt x="371" y="242" on="0"/>
        <pt x="443" y="384" on="0"/>
        <pt x="443" y="437" on="1"/>
        <pt x="443" y="583" on="0"/>
        <pt x="378" y="583" on="1"/>
        <pt x="347" y="583" on="0"/>
        <pt x="253" y="478" on="0"/>
        <pt x="178" y="308" on="0"/>
        <pt x="178" y="138" on="0"/>
      </contour>
    </TTGlyph>
    <TTGlyph name="Oacute" xMin="32" yMin="13" xMax="688" yMax="998">
      <contour>
        <pt x="465" y="538" on="0"/>
        <pt x="429" y="616" on="0"/>
        <pt x="365" y="616" on="0"/>
        <pt x="262" y="501" on="0"/>
        <pt x="179" y="315" on="0"/>
        <pt x="179" y="230" on="1"/>
        <pt x="179" y="187" on="0"/>
        <pt x="203" y="134" on="0"/>
        <pt x="221" y="134" on="1"/>
        <pt x="263" y="134" on="0"/>
        <pt x="379" y="237" on="0"/>
        <pt x="465" y="394" on="0"/>
      </contour>
      <contour>
        <pt x="32" y="230" on="1"/>
        <pt x="32" y="322" on="0"/>
        <pt x="102" y="515" on="0"/>
        <pt x="207" y="656" on="0"/>
        <pt x="333" y="747" on="0"/>
        <pt x="386" y="747" on="1"/>
        <pt x="483" y="747" on="0"/>
        <pt x="607" y="582" on="0"/>
        <pt x="607" y="376" on="0"/>
        <pt x="503" y="165" on="0"/>
        <pt x="320" y="13" on="0"/>
        <pt x="222" y="13" on="1"/>
        <pt x="148" y="13" on="0"/>
        <pt x="32" y="158" on="0"/>
      </contour>
      <contour>
        <pt x="588" y="998" on="1"/>
        <pt x="629" y="1033" on="0"/>
        <pt x="666" y="988" on="1"/>
        <pt x="689" y="959" on="0"/>
        <pt x="686" y="894" on="0"/>
        <pt x="664" y="882" on="1"/>
        <pt x="555" y="827" on="1"/>
        <pt x="548" y="823" on="0"/>
        <pt x="520" y="805" on="0"/>
        <pt x="502" y="795" on="0"/>
        <pt x="490" y="792" on="1"/>
        <pt x="467" y="784" on="0"/>
        <pt x="435" y="829" on="0"/>
        <pt x="454" y="886" on="0"/>
        <pt x="482" y="910" on="1"/>
      </contour>
    </TTGlyph>
    <TTGlyph name="Ocircumflex" xMin="32" yMin="13" xMax="654" yMax="1001">
      <contour>
        <pt x="465" y="538" on="0"/>
        <pt x="429" y="616" on="0"/>
        <pt x="365" y="616" on="0"/>
        <pt x="262" y="501" on="0"/>
        <pt x="179" y="315" on="0"/>
        <pt x="179" y="230" on="1"/>
        <pt x="179" y="187" on="0"/>
        <pt x="203" y="134" on="0"/>
        <pt x="221" y="134" on="1"/>
        <pt x="263" y="134" on="0"/>
        <pt x="379" y="237" on="0"/>
        <pt x="465" y="394" on="0"/>
      </contour>
      <contour>
        <pt x="32" y="230" on="1"/>
        <pt x="32" y="322" on="0"/>
        <pt x="102" y="515" on="0"/>
        <pt x="207" y="656" on="0"/>
        <pt x="333" y="747" on="0"/>
        <pt x="386" y="747" on="1"/>
        <pt x="483" y="747" on="0"/>
        <pt x="607" y="582" on="0"/>
        <pt x="607" y="376" on="0"/>
        <pt x="503" y="165" on="0"/>
        <pt x="320" y="13" on="0"/>
        <pt x="222" y="13" on="1"/>
        <pt x="148" y="13" on="0"/>
        <pt x="32" y="158" on="0"/>
      </contour>
      <contour>
        <pt x="633" y="863" on="0"/>
        <pt x="654" y="831" on="0"/>
        <pt x="654" y="804" on="0"/>
        <pt x="635" y="787" on="0"/>
        <pt x="624" y="787" on="1"/>
        <pt x="597" y="787" on="0"/>
        <pt x="516" y="844" on="0"/>
        <pt x="488" y="879" on="1"/>
        <pt x="460" y="865" on="0"/>
        <pt x="410" y="826" on="0"/>
        <pt x="380" y="806" on="0"/>
        <pt x="344" y="806" on="0"/>
        <pt x="320" y="834" on="0"/>
        <pt x="320" y="855" on="1"/>
        <pt x="320" y="903" on="0"/>
        <pt x="393" y="945" on="1"/>
        <pt x="404" y="951" on="0"/>
        <pt x="436" y="971" on="0"/>
        <pt x="456" y="983" on="0"/>
        <pt x="468" y="989" on="1"/>
        <pt x="490" y="1001" on="0"/>
        <pt x="513" y="1001" on="0"/>
        <pt x="533" y="979" on="0"/>
        <pt x="562" y="934" on="0"/>
        <pt x="582" y="913" on="0"/>
      </contour>
    </TTGlyph>
    <TTGlyph name="Odieresis" xMin="32" yMin="13" xMax="644" yMax="961">
      <contour>
        <pt x="465" y="538" on="0"/>
        <pt x="429" y="616" on="0"/>
        <pt x="365" y="616" on="0"/>
        <pt x="262" y="501" on="0"/>
        <pt x="179" y="315" on="0"/>
        <pt x="179" y="230" on="1"/>
        <pt x="179" y="187" on="0"/>
        <pt x="203" y="134" on="0"/>
        <pt x="221" y="134" on="1"/>
        <pt x="263" y="134" on="0"/>
        <pt x="379" y="237" on="0"/>
        <pt x="465" y="394" on="0"/>
      </contour>
      <contour>
        <pt x="32" y="230" on="1"/>
        <pt x="32" y="322" on="0"/>
        <pt x="102" y="515" on="0"/>
        <pt x="207" y="656" on="0"/>
        <pt x="333" y="747" on="0"/>
        <pt x="386" y="747" on="1"/>
        <pt x="483" y="747" on="0"/>
        <pt x="607" y="582" on="0"/>
        <pt x="607" y="376" on="0"/>
        <pt x="503" y="165" on="0"/>
        <pt x="320" y="13" on="0"/>
        <pt x="222" y="13" on="1"/>
        <pt x="148" y="13" on="0"/>
        <pt x="32" y="158" on="0"/>
      </contour>
      <contour>
        <pt x="590" y="961" on="0"/>
        <pt x="644" y="863" on="0"/>
        <pt x="644" y="828" on="0"/>
        <pt x="613" y="799" on="0"/>
        <pt x="598" y="799" on="1"/>
        <pt x="571" y="799" on="0"/>
        <pt x="507" y="864" on="0"/>
        <pt x="507" y="911" on="0"/>
        <pt x="549" y="961" on="0"/>
      </contour>
      <contour>
        <pt x="412" y="961" on="0"/>
        <pt x="466" y="863" on="0"/>
        <pt x="466" y="828" on="0"/>
        <pt x="435" y="799" on="0"/>
        <pt x="420" y="799" on="1"/>
        <pt x="393" y="799" on="0"/>
        <pt x="329" y="864" on="0"/>
        <pt x="329" y="911" on="0"/>
        <pt x="371" y="961" on="0"/>
      </contour>
    </TTGlyph>
    <TTGlyph name="Ograve" xMin="32" yMin="13" xMax="607" yMax="996">
      <contour>
        <pt x="543" y="791" on="0"/>
        <pt x="514" y="791" on="0"/>
        <pt x="496" y="801" on="0"/>
        <pt x="478" y="815" on="1"/>
        <pt x="460" y="828" on="0"/>
        <pt x="348" y="899" on="1"/>
        <pt x="328" y="911" on="0"/>
        <pt x="330" y="967" on="0"/>
        <pt x="355" y="992" on="1"/>
        <pt x="395" y="1035" on="0"/>
        <pt x="432" y="996" on="1"/>
        <pt x="531" y="897" on="1"/>
        <pt x="588" y="841" on="0"/>
        <pt x="555" y="804" on="1"/>
      </contour>
      <contour>
        <pt x="465" y="538" on="0"/>
        <pt x="429" y="616" on="0"/>
        <pt x="365" y="616" on="0"/>
        <pt x="262" y="501" on="0"/>
        <pt x="179" y="315" on="0"/>
        <pt x="179" y="230" on="1"/>
        <pt x="179" y="187" on="0"/>
        <pt x="203" y="134" on="0"/>
        <pt x="221" y="134" on="1"/>
        <pt x="263" y="134" on="0"/>
        <pt x="379" y="237" on="0"/>
        <pt x="465" y="394" on="0"/>
      </contour>
      <contour>
        <pt x="32" y="230" on="1"/>
        <pt x="32" y="322" on="0"/>
        <pt x="102" y="515" on="0"/>
        <pt x="207" y="656" on="0"/>
        <pt x="333" y="747" on="0"/>
        <pt x="386" y="747" on="1"/>
        <pt x="483" y="747" on="0"/>
        <pt x="607" y="582" on="0"/>
        <pt x="607" y="376" on="0"/>
        <pt x="503" y="165" on="0"/>
        <pt x="320" y="13" on="0"/>
        <pt x="222" y="13" on="1"/>
        <pt x="148" y="13" on="0"/>
        <pt x="32" y="158" on="0"/>
      </contour>
    </TTGlyph>
    <TTGlyph name="Ohungarumlaut" xMin="32" yMin="13" xMax="703" yMax="1026">
      <contour>
        <pt x="465" y="538" on="0"/>
        <pt x="429" y="616" on="0"/>
        <pt x="365" y="616" on="0"/>
        <pt x="262" y="501" on="0"/>
        <pt x="179" y="315" on="0"/>
        <pt x="179" y="230" on="1"/>
        <pt x="179" y="187" on="0"/>
        <pt x="203" y="134" on="0"/>
        <pt x="221" y="134" on="1"/>
        <pt x="263" y="134" on="0"/>
        <pt x="379" y="237" on="0"/>
        <pt x="465" y="394" on="0"/>
      </contour>
      <contour>
        <pt x="32" y="230" on="1"/>
        <pt x="32" y="322" on="0"/>
        <pt x="102" y="515" on="0"/>
        <pt x="207" y="656" on="0"/>
        <pt x="333" y="747" on="0"/>
        <pt x="386" y="747" on="1"/>
        <pt x="483" y="747" on="0"/>
        <pt x="607" y="582" on="0"/>
        <pt x="607" y="376" on="0"/>
        <pt x="503" y="165" on="0"/>
        <pt x="320" y="13" on="0"/>
        <pt x="222" y="13" on="1"/>
        <pt x="148" y="13" on="0"/>
        <pt x="32" y="158" on="0"/>
      </contour>
      <contour>
        <pt x="611" y="1012" on="0"/>
        <pt x="661" y="1017" on="0"/>
        <pt x="703" y="974" on="0"/>
        <pt x="702" y="904" on="0"/>
        <pt x="683" y="888" on="1"/>
        <pt x="619" y="835" on="1"/>
        <pt x="553" y="772" on="0"/>
        <pt x="531" y="795" on="1"/>
        <pt x="497" y="829" on="0"/>
        <pt x="542" y="904" on="1"/>
        <pt x="596" y="989" on="1"/>
      </contour>
      <contour>
        <pt x="486" y="1015" on="1"/>
        <pt x="513" y="995" on="0"/>
        <pt x="519" y="922" on="0"/>
        <pt x="503" y="905" on="1"/>
        <pt x="449" y="842" on="1"/>
        <pt x="428" y="814" on="0"/>
        <pt x="380" y="780" on="0"/>
        <pt x="365" y="793" on="1"/>
        <pt x="330" y="822" on="0"/>
        <pt x="364" y="902" on="1"/>
        <pt x="406" y="995" on="1"/>
        <pt x="418" y="1020" on="0"/>
        <pt x="466" y="1031" on="0"/>
      </contour>
    </TTGlyph>
    <TTGlyph name="Omacron" xMin="32" yMin="13" xMax="658" yMax="913">
      <contour>
        <pt x="465" y="538" on="0"/>
        <pt x="429" y="616" on="0"/>
        <pt x="365" y="616" on="0"/>
        <pt x="262" y="501" on="0"/>
        <pt x="179" y="315" on="0"/>
        <pt x="179" y="230" on="1"/>
        <pt x="179" y="187" on="0"/>
        <pt x="203" y="134" on="0"/>
        <pt x="221" y="134" on="1"/>
        <pt x="263" y="134" on="0"/>
        <pt x="379" y="237" on="0"/>
        <pt x="465" y="394" on="0"/>
      </contour>
      <contour>
        <pt x="32" y="230" on="1"/>
        <pt x="32" y="322" on="0"/>
        <pt x="102" y="515" on="0"/>
        <pt x="207" y="656" on="0"/>
        <pt x="333" y="747" on="0"/>
        <pt x="386" y="747" on="1"/>
        <pt x="483" y="747" on="0"/>
        <pt x="607" y="582" on="0"/>
        <pt x="607" y="376" on="0"/>
        <pt x="503" y="165" on="0"/>
        <pt x="320" y="13" on="0"/>
        <pt x="222" y="13" on="1"/>
        <pt x="148" y="13" on="0"/>
        <pt x="32" y="158" on="0"/>
      </contour>
      <contour>
        <pt x="658" y="884" on="1"/>
        <pt x="658" y="865" on="0"/>
        <pt x="595" y="847" on="0"/>
        <pt x="469" y="826" on="0"/>
        <pt x="435" y="820" on="1"/>
        <pt x="375" y="808" on="0"/>
        <pt x="337" y="809" on="0"/>
        <pt x="301" y="854" on="0"/>
        <pt x="301" y="873" on="1"/>
        <pt x="302" y="900" on="0"/>
        <pt x="445" y="915" on="0"/>
        <pt x="584" y="913" on="1"/>
        <pt x="658" y="911" on="0"/>
      </contour>
    </TTGlyph>
    <TTGlyph name="Oslash" xMin="32" yMin="11" xMax="656" yMax="747">
      <contour>
        <pt x="622" y="471" on="1"/>
        <pt x="622" y="376" on="0"/>
        <pt x="518" y="165" on="0"/>
        <pt x="335" y="13" on="0"/>
        <pt x="237" y="13" on="1"/>
        <pt x="178" y="13" on="0"/>
        <pt x="122" y="62" on="1"/>
        <pt x="78" y="11" on="0"/>
        <pt x="49" y="11" on="0"/>
        <pt x="33" y="34" on="0"/>
        <pt x="33" y="60" on="0"/>
        <pt x="74" y="116" on="1"/>
        <pt x="32" y="176" on="0"/>
        <pt x="32" y="230" on="1"/>
        <pt x="32" y="322" on="0"/>
        <pt x="102" y="515" on="0"/>
        <pt x="207" y="656" on="0"/>
        <pt x="333" y="747" on="0"/>
        <pt x="386" y="747" on="1"/>
        <pt x="471" y="747" on="0"/>
        <pt x="538" y="680" on="1"/>
        <pt x="594" y="738" on="0"/>
        <pt x="619" y="738" on="1"/>
        <pt x="635" y="738" on="0"/>
        <pt x="656" y="719" on="0"/>
        <pt x="656" y="704" on="1"/>
        <pt x="656" y="676" on="0"/>
        <pt x="613" y="629" on="1"/>
        <pt x="591" y="605" on="1"/>
        <pt x="622" y="541" on="0"/>
      </contour>
      <contour>
        <pt x="450" y="583" on="1"/>
        <pt x="428" y="616" on="0"/>
        <pt x="374" y="616" on="0"/>
        <pt x="303" y="550" on="0"/>
        <pt x="235" y="449" on="0"/>
        <pt x="184" y="312" on="0"/>
        <pt x="180" y="250" on="1"/>
        <pt x="195" y="269" on="0"/>
        <pt x="255" y="342" on="0"/>
        <pt x="394" y="517" on="0"/>
      </contour>
      <contour>
        <pt x="480" y="461" on="1"/>
        <pt x="480" y="475" on="0"/>
        <pt x="479" y="482" on="1"/>
        <pt x="347" y="334" on="0"/>
        <pt x="201" y="156" on="1"/>
        <pt x="218" y="134" on="0"/>
        <pt x="236" y="134" on="1"/>
        <pt x="278" y="134" on="0"/>
        <pt x="394" y="237" on="0"/>
        <pt x="480" y="394" on="0"/>
      </contour>
    </TTGlyph>
    <TTGlyph name="Otilde" xMin="32" yMin="13" xMax="680" yMax="985">
      <contour>
        <pt x="288" y="891" on="0"/>
        <pt x="373" y="985" on="0"/>
        <pt x="459" y="985" on="0"/>
        <pt x="509" y="947" on="0"/>
        <pt x="542" y="898" on="0"/>
        <pt x="552" y="893" on="1"/>
        <pt x="561" y="898" on="0"/>
        <pt x="573" y="920" on="1"/>
        <pt x="603" y="974" on="0"/>
        <pt x="640" y="974" on="1"/>
        <pt x="659" y="974" on="0"/>
        <pt x="681" y="949" on="0"/>
        <pt x="680" y="926" on="1"/>
        <pt x="678" y="878" on="0"/>
        <pt x="601" y="783" on="0"/>
        <pt x="532" y="783" on="0"/>
        <pt x="463" y="841" on="0"/>
        <pt x="438" y="888" on="1"/>
        <pt x="420" y="879" on="0"/>
        <pt x="393" y="831" on="0"/>
        <pt x="363" y="794" on="0"/>
        <pt x="316" y="794" on="0"/>
        <pt x="285" y="819" on="0"/>
        <pt x="286" y="842" on="1"/>
      </contour>
      <contour>
        <pt x="465" y="538" on="0"/>
        <pt x="429" y="616" on="0"/>
        <pt x="365" y="616" on="0"/>
        <pt x="262" y="501" on="0"/>
        <pt x="179" y="315" on="0"/>
        <pt x="179" y="230" on="1"/>
        <pt x="179" y="187" on="0"/>
        <pt x="203" y="134" on="0"/>
        <pt x="221" y="134" on="1"/>
        <pt x="263" y="134" on="0"/>
        <pt x="379" y="237" on="0"/>
        <pt x="465" y="394" on="0"/>
      </contour>
      <contour>
        <pt x="32" y="230" on="1"/>
        <pt x="32" y="322" on="0"/>
        <pt x="102" y="515" on="0"/>
        <pt x="207" y="656" on="0"/>
        <pt x="333" y="747" on="0"/>
        <pt x="386" y="747" on="1"/>
        <pt x="483" y="747" on="0"/>
        <pt x="607" y="582" on="0"/>
        <pt x="607" y="376" on="0"/>
        <pt x="503" y="165" on="0"/>
        <pt x="320" y="13" on="0"/>
        <pt x="222" y="13" on="1"/>
        <pt x="148" y="13" on="0"/>
        <pt x="32" y="158" on="0"/>
      </contour>
    </TTGlyph>
    <TTGlyph name="P" xMin="22" yMin="18" xMax="578" yMax="770">
      <contour>
        <pt x="109" y="18" on="1"/>
        <pt x="86" y="18" on="0"/>
        <pt x="22" y="95" on="0"/>
        <pt x="22" y="143" on="0"/>
        <pt x="46" y="218" on="1"/>
        <pt x="120" y="448" on="0"/>
        <pt x="125" y="621" on="1"/>
        <pt x="91" y="657" on="0"/>
        <pt x="91" y="678" on="1"/>
        <pt x="91" y="711" on="0"/>
        <pt x="248" y="770" on="0"/>
        <pt x="319" y="770" on="1"/>
        <pt x="439" y="770" on="0"/>
        <pt x="578" y="658" on="0"/>
        <pt x="578" y="571" on="1"/>
        <pt x="578" y="460" on="0"/>
        <pt x="361" y="280" on="0"/>
        <pt x="196" y="247" on="1"/>
        <pt x="149" y="78" on="0"/>
        <pt x="120" y="18" on="0"/>
      </contour>
      <contour>
        <pt x="436" y="568" on="1"/>
        <pt x="436" y="600" on="0"/>
        <pt x="390" y="641" on="0"/>
        <pt x="312" y="641" on="0"/>
        <pt x="243" y="604" on="1"/>
        <pt x="263" y="569" on="0"/>
        <pt x="263" y="541" on="1"/>
        <pt x="263" y="486" on="0"/>
        <pt x="234" y="378" on="1"/>
        <pt x="324" y="414" on="0"/>
        <pt x="436" y="515" on="0"/>
      </contour>
    </TTGlyph>
    <TTGlyph name="Q" xMin="32" yMin="-172" xMax="644" yMax="747">
      <contour>
        <pt x="486" y="747" on="0"/>
        <pt x="644" y="578" on="0"/>
        <pt x="644" y="377" on="0"/>
        <pt x="548" y="164" on="0"/>
        <pt x="470" y="94" on="1"/>
        <pt x="478" y="71" on="0"/>
        <pt x="504" y="1" on="0"/>
        <pt x="518" y="-38" on="0"/>
        <pt x="526" y="-62" on="1"/>
        <pt x="540" y="-107" on="0"/>
        <pt x="540" y="-154" on="0"/>
        <pt x="524" y="-172" on="0"/>
        <pt x="503" y="-172" on="1"/>
        <pt x="443" y="-172" on="0"/>
        <pt x="364" y="29" on="1"/>
        <pt x="321" y="13" on="0"/>
        <pt x="279" y="13" on="1"/>
        <pt x="201" y="13" on="0"/>
        <pt x="32" y="162" on="0"/>
        <pt x="32" y="230" on="1"/>
        <pt x="32" y="322" on="0"/>
        <pt x="102" y="515" on="0"/>
        <pt x="207" y="656" on="0"/>
        <pt x="333" y="747" on="0"/>
        <pt x="386" y="747" on="1"/>
      </contour>
      <contour>
        <pt x="377" y="587" on="1"/>
        <pt x="377" y="421" on="0"/>
        <pt x="423" y="246" on="1"/>
        <pt x="502" y="358" on="0"/>
        <pt x="502" y="461" on="1"/>
        <pt x="502" y="533" on="0"/>
        <pt x="433" y="616" on="0"/>
        <pt x="398" y="616" on="1"/>
        <pt x="377" y="604" on="0"/>
      </contour>
      <contour>
        <pt x="254" y="462" on="1"/>
        <pt x="254" y="474" on="1"/>
        <pt x="179" y="347" on="0"/>
        <pt x="179" y="230" on="1"/>
        <pt x="179" y="191" on="0"/>
        <pt x="254" y="134" on="0"/>
        <pt x="298" y="134" on="0"/>
        <pt x="323" y="148" on="1"/>
        <pt x="293" y="243" on="0"/>
        <pt x="254" y="423" on="0"/>
      </contour>
    </TTGlyph>
    <TTGlyph name="R" xMin="35" yMin="8" xMax="581" yMax="744">
      <contour>
        <pt x="567" y="49" on="1"/>
        <pt x="567" y="8" on="0"/>
        <pt x="510" y="8" on="1"/>
        <pt x="432" y="8" on="0"/>
        <pt x="261" y="170" on="0"/>
        <pt x="225" y="259" on="1"/>
        <pt x="223" y="253" on="0"/>
        <pt x="219" y="242" on="1"/>
        <pt x="208" y="209" on="0"/>
        <pt x="173" y="102" on="0"/>
        <pt x="160" y="66" on="0"/>
        <pt x="152" y="46" on="1"/>
        <pt x="137" y="8" on="0"/>
        <pt x="123" y="8" on="1"/>
        <pt x="100" y="8" on="0"/>
        <pt x="35" y="85" on="0"/>
        <pt x="35" y="133" on="0"/>
        <pt x="58" y="198" on="1"/>
        <pt x="126" y="397" on="0"/>
        <pt x="136" y="561" on="1"/>
        <pt x="117" y="576" on="0"/>
        <pt x="87" y="630" on="0"/>
        <pt x="87" y="648" on="1"/>
        <pt x="87" y="678" on="0"/>
        <pt x="242" y="744" on="0"/>
        <pt x="445" y="744" on="0"/>
        <pt x="581" y="648" on="0"/>
        <pt x="581" y="571" on="1"/>
        <pt x="581" y="514" on="0"/>
        <pt x="514" y="409" on="0"/>
        <pt x="435" y="350" on="0"/>
        <pt x="368" y="302" on="0"/>
        <pt x="368" y="295" on="1"/>
        <pt x="368" y="255" on="0"/>
        <pt x="441" y="188" on="1"/>
        <pt x="455" y="175" on="0"/>
        <pt x="499" y="134" on="0"/>
        <pt x="526" y="109" on="0"/>
        <pt x="540" y="94" on="1"/>
        <pt x="567" y="65" on="0"/>
      </contour>
      <contour>
        <pt x="427" y="561" on="1"/>
        <pt x="427" y="603" on="0"/>
        <pt x="345" y="603" on="1"/>
        <pt x="306" y="603" on="0"/>
        <pt x="252" y="581" on="1"/>
        <pt x="277" y="543" on="0"/>
        <pt x="277" y="511" on="1"/>
        <pt x="277" y="453" on="0"/>
        <pt x="261" y="384" on="1"/>
        <pt x="272" y="392" on="0"/>
        <pt x="331" y="432" on="0"/>
        <pt x="365" y="458" on="0"/>
        <pt x="386" y="478" on="1"/>
        <pt x="427" y="516" on="0"/>
      </contour>
    </TTGlyph>
    <TTGlyph name="Racute" xMin="22" yMin="8" xMax="575" yMax="998">
      <contour>
        <pt x="568" y="571" on="1"/>
        <pt x="568" y="514" on="0"/>
        <pt x="501" y="409" on="0"/>
        <pt x="422" y="350" on="0"/>
        <pt x="355" y="302" on="0"/>
        <pt x="355" y="295" on="1"/>
        <pt x="355" y="255" on="0"/>
        <pt x="428" y="188" on="1"/>
        <pt x="442" y="175" on="0"/>
        <pt x="486" y="134" on="0"/>
        <pt x="513" y="109" on="0"/>
        <pt x="527" y="94" on="1"/>
        <pt x="554" y="65" on="0"/>
        <pt x="554" y="49" on="1"/>
        <pt x="554" y="8" on="0"/>
        <pt x="497" y="8" on="1"/>
        <pt x="419" y="8" on="0"/>
        <pt x="248" y="170" on="0"/>
        <pt x="212" y="259" on="1"/>
        <pt x="210" y="253" on="0"/>
        <pt x="206" y="242" on="1"/>
        <pt x="195" y="209" on="0"/>
        <pt x="160" y="102" on="0"/>
        <pt x="147" y="66" on="0"/>
        <pt x="139" y="46" on="1"/>
        <pt x="124" y="8" on="0"/>
        <pt x="110" y="8" on="1"/>
        <pt x="87" y="8" on="0"/>
        <pt x="22" y="85" on="0"/>
        <pt x="22" y="133" on="0"/>
        <pt x="44" y="198" on="1"/>
        <pt x="113" y="397" on="0"/>
        <pt x="123" y="561" on="1"/>
        <pt x="104" y="576" on="0"/>
        <pt x="74" y="630" on="0"/>
        <pt x="74" y="648" on="1"/>
        <pt x="74" y="678" on="0"/>
        <pt x="229" y="744" on="0"/>
        <pt x="432" y="744" on="0"/>
        <pt x="568" y="648" on="0"/>
      </contour>
      <contour>
        <pt x="414" y="561" on="1"/>
        <pt x="414" y="603" on="0"/>
        <pt x="332" y="603" on="1"/>
        <pt x="293" y="603" on="0"/>
        <pt x="239" y="581" on="1"/>
        <pt x="264" y="543" on="0"/>
        <pt x="264" y="511" on="1"/>
        <pt x="264" y="453" on="0"/>
        <pt x="248" y="384" on="1"/>
        <pt x="259" y="392" on="0"/>
        <pt x="318" y="432" on="0"/>
        <pt x="352" y="458" on="0"/>
        <pt x="373" y="478" on="1"/>
        <pt x="414" y="516" on="0"/>
      </contour>
      <contour>
        <pt x="551" y="882" on="1"/>
        <pt x="442" y="827" on="1"/>
        <pt x="435" y="823" on="0"/>
        <pt x="407" y="805" on="0"/>
        <pt x="389" y="795" on="0"/>
        <pt x="378" y="792" on="1"/>
        <pt x="354" y="784" on="0"/>
        <pt x="322" y="829" on="0"/>
        <pt x="341" y="886" on="0"/>
        <pt x="369" y="910" on="1"/>
        <pt x="475" y="998" on="1"/>
        <pt x="516" y="1033" on="0"/>
        <pt x="553" y="988" on="1"/>
        <pt x="576" y="959" on="0"/>
        <pt x="573" y="894" on="0"/>
      </contour>
    </TTGlyph>
    <TTGlyph name="Rcaron" xMin="22" yMin="8" xMax="568" yMax="998">
      <contour>
        <pt x="554" y="49" on="1"/>
        <pt x="554" y="8" on="0"/>
        <pt x="497" y="8" on="1"/>
        <pt x="419" y="8" on="0"/>
        <pt x="248" y="170" on="0"/>
        <pt x="212" y="259" on="1"/>
        <pt x="210" y="253" on="0"/>
        <pt x="206" y="242" on="1"/>
        <pt x="195" y="209" on="0"/>
        <pt x="160" y="102" on="0"/>
        <pt x="147" y="66" on="0"/>
        <pt x="139" y="46" on="1"/>
        <pt x="124" y="8" on="0"/>
        <pt x="110" y="8" on="1"/>
        <pt x="87" y="8" on="0"/>
        <pt x="22" y="85" on="0"/>
        <pt x="22" y="133" on="0"/>
        <pt x="44" y="198" on="1"/>
        <pt x="113" y="397" on="0"/>
        <pt x="123" y="561" on="1"/>
        <pt x="104" y="576" on="0"/>
        <pt x="74" y="630" on="0"/>
        <pt x="74" y="648" on="1"/>
        <pt x="74" y="678" on="0"/>
        <pt x="229" y="744" on="0"/>
        <pt x="432" y="744" on="0"/>
        <pt x="568" y="648" on="0"/>
        <pt x="568" y="571" on="1"/>
        <pt x="568" y="514" on="0"/>
        <pt x="501" y="409" on="0"/>
        <pt x="422" y="350" on="0"/>
        <pt x="355" y="302" on="0"/>
        <pt x="355" y="295" on="1"/>
        <pt x="355" y="255" on="0"/>
        <pt x="428" y="188" on="1"/>
        <pt x="442" y="175" on="0"/>
        <pt x="486" y="134" on="0"/>
        <pt x="513" y="109" on="0"/>
        <pt x="527" y="94" on="1"/>
        <pt x="554" y="65" on="0"/>
      </contour>
      <contour>
        <pt x="414" y="561" on="1"/>
        <pt x="414" y="603" on="0"/>
        <pt x="332" y="603" on="1"/>
        <pt x="293" y="603" on="0"/>
        <pt x="239" y="581" on="1"/>
        <pt x="264" y="543" on="0"/>
        <pt x="264" y="511" on="1"/>
        <pt x="264" y="453" on="0"/>
        <pt x="248" y="384" on="1"/>
        <pt x="259" y="392" on="0"/>
        <pt x="318" y="432" on="0"/>
        <pt x="352" y="458" on="0"/>
        <pt x="373" y="478" on="1"/>
        <pt x="414" y="516" on="0"/>
      </contour>
      <contour>
        <pt x="356" y="782" on="1"/>
        <pt x="333" y="782" on="0"/>
        <pt x="206" y="907" on="0"/>
        <pt x="206" y="944" on="1"/>
        <pt x="206" y="967" on="0"/>
        <pt x="231" y="998" on="0"/>
        <pt x="271" y="998" on="0"/>
        <pt x="301" y="975" on="0"/>
        <pt x="347" y="922" on="0"/>
        <pt x="369" y="904" on="1"/>
        <pt x="452" y="964" on="0"/>
        <pt x="499" y="964" on="1"/>
        <pt x="536" y="964" on="0"/>
        <pt x="536" y="929" on="1"/>
        <pt x="536" y="912" on="0"/>
        <pt x="504" y="884" on="0"/>
        <pt x="485" y="870" on="0"/>
        <pt x="452" y="847" on="0"/>
        <pt x="432" y="832" on="0"/>
        <pt x="402" y="807" on="0"/>
        <pt x="394" y="800" on="1"/>
        <pt x="372" y="782" on="0"/>
      </contour>
    </TTGlyph>
    <TTGlyph name="S" xMin="2" yMin="13" xMax="552" yMax="748">
      <contour>
        <pt x="499" y="135" on="0"/>
        <pt x="337" y="13" on="0"/>
        <pt x="129" y="13" on="0"/>
        <pt x="2" y="116" on="0"/>
        <pt x="2" y="226" on="0"/>
        <pt x="33" y="226" on="1"/>
        <pt x="57" y="226" on="0"/>
        <pt x="109" y="178" on="0"/>
        <pt x="174" y="130" on="0"/>
        <pt x="256" y="130" on="0"/>
        <pt x="360" y="198" on="0"/>
        <pt x="360" y="244" on="0"/>
        <pt x="247" y="352" on="0"/>
        <pt x="134" y="467" on="0"/>
        <pt x="134" y="530" on="0"/>
        <pt x="157" y="604" on="0"/>
        <pt x="174" y="618" on="1"/>
        <pt x="228" y="671" on="0"/>
        <pt x="399" y="748" on="0"/>
        <pt x="464" y="748" on="1"/>
        <pt x="502" y="748" on="0"/>
        <pt x="552" y="683" on="0"/>
        <pt x="552" y="648" on="1"/>
        <pt x="552" y="634" on="0"/>
        <pt x="507" y="617" on="0"/>
        <pt x="422" y="599" on="0"/>
        <pt x="378" y="582" on="1"/>
        <pt x="276" y="544" on="0"/>
        <pt x="276" y="518" on="1"/>
        <pt x="276" y="506" on="0"/>
        <pt x="346" y="443" on="0"/>
        <pt x="429" y="374" on="0"/>
        <pt x="499" y="269" on="0"/>
        <pt x="499" y="220" on="1"/>
      </contour>
    </TTGlyph>
    <TTGlyph name="Sacute" xMin="2" yMin="13" xMax="634" yMax="998">
      <contour>
        <pt x="499" y="135" on="0"/>
        <pt x="337" y="13" on="0"/>
        <pt x="129" y="13" on="0"/>
        <pt x="2" y="116" on="0"/>
        <pt x="2" y="226" on="0"/>
        <pt x="33" y="226" on="1"/>
        <pt x="57" y="226" on="0"/>
        <pt x="109" y="178" on="0"/>
        <pt x="174" y="130" on="0"/>
        <pt x="256" y="130" on="0"/>
        <pt x="360" y="198" on="0"/>
        <pt x="360" y="244" on="0"/>
        <pt x="247" y="352" on="0"/>
        <pt x="134" y="467" on="0"/>
        <pt x="134" y="530" on="0"/>
        <pt x="157" y="604" on="0"/>
        <pt x="174" y="618" on="1"/>
        <pt x="228" y="671" on="0"/>
        <pt x="399" y="748" on="0"/>
        <pt x="464" y="748" on="1"/>
        <pt x="502" y="748" on="0"/>
        <pt x="552" y="683" on="0"/>
        <pt x="552" y="648" on="1"/>
        <pt x="552" y="634" on="0"/>
        <pt x="507" y="617" on="0"/>
        <pt x="422" y="599" on="0"/>
        <pt x="378" y="582" on="1"/>
        <pt x="276" y="544" on="0"/>
        <pt x="276" y="518" on="1"/>
        <pt x="276" y="506" on="0"/>
        <pt x="346" y="443" on="0"/>
        <pt x="429" y="374" on="0"/>
        <pt x="499" y="269" on="0"/>
        <pt x="499" y="220" on="1"/>
      </contour>
      <contour>
        <pt x="534" y="998" on="1"/>
        <pt x="575" y="1033" on="0"/>
        <pt x="612" y="988" on="1"/>
        <pt x="635" y="959" on="0"/>
        <pt x="632" y="894" on="0"/>
        <pt x="610" y="882" on="1"/>
        <pt x="501" y="827" on="1"/>
        <pt x="494" y="823" on="0"/>
        <pt x="466" y="805" on="0"/>
        <pt x="448" y="795" on="0"/>
        <pt x="436" y="792" on="1"/>
        <pt x="413" y="784" on="0"/>
        <pt x="381" y="829" on="0"/>
        <pt x="400" y="886" on="0"/>
        <pt x="428" y="910" on="1"/>
      </contour>
    </TTGlyph>
    <TTGlyph name="Scaron" xMin="2" yMin="13" xMax="595" yMax="998">
      <contour>
        <pt x="499" y="135" on="0"/>
        <pt x="337" y="13" on="0"/>
        <pt x="129" y="13" on="0"/>
        <pt x="2" y="116" on="0"/>
        <pt x="2" y="226" on="0"/>
        <pt x="33" y="226" on="1"/>
        <pt x="57" y="226" on="0"/>
        <pt x="109" y="178" on="0"/>
        <pt x="174" y="130" on="0"/>
        <pt x="256" y="130" on="0"/>
        <pt x="360" y="198" on="0"/>
        <pt x="360" y="244" on="0"/>
        <pt x="247" y="352" on="0"/>
        <pt x="134" y="467" on="0"/>
        <pt x="134" y="530" on="0"/>
        <pt x="157" y="604" on="0"/>
        <pt x="174" y="618" on="1"/>
        <pt x="228" y="671" on="0"/>
        <pt x="399" y="748" on="0"/>
        <pt x="464" y="748" on="1"/>
        <pt x="502" y="748" on="0"/>
        <pt x="552" y="683" on="0"/>
        <pt x="552" y="648" on="1"/>
        <pt x="552" y="634" on="0"/>
        <pt x="507" y="617" on="0"/>
        <pt x="422" y="599" on="0"/>
        <pt x="378" y="582" on="1"/>
        <pt x="276" y="544" on="0"/>
        <pt x="276" y="518" on="1"/>
        <pt x="276" y="506" on="0"/>
        <pt x="346" y="443" on="0"/>
        <pt x="429" y="374" on="0"/>
        <pt x="499" y="269" on="0"/>
        <pt x="499" y="220" on="1"/>
      </contour>
      <contour>
        <pt x="558" y="964" on="1"/>
        <pt x="595" y="964" on="0"/>
        <pt x="595" y="929" on="1"/>
        <pt x="595" y="912" on="0"/>
        <pt x="563" y="884" on="0"/>
        <pt x="544" y="870" on="0"/>
        <pt x="511" y="847" on="0"/>
        <pt x="491" y="832" on="0"/>
        <pt x="461" y="807" on="0"/>
        <pt x="452" y="800" on="1"/>
        <pt x="431" y="782" on="0"/>
        <pt x="415" y="782" on="1"/>
        <pt x="392" y="782" on="0"/>
        <pt x="265" y="907" on="0"/>
        <pt x="265" y="944" on="1"/>
        <pt x="265" y="967" on="0"/>
        <pt x="290" y="998" on="0"/>
        <pt x="330" y="998" on="0"/>
        <pt x="360" y="975" on="0"/>
        <pt x="406" y="922" on="0"/>
        <pt x="428" y="904" on="1"/>
        <pt x="511" y="964" on="0"/>
      </contour>
    </TTGlyph>
    <TTGlyph name="T" xMin="55" yMin="18" xMax="624" yMax="737">
      <contour>
        <pt x="245" y="603" on="1"/>
        <pt x="127" y="597" on="1"/>
        <pt x="103" y="597" on="0"/>
        <pt x="55" y="656" on="0"/>
        <pt x="55" y="688" on="1"/>
        <pt x="55" y="737" on="0"/>
        <pt x="340" y="737" on="1"/>
        <pt x="486" y="737" on="0"/>
        <pt x="624" y="677" on="0"/>
        <pt x="624" y="634" on="1"/>
        <pt x="624" y="621" on="0"/>
        <pt x="594" y="599" on="0"/>
        <pt x="547" y="598" on="0"/>
        <pt x="425" y="603" on="0"/>
        <pt x="376" y="604" on="1"/>
        <pt x="380" y="592" on="0"/>
        <pt x="380" y="561" on="0"/>
        <pt x="358" y="467" on="0"/>
        <pt x="315" y="299" on="0"/>
        <pt x="266" y="59" on="0"/>
        <pt x="245" y="18" on="0"/>
        <pt x="237" y="18" on="1"/>
        <pt x="216" y="18" on="0"/>
        <pt x="153" y="95" on="0"/>
        <pt x="153" y="143" on="0"/>
        <pt x="235" y="492" on="0"/>
      </contour>
    </TTGlyph>
    <TTGlyph name="Tcaron" xMin="18" yMin="18" xMax="587" yMax="998">
      <contour>
        <pt x="208" y="603" on="1"/>
        <pt x="90" y="597" on="1"/>
        <pt x="66" y="597" on="0"/>
        <pt x="18" y="656" on="0"/>
        <pt x="18" y="688" on="1"/>
        <pt x="18" y="737" on="0"/>
        <pt x="303" y="737" on="1"/>
        <pt x="449" y="737" on="0"/>
        <pt x="587" y="677" on="0"/>
        <pt x="587" y="634" on="1"/>
        <pt x="587" y="621" on="0"/>
        <pt x="557" y="599" on="0"/>
        <pt x="510" y="598" on="0"/>
        <pt x="388" y="603" on="0"/>
        <pt x="339" y="604" on="1"/>
        <pt x="343" y="592" on="0"/>
        <pt x="343" y="561" on="0"/>
        <pt x="321" y="467" on="0"/>
        <pt x="278" y="299" on="0"/>
        <pt x="229" y="59" on="0"/>
        <pt x="208" y="18" on="0"/>
        <pt x="200" y="18" on="1"/>
        <pt x="179" y="18" on="0"/>
        <pt x="116" y="95" on="0"/>
        <pt x="116" y="143" on="0"/>
        <pt x="198" y="492" on="0"/>
      </contour>
      <contour>
        <pt x="306" y="782" on="1"/>
        <pt x="283" y="782" on="0"/>
        <pt x="156" y="907" on="0"/>
        <pt x="156" y="944" on="1"/>
        <pt x="156" y="967" on="0"/>
        <pt x="181" y="998" on="0"/>
        <pt x="221" y="998" on="0"/>
        <pt x="251" y="975" on="0"/>
        <pt x="297" y="922" on="0"/>
        <pt x="319" y="904" on="1"/>
        <pt x="402" y="964" on="0"/>
        <pt x="449" y="964" on="1"/>
        <pt x="486" y="964" on="0"/>
        <pt x="486" y="929" on="1"/>
        <pt x="486" y="912" on="0"/>
        <pt x="454" y="884" on="0"/>
        <pt x="435" y="870" on="0"/>
        <pt x="402" y="847" on="0"/>
        <pt x="382" y="832" on="0"/>
        <pt x="352" y="807" on="0"/>
        <pt x="344" y="800" on="1"/>
        <pt x="322" y="782" on="0"/>
      </contour>
    </TTGlyph>
    <TTGlyph name="Thorn" xMin="40" yMin="10" xMax="522" yMax="751">
      <contour>
        <pt x="293" y="619" on="1"/>
        <pt x="293" y="617" on="1"/>
        <pt x="319" y="619" on="0"/>
        <pt x="330" y="619" on="1"/>
        <pt x="395" y="619" on="0"/>
        <pt x="522" y="486" on="0"/>
        <pt x="522" y="435" on="1"/>
        <pt x="522" y="340" on="0"/>
        <pt x="330" y="200" on="0"/>
        <pt x="190" y="191" on="1"/>
        <pt x="165" y="82" on="0"/>
        <pt x="139" y="10" on="0"/>
        <pt x="92" y="10" on="0"/>
        <pt x="40" y="87" on="0"/>
        <pt x="40" y="137" on="0"/>
        <pt x="64" y="240" on="1"/>
        <pt x="139" y="553" on="0"/>
        <pt x="139" y="718" on="1"/>
        <pt x="139" y="751" on="0"/>
        <pt x="201" y="751" on="0"/>
        <pt x="293" y="677" on="0"/>
      </contour>
      <contour>
        <pt x="390" y="442" on="1"/>
        <pt x="390" y="456" on="0"/>
        <pt x="342" y="479" on="0"/>
        <pt x="290" y="479" on="0"/>
        <pt x="264" y="471" on="1"/>
        <pt x="258" y="450" on="0"/>
        <pt x="229" y="340" on="0"/>
        <pt x="221" y="310" on="1"/>
        <pt x="336" y="330" on="0"/>
        <pt x="374" y="386" on="1"/>
        <pt x="390" y="411" on="0"/>
      </contour>
    </TTGlyph>
    <TTGlyph name="U" xMin="60" yMin="12" xMax="590" yMax="748">
      <contour>
        <pt x="195" y="747" on="0"/>
        <pt x="272" y="675" on="0"/>
        <pt x="272" y="606" on="0"/>
        <pt x="200" y="318" on="0"/>
        <pt x="200" y="209" on="0"/>
        <pt x="227" y="151" on="0"/>
        <pt x="276" y="151" on="0"/>
        <pt x="342" y="222" on="0"/>
        <pt x="403" y="335" on="0"/>
        <pt x="444" y="492" on="0"/>
        <pt x="444" y="627" on="0"/>
        <pt x="431" y="709" on="0"/>
        <pt x="431" y="717" on="1"/>
        <pt x="431" y="748" on="0"/>
        <pt x="457" y="748" on="1"/>
        <pt x="489" y="748" on="0"/>
        <pt x="590" y="640" on="0"/>
        <pt x="590" y="491" on="0"/>
        <pt x="538" y="298" on="0"/>
        <pt x="450" y="126" on="0"/>
        <pt x="315" y="12" on="0"/>
        <pt x="174" y="12" on="0"/>
        <pt x="60" y="160" on="0"/>
        <pt x="60" y="314" on="0"/>
        <pt x="100" y="517" on="0"/>
        <pt x="140" y="679" on="0"/>
        <pt x="140" y="747" on="0"/>
        <pt x="170" y="747" on="1"/>
      </contour>
    </TTGlyph>
    <TTGlyph name="Uacute" xMin="46" yMin="12" xMax="576" yMax="998">
      <contour>
        <pt x="181" y="747" on="0"/>
        <pt x="258" y="675" on="0"/>
        <pt x="258" y="606" on="0"/>
        <pt x="186" y="318" on="0"/>
        <pt x="186" y="209" on="0"/>
        <pt x="213" y="151" on="0"/>
        <pt x="262" y="151" on="0"/>
        <pt x="328" y="222" on="0"/>
        <pt x="389" y="335" on="0"/>
        <pt x="430" y="492" on="0"/>
        <pt x="430" y="627" on="0"/>
        <pt x="417" y="709" on="0"/>
        <pt x="417" y="717" on="1"/>
        <pt x="417" y="748" on="0"/>
        <pt x="443" y="748" on="1"/>
        <pt x="475" y="748" on="0"/>
        <pt x="576" y="640" on="0"/>
        <pt x="576" y="491" on="0"/>
        <pt x="524" y="298" on="0"/>
        <pt x="436" y="126" on="0"/>
        <pt x="301" y="12" on="0"/>
        <pt x="160" y="12" on="0"/>
        <pt x="46" y="160" on="0"/>
        <pt x="46" y="314" on="0"/>
        <pt x="86" y="517" on="0"/>
        <pt x="126" y="679" on="0"/>
        <pt x="126" y="747" on="0"/>
        <pt x="156" y="747" on="1"/>
      </contour>
      <contour>
        <pt x="433" y="998" on="1"/>
        <pt x="474" y="1033" on="0"/>
        <pt x="511" y="988" on="1"/>
        <pt x="534" y="959" on="0"/>
        <pt x="531" y="894" on="0"/>
        <pt x="509" y="882" on="1"/>
        <pt x="400" y="827" on="1"/>
        <pt x="393" y="823" on="0"/>
        <pt x="365" y="805" on="0"/>
        <pt x="347" y="795" on="0"/>
        <pt x="336" y="792" on="1"/>
        <pt x="312" y="784" on="0"/>
        <pt x="280" y="829" on="0"/>
        <pt x="299" y="886" on="0"/>
        <pt x="327" y="910" on="1"/>
      </contour>
    </TTGlyph>
    <TTGlyph name="Ucircumflex" xMin="46" yMin="12" xMax="576" yMax="1001">
      <contour>
        <pt x="181" y="747" on="0"/>
        <pt x="258" y="675" on="0"/>
        <pt x="258" y="606" on="0"/>
        <pt x="186" y="318" on="0"/>
        <pt x="186" y="209" on="0"/>
        <pt x="213" y="151" on="0"/>
        <pt x="262" y="151" on="0"/>
        <pt x="328" y="222" on="0"/>
        <pt x="389" y="335" on="0"/>
        <pt x="430" y="492" on="0"/>
        <pt x="430" y="627" on="0"/>
        <pt x="417" y="709" on="0"/>
        <pt x="417" y="717" on="1"/>
        <pt x="417" y="748" on="0"/>
        <pt x="443" y="748" on="1"/>
        <pt x="475" y="748" on="0"/>
        <pt x="576" y="640" on="0"/>
        <pt x="576" y="491" on="0"/>
        <pt x="524" y="298" on="0"/>
        <pt x="436" y="126" on="0"/>
        <pt x="301" y="12" on="0"/>
        <pt x="160" y="12" on="0"/>
        <pt x="46" y="160" on="0"/>
        <pt x="46" y="314" on="0"/>
        <pt x="86" y="517" on="0"/>
        <pt x="126" y="679" on="0"/>
        <pt x="126" y="747" on="0"/>
        <pt x="156" y="747" on="1"/>
      </contour>
      <contour>
        <pt x="478" y="863" on="0"/>
        <pt x="499" y="831" on="0"/>
        <pt x="499" y="804" on="0"/>
        <pt x="480" y="787" on="0"/>
        <pt x="469" y="787" on="1"/>
        <pt x="442" y="787" on="0"/>
        <pt x="361" y="844" on="0"/>
        <pt x="333" y="879" on="1"/>
        <pt x="305" y="865" on="0"/>
        <pt x="255" y="826" on="0"/>
        <pt x="225" y="806" on="0"/>
        <pt x="189" y="806" on="0"/>
        <pt x="165" y="834" on="0"/>
        <pt x="165" y="855" on="1"/>
        <pt x="165" y="903" on="0"/>
        <pt x="238" y="945" on="1"/>
        <pt x="249" y="951" on="0"/>
        <pt x="281" y="971" on="0"/>
        <pt x="301" y="983" on="0"/>
        <pt x="312" y="989" on="1"/>
        <pt x="335" y="1001" on="0"/>
        <pt x="358" y="1001" on="0"/>
        <pt x="378" y="979" on="0"/>
        <pt x="407" y="934" on="0"/>
        <pt x="427" y="913" on="0"/>
      </contour>
    </TTGlyph>
    <TTGlyph name="Udieresis" xMin="46" yMin="12" xMax="576" yMax="961">
      <contour>
        <pt x="181" y="747" on="0"/>
        <pt x="258" y="675" on="0"/>
        <pt x="258" y="606" on="0"/>
        <pt x="186" y="318" on="0"/>
        <pt x="186" y="209" on="0"/>
        <pt x="213" y="151" on="0"/>
        <pt x="262" y="151" on="0"/>
        <pt x="328" y="222" on="0"/>
        <pt x="389" y="335" on="0"/>
        <pt x="430" y="492" on="0"/>
        <pt x="430" y="627" on="0"/>
        <pt x="417" y="709" on="0"/>
        <pt x="417" y="717" on="1"/>
        <pt x="417" y="748" on="0"/>
        <pt x="443" y="748" on="1"/>
        <pt x="475" y="748" on="0"/>
        <pt x="576" y="640" on="0"/>
        <pt x="576" y="491" on="0"/>
        <pt x="524" y="298" on="0"/>
        <pt x="436" y="126" on="0"/>
        <pt x="301" y="12" on="0"/>
        <pt x="160" y="12" on="0"/>
        <pt x="46" y="160" on="0"/>
        <pt x="46" y="314" on="0"/>
        <pt x="86" y="517" on="0"/>
        <pt x="126" y="679" on="0"/>
        <pt x="126" y="747" on="0"/>
        <pt x="156" y="747" on="1"/>
      </contour>
      <contour>
        <pt x="435" y="961" on="0"/>
        <pt x="489" y="863" on="0"/>
        <pt x="489" y="828" on="0"/>
        <pt x="458" y="799" on="0"/>
        <pt x="443" y="799" on="1"/>
        <pt x="416" y="799" on="0"/>
        <pt x="352" y="864" on="0"/>
        <pt x="352" y="911" on="0"/>
        <pt x="394" y="961" on="0"/>
      </contour>
      <contour>
        <pt x="257" y="961" on="0"/>
        <pt x="311" y="863" on="0"/>
        <pt x="311" y="828" on="0"/>
        <pt x="280" y="799" on="0"/>
        <pt x="265" y="799" on="1"/>
        <pt x="238" y="799" on="0"/>
        <pt x="174" y="864" on="0"/>
        <pt x="174" y="911" on="0"/>
        <pt x="216" y="961" on="0"/>
      </contour>
    </TTGlyph>
    <TTGlyph name="Ugrave" xMin="46" yMin="12" xMax="576" yMax="996">
      <contour>
        <pt x="388" y="791" on="0"/>
        <pt x="359" y="791" on="0"/>
        <pt x="341" y="801" on="0"/>
        <pt x="322" y="815" on="1"/>
        <pt x="305" y="828" on="0"/>
        <pt x="193" y="899" on="1"/>
        <pt x="173" y="911" on="0"/>
        <pt x="175" y="967" on="0"/>
        <pt x="200" y="992" on="1"/>
        <pt x="240" y="1035" on="0"/>
        <pt x="277" y="996" on="1"/>
        <pt x="376" y="897" on="1"/>
        <pt x="433" y="841" on="0"/>
        <pt x="400" y="804" on="1"/>
      </contour>
      <contour>
        <pt x="181" y="747" on="0"/>
        <pt x="258" y="675" on="0"/>
        <pt x="258" y="606" on="0"/>
        <pt x="186" y="318" on="0"/>
        <pt x="186" y="209" on="0"/>
        <pt x="213" y="151" on="0"/>
        <pt x="262" y="151" on="0"/>
        <pt x="328" y="222" on="0"/>
        <pt x="389" y="335" on="0"/>
        <pt x="430" y="492" on="0"/>
        <pt x="430" y="627" on="0"/>
        <pt x="417" y="709" on="0"/>
        <pt x="417" y="717" on="1"/>
        <pt x="417" y="748" on="0"/>
        <pt x="443" y="748" on="1"/>
        <pt x="475" y="748" on="0"/>
        <pt x="576" y="640" on="0"/>
        <pt x="576" y="491" on="0"/>
        <pt x="524" y="298" on="0"/>
        <pt x="436" y="126" on="0"/>
        <pt x="301" y="12" on="0"/>
        <pt x="160" y="12" on="0"/>
        <pt x="46" y="160" on="0"/>
        <pt x="46" y="314" on="0"/>
        <pt x="86" y="517" on="0"/>
        <pt x="126" y="679" on="0"/>
        <pt x="126" y="747" on="0"/>
        <pt x="156" y="747" on="1"/>
      </contour>
    </TTGlyph>
    <TTGlyph name="Uhungarumlaut" xMin="46" yMin="12" xMax="576" yMax="1026">
      <contour>
        <pt x="456" y="1012" on="0"/>
        <pt x="506" y="1017" on="0"/>
        <pt x="548" y="974" on="0"/>
        <pt x="547" y="904" on="0"/>
        <pt x="528" y="888" on="1"/>
        <pt x="464" y="835" on="1"/>
        <pt x="398" y="772" on="0"/>
        <pt x="376" y="795" on="1"/>
        <pt x="342" y="829" on="0"/>
        <pt x="387" y="904" on="1"/>
        <pt x="441" y="989" on="1"/>
      </contour>
      <contour>
        <pt x="331" y="1015" on="1"/>
        <pt x="358" y="995" on="0"/>
        <pt x="364" y="922" on="0"/>
        <pt x="348" y="905" on="1"/>
        <pt x="294" y="842" on="1"/>
        <pt x="273" y="814" on="0"/>
        <pt x="225" y="780" on="0"/>
        <pt x="210" y="793" on="1"/>
        <pt x="175" y="822" on="0"/>
        <pt x="209" y="902" on="1"/>
        <pt x="251" y="995" on="1"/>
        <pt x="263" y="1020" on="0"/>
        <pt x="311" y="1031" on="0"/>
      </contour>
      <contour>
        <pt x="181" y="747" on="0"/>
        <pt x="258" y="675" on="0"/>
        <pt x="258" y="606" on="0"/>
        <pt x="186" y="318" on="0"/>
        <pt x="186" y="209" on="0"/>
        <pt x="213" y="151" on="0"/>
        <pt x="262" y="151" on="0"/>
        <pt x="328" y="222" on="0"/>
        <pt x="389" y="335" on="0"/>
        <pt x="430" y="492" on="0"/>
        <pt x="430" y="627" on="0"/>
        <pt x="417" y="709" on="0"/>
        <pt x="417" y="717" on="1"/>
        <pt x="417" y="748" on="0"/>
        <pt x="443" y="748" on="1"/>
        <pt x="475" y="748" on="0"/>
        <pt x="576" y="640" on="0"/>
        <pt x="576" y="491" on="0"/>
        <pt x="524" y="298" on="0"/>
        <pt x="436" y="126" on="0"/>
        <pt x="301" y="12" on="0"/>
        <pt x="160" y="12" on="0"/>
        <pt x="46" y="160" on="0"/>
        <pt x="46" y="314" on="0"/>
        <pt x="86" y="517" on="0"/>
        <pt x="126" y="679" on="0"/>
        <pt x="126" y="747" on="0"/>
        <pt x="156" y="747" on="1"/>
      </contour>
    </TTGlyph>
    <TTGlyph name="Umacron" xMin="46" yMin="12" xMax="576" yMax="913">
      <contour>
        <pt x="503" y="884" on="1"/>
        <pt x="503" y="865" on="0"/>
        <pt x="440" y="847" on="0"/>
        <pt x="314" y="826" on="0"/>
        <pt x="280" y="820" on="1"/>
        <pt x="220" y="808" on="0"/>
        <pt x="182" y="809" on="0"/>
        <pt x="146" y="854" on="0"/>
        <pt x="146" y="873" on="1"/>
        <pt x="147" y="900" on="0"/>
        <pt x="290" y="915" on="0"/>
        <pt x="429" y="913" on="1"/>
        <pt x="503" y="911" on="0"/>
      </contour>
      <contour>
        <pt x="181" y="747" on="0"/>
        <pt x="258" y="675" on="0"/>
        <pt x="258" y="606" on="0"/>
        <pt x="186" y="318" on="0"/>
        <pt x="186" y="209" on="0"/>
        <pt x="213" y="151" on="0"/>
        <pt x="262" y="151" on="0"/>
        <pt x="328" y="222" on="0"/>
        <pt x="389" y="335" on="0"/>
        <pt x="430" y="492" on="0"/>
        <pt x="430" y="627" on="0"/>
        <pt x="417" y="709" on="0"/>
        <pt x="417" y="717" on="1"/>
        <pt x="417" y="748" on="0"/>
        <pt x="443" y="748" on="1"/>
        <pt x="475" y="748" on="0"/>
        <pt x="576" y="640" on="0"/>
        <pt x="576" y="491" on="0"/>
        <pt x="524" y="298" on="0"/>
        <pt x="436" y="126" on="0"/>
        <pt x="301" y="12" on="0"/>
        <pt x="160" y="12" on="0"/>
        <pt x="46" y="160" on="0"/>
        <pt x="46" y="314" on="0"/>
        <pt x="86" y="517" on="0"/>
        <pt x="126" y="679" on="0"/>
        <pt x="126" y="747" on="0"/>
        <pt x="156" y="747" on="1"/>
      </contour>
    </TTGlyph>
    <TTGlyph name="Uogonek" xMin="46" yMin="-163" xMax="576" yMax="748">
      <contour>
        <pt x="202" y="-54" on="1"/>
        <pt x="202" y="-64" on="0"/>
        <pt x="248" y="-64" on="0"/>
        <pt x="272" y="-58" on="0"/>
        <pt x="305" y="-77" on="0"/>
        <pt x="320" y="-114" on="0"/>
        <pt x="303" y="-132" on="1"/>
        <pt x="274" y="-163" on="0"/>
        <pt x="163" y="-163" on="1"/>
        <pt x="128" y="-163" on="0"/>
        <pt x="75" y="-125" on="0"/>
        <pt x="75" y="-101" on="1"/>
        <pt x="75" y="-41" on="0"/>
        <pt x="150" y="40" on="1"/>
        <pt x="106" y="72" on="0"/>
        <pt x="46" y="182" on="0"/>
        <pt x="46" y="229" on="1"/>
        <pt x="46" y="355" on="0"/>
        <pt x="106" y="598" on="1"/>
        <pt x="126" y="679" on="0"/>
        <pt x="126" y="747" on="0"/>
        <pt x="156" y="747" on="1"/>
        <pt x="181" y="747" on="0"/>
        <pt x="258" y="675" on="0"/>
        <pt x="258" y="606" on="0"/>
        <pt x="186" y="318" on="0"/>
        <pt x="186" y="209" on="0"/>
        <pt x="213" y="151" on="0"/>
        <pt x="262" y="151" on="0"/>
        <pt x="328" y="222" on="0"/>
        <pt x="389" y="335" on="0"/>
        <pt x="430" y="492" on="0"/>
        <pt x="430" y="627" on="0"/>
        <pt x="417" y="709" on="0"/>
        <pt x="417" y="717" on="1"/>
        <pt x="417" y="748" on="0"/>
        <pt x="443" y="748" on="1"/>
        <pt x="475" y="748" on="0"/>
        <pt x="576" y="640" on="0"/>
        <pt x="576" y="574" on="1"/>
        <pt x="576" y="470" on="0"/>
        <pt x="503" y="234" on="0"/>
        <pt x="358" y="39" on="0"/>
        <pt x="272" y="18" on="1"/>
        <pt x="263" y="8" on="0"/>
        <pt x="254" y="1" on="1"/>
        <pt x="202" y="-38" on="0"/>
      </contour>
    </TTGlyph>
    <TTGlyph name="Uring" xMin="46" yMin="12" xMax="576" yMax="1010">
      <contour>
        <pt x="181" y="747" on="0"/>
        <pt x="258" y="675" on="0"/>
        <pt x="258" y="606" on="0"/>
        <pt x="186" y="318" on="0"/>
        <pt x="186" y="209" on="0"/>
        <pt x="213" y="151" on="0"/>
        <pt x="262" y="151" on="0"/>
        <pt x="328" y="222" on="0"/>
        <pt x="389" y="335" on="0"/>
        <pt x="430" y="492" on="0"/>
        <pt x="430" y="627" on="0"/>
        <pt x="417" y="709" on="0"/>
        <pt x="417" y="717" on="1"/>
        <pt x="417" y="748" on="0"/>
        <pt x="443" y="748" on="1"/>
        <pt x="475" y="748" on="0"/>
        <pt x="576" y="640" on="0"/>
        <pt x="576" y="491" on="0"/>
        <pt x="524" y="298" on="0"/>
        <pt x="436" y="126" on="0"/>
        <pt x="301" y="12" on="0"/>
        <pt x="160" y="12" on="0"/>
        <pt x="46" y="160" on="0"/>
        <pt x="46" y="314" on="0"/>
        <pt x="86" y="517" on="0"/>
        <pt x="126" y="679" on="0"/>
        <pt x="126" y="747" on="0"/>
        <pt x="156" y="747" on="1"/>
      </contour>
      <contour>
        <pt x="363" y="934" on="0"/>
        <pt x="341" y="934" on="0"/>
        <pt x="325" y="912" on="0"/>
        <pt x="323" y="881" on="0"/>
        <pt x="338" y="858" on="0"/>
        <pt x="359" y="858" on="0"/>
        <pt x="376" y="881" on="0"/>
        <pt x="378" y="912" on="0"/>
      </contour>
      <contour>
        <pt x="315" y="1010" on="0"/>
        <pt x="405" y="1010" on="0"/>
        <pt x="463" y="944" on="0"/>
        <pt x="454" y="852" on="0"/>
        <pt x="387" y="786" on="0"/>
        <pt x="297" y="786" on="0"/>
        <pt x="239" y="852" on="0"/>
        <pt x="243" y="898" on="1"/>
        <pt x="248" y="944" on="0"/>
      </contour>
    </TTGlyph>
    <TTGlyph name="V" xMin="53" yMin="14" xMax="597" yMax="745">
      <contour>
        <pt x="512" y="745" on="1"/>
        <pt x="540" y="745" on="0"/>
        <pt x="597" y="704" on="0"/>
        <pt x="597" y="666" on="0"/>
        <pt x="582" y="620" on="0"/>
        <pt x="549" y="551" on="0"/>
        <pt x="516" y="486" on="0"/>
        <pt x="462" y="381" on="0"/>
        <pt x="422" y="299" on="0"/>
        <pt x="373" y="187" on="0"/>
        <pt x="341" y="116" on="0"/>
        <pt x="323" y="82" on="1"/>
        <pt x="288" y="14" on="0"/>
        <pt x="255" y="14" on="1"/>
        <pt x="240" y="14" on="0"/>
        <pt x="186" y="58" on="0"/>
        <pt x="178" y="80" on="1"/>
        <pt x="153" y="145" on="0"/>
        <pt x="53" y="646" on="0"/>
        <pt x="53" y="745" on="0"/>
        <pt x="80" y="745" on="1"/>
        <pt x="114" y="745" on="0"/>
        <pt x="186" y="687" on="0"/>
        <pt x="206" y="639" on="1"/>
        <pt x="214" y="619" on="0"/>
        <pt x="229" y="490" on="0"/>
        <pt x="250" y="299" on="0"/>
        <pt x="262" y="231" on="1"/>
        <pt x="363" y="505" on="0"/>
        <pt x="480" y="745" on="0"/>
      </contour>
    </TTGlyph>
    <TTGlyph name="W" xMin="58" yMin="13" xMax="744" yMax="747">
      <contour>
        <pt x="126" y="745" on="1"/>
        <pt x="162" y="745" on="0"/>
        <pt x="263" y="665" on="0"/>
        <pt x="263" y="625" on="1"/>
        <pt x="265" y="613" on="0"/>
        <pt x="249" y="542" on="1"/>
        <pt x="197" y="312" on="0"/>
        <pt x="192" y="202" on="1"/>
        <pt x="240" y="299" on="0"/>
        <pt x="372" y="431" on="0"/>
        <pt x="413" y="430" on="1"/>
        <pt x="443" y="430" on="0"/>
        <pt x="452" y="296" on="1"/>
        <pt x="456" y="247" on="0"/>
        <pt x="480" y="164" on="0"/>
        <pt x="501" y="164" on="1"/>
        <pt x="540" y="164" on="0"/>
        <pt x="601" y="331" on="0"/>
        <pt x="601" y="510" on="0"/>
        <pt x="550" y="614" on="0"/>
        <pt x="495" y="613" on="1"/>
        <pt x="464" y="613" on="0"/>
        <pt x="411" y="677" on="0"/>
        <pt x="411" y="702" on="1"/>
        <pt x="411" y="747" on="0"/>
        <pt x="466" y="747" on="1"/>
        <pt x="540" y="747" on="0"/>
        <pt x="651" y="692" on="0"/>
        <pt x="682" y="644" on="1"/>
        <pt x="744" y="549" on="0"/>
        <pt x="744" y="410" on="1"/>
        <pt x="744" y="316" on="0"/>
        <pt x="678" y="133" on="0"/>
        <pt x="561" y="13" on="0"/>
        <pt x="495" y="13" on="1"/>
        <pt x="373" y="13" on="0"/>
        <pt x="356" y="220" on="1"/>
        <pt x="325" y="176" on="1"/>
        <pt x="216" y="15" on="0"/>
        <pt x="153" y="13" on="1"/>
        <pt x="135" y="12" on="0"/>
        <pt x="59" y="74" on="0"/>
        <pt x="58" y="107" on="1"/>
        <pt x="57" y="184" on="0"/>
        <pt x="101" y="541" on="0"/>
        <pt x="100" y="703" on="1"/>
        <pt x="100" y="745" on="0"/>
      </contour>
    </TTGlyph>
    <TTGlyph name="X" xMin="-1" yMin="12" xMax="618" yMax="747">
      <contour>
        <pt x="534" y="736" on="1"/>
        <pt x="553" y="736" on="0"/>
        <pt x="618" y="665" on="0"/>
        <pt x="618" y="640" on="1"/>
        <pt x="618" y="629" on="0"/>
        <pt x="600" y="615" on="0"/>
        <pt x="566" y="594" on="0"/>
        <pt x="554" y="579" on="1"/>
        <pt x="474" y="484" on="0"/>
        <pt x="369" y="346" on="1"/>
        <pt x="393" y="303" on="0"/>
        <pt x="481" y="153" on="0"/>
        <pt x="519" y="80" on="0"/>
        <pt x="519" y="41" on="0"/>
        <pt x="488" y="12" on="0"/>
        <pt x="468" y="12" on="1"/>
        <pt x="415" y="12" on="0"/>
        <pt x="286" y="228" on="1"/>
        <pt x="220" y="130" on="0"/>
        <pt x="122" y="13" on="0"/>
        <pt x="61" y="13" on="0"/>
        <pt x="-1" y="57" on="0"/>
        <pt x="-1" y="77" on="1"/>
        <pt x="-1" y="88" on="0"/>
        <pt x="4" y="93" on="1"/>
        <pt x="18" y="107" on="0"/>
        <pt x="22" y="113" on="1"/>
        <pt x="106" y="208" on="0"/>
        <pt x="214" y="360" on="1"/>
        <pt x="82" y="619" on="0"/>
        <pt x="82" y="702" on="1"/>
        <pt x="82" y="747" on="0"/>
        <pt x="100" y="747" on="1"/>
        <pt x="142" y="747" on="0"/>
        <pt x="235" y="712" on="0"/>
        <pt x="235" y="689" on="1"/>
        <pt x="235" y="617" on="0"/>
        <pt x="297" y="484" on="1"/>
        <pt x="397" y="638" on="0"/>
        <pt x="494" y="736" on="0"/>
      </contour>
    </TTGlyph>
    <TTGlyph name="Y" xMin="74" yMin="13" xMax="607" yMax="747">
      <contour>
        <pt x="302" y="404" on="1"/>
        <pt x="320" y="404" on="0"/>
        <pt x="411" y="576" on="0"/>
        <pt x="505" y="747" on="0"/>
        <pt x="528" y="747" on="1"/>
        <pt x="562" y="747" on="0"/>
        <pt x="607" y="685" on="0"/>
        <pt x="607" y="642" on="1"/>
        <pt x="607" y="612" on="0"/>
        <pt x="503" y="441" on="0"/>
        <pt x="343" y="189" on="0"/>
        <pt x="300" y="101" on="1"/>
        <pt x="287" y="73" on="0"/>
        <pt x="229" y="13" on="0"/>
        <pt x="202" y="13" on="1"/>
        <pt x="162" y="13" on="0"/>
        <pt x="162" y="77" on="1"/>
        <pt x="162" y="115" on="0"/>
        <pt x="238" y="254" on="1"/>
        <pt x="250" y="276" on="0"/>
        <pt x="255" y="287" on="1"/>
        <pt x="196" y="308" on="0"/>
        <pt x="108" y="438" on="0"/>
        <pt x="71" y="581" on="0"/>
        <pt x="74" y="641" on="1"/>
        <pt x="74" y="723" on="0"/>
        <pt x="106" y="740" on="1"/>
        <pt x="120" y="747" on="0"/>
        <pt x="165" y="747" on="0"/>
        <pt x="187" y="686" on="0"/>
        <pt x="205" y="572" on="0"/>
        <pt x="238" y="485" on="0"/>
        <pt x="287" y="404" on="0"/>
      </contour>
    </TTGlyph>
    <TTGlyph name="Yacute" xMin="74" yMin="13" xMax="607" yMax="998">
      <contour>
        <pt x="470" y="998" on="1"/>
        <pt x="511" y="1033" on="0"/>
        <pt x="548" y="988" on="1"/>
        <pt x="571" y="959" on="0"/>
        <pt x="568" y="894" on="0"/>
        <pt x="546" y="882" on="1"/>
        <pt x="437" y="827" on="1"/>
        <pt x="430" y="823" on="0"/>
        <pt x="402" y="805" on="0"/>
        <pt x="384" y="795" on="0"/>
        <pt x="372" y="792" on="1"/>
        <pt x="349" y="784" on="0"/>
        <pt x="317" y="829" on="0"/>
        <pt x="336" y="886" on="0"/>
        <pt x="364" y="910" on="1"/>
      </contour>
      <contour>
        <pt x="302" y="404" on="1"/>
        <pt x="320" y="404" on="0"/>
        <pt x="411" y="576" on="0"/>
        <pt x="505" y="747" on="0"/>
        <pt x="528" y="747" on="1"/>
        <pt x="562" y="747" on="0"/>
        <pt x="607" y="685" on="0"/>
        <pt x="607" y="642" on="1"/>
        <pt x="607" y="612" on="0"/>
        <pt x="503" y="441" on="0"/>
        <pt x="343" y="189" on="0"/>
        <pt x="300" y="101" on="1"/>
        <pt x="287" y="73" on="0"/>
        <pt x="229" y="13" on="0"/>
        <pt x="202" y="13" on="1"/>
        <pt x="162" y="13" on="0"/>
        <pt x="162" y="77" on="1"/>
        <pt x="162" y="115" on="0"/>
        <pt x="238" y="254" on="1"/>
        <pt x="250" y="276" on="0"/>
        <pt x="255" y="287" on="1"/>
        <pt x="196" y="308" on="0"/>
        <pt x="108" y="438" on="0"/>
        <pt x="71" y="581" on="0"/>
        <pt x="74" y="641" on="1"/>
        <pt x="74" y="723" on="0"/>
        <pt x="106" y="740" on="1"/>
        <pt x="120" y="747" on="0"/>
        <pt x="165" y="747" on="0"/>
        <pt x="187" y="686" on="0"/>
        <pt x="205" y="572" on="0"/>
        <pt x="238" y="485" on="0"/>
        <pt x="287" y="404" on="0"/>
      </contour>
    </TTGlyph>
    <TTGlyph name="Ydieresis" xMin="74" yMin="13" xMax="607" yMax="961">
      <contour>
        <pt x="472" y="961" on="0"/>
        <pt x="526" y="863" on="0"/>
        <pt x="526" y="828" on="0"/>
        <pt x="495" y="799" on="0"/>
        <pt x="480" y="799" on="1"/>
        <pt x="453" y="799" on="0"/>
        <pt x="389" y="864" on="0"/>
        <pt x="389" y="911" on="0"/>
        <pt x="431" y="961" on="0"/>
      </contour>
      <contour>
        <pt x="294" y="961" on="0"/>
        <pt x="348" y="863" on="0"/>
        <pt x="348" y="828" on="0"/>
        <pt x="317" y="799" on="0"/>
        <pt x="302" y="799" on="1"/>
        <pt x="275" y="799" on="0"/>
        <pt x="211" y="864" on="0"/>
        <pt x="211" y="911" on="0"/>
        <pt x="253" y="961" on="0"/>
      </contour>
      <contour>
        <pt x="302" y="404" on="1"/>
        <pt x="320" y="404" on="0"/>
        <pt x="411" y="576" on="0"/>
        <pt x="505" y="747" on="0"/>
        <pt x="528" y="747" on="1"/>
        <pt x="562" y="747" on="0"/>
        <pt x="607" y="685" on="0"/>
        <pt x="607" y="642" on="1"/>
        <pt x="607" y="612" on="0"/>
        <pt x="503" y="441" on="0"/>
        <pt x="343" y="189" on="0"/>
        <pt x="300" y="101" on="1"/>
        <pt x="287" y="73" on="0"/>
        <pt x="229" y="13" on="0"/>
        <pt x="202" y="13" on="1"/>
        <pt x="162" y="13" on="0"/>
        <pt x="162" y="77" on="1"/>
        <pt x="162" y="115" on="0"/>
        <pt x="238" y="254" on="1"/>
        <pt x="250" y="276" on="0"/>
        <pt x="255" y="287" on="1"/>
        <pt x="196" y="308" on="0"/>
        <pt x="108" y="438" on="0"/>
        <pt x="71" y="581" on="0"/>
        <pt x="74" y="641" on="1"/>
        <pt x="74" y="723" on="0"/>
        <pt x="106" y="740" on="1"/>
        <pt x="120" y="747" on="0"/>
        <pt x="165" y="747" on="0"/>
        <pt x="187" y="686" on="0"/>
        <pt x="205" y="572" on="0"/>
        <pt x="238" y="485" on="0"/>
        <pt x="287" y="404" on="0"/>
      </contour>
    </TTGlyph>
    <TTGlyph name="Z" xMin="49" yMin="13" xMax="564" yMax="731">
      <contour>
        <pt x="210" y="166" on="1"/>
        <pt x="210" y="151" on="0"/>
        <pt x="225" y="151" on="1"/>
        <pt x="274" y="151" on="0"/>
        <pt x="450" y="176" on="0"/>
        <pt x="493" y="176" on="1"/>
        <pt x="560" y="176" on="0"/>
        <pt x="560" y="141" on="1"/>
        <pt x="560" y="110" on="0"/>
        <pt x="422" y="48" on="0"/>
        <pt x="243" y="13" on="0"/>
        <pt x="173" y="13" on="1"/>
        <pt x="124" y="13" on="0"/>
        <pt x="49" y="117" on="0"/>
        <pt x="49" y="199" on="0"/>
        <pt x="170" y="328" on="0"/>
        <pt x="314" y="438" on="0"/>
        <pt x="435" y="536" on="0"/>
        <pt x="435" y="550" on="1"/>
        <pt x="435" y="596" on="0"/>
        <pt x="312" y="596" on="1"/>
        <pt x="274" y="597" on="0"/>
        <pt x="212" y="585" on="0"/>
        <pt x="202" y="585" on="1"/>
        <pt x="175" y="586" on="0"/>
        <pt x="119" y="659" on="0"/>
        <pt x="119" y="685" on="1"/>
        <pt x="119" y="711" on="0"/>
        <pt x="178" y="724" on="1"/>
        <pt x="210" y="731" on="0"/>
        <pt x="309" y="731" on="0"/>
        <pt x="402" y="715" on="0"/>
        <pt x="438" y="704" on="0"/>
        <pt x="511" y="679" on="0"/>
        <pt x="564" y="584" on="0"/>
        <pt x="563" y="514" on="0"/>
        <pt x="490" y="414" on="0"/>
        <pt x="386" y="322" on="0"/>
        <pt x="283" y="239" on="0"/>
        <pt x="210" y="177" on="0"/>
      </contour>
    </TTGlyph>
    <TTGlyph name="Zacute" xMin="49" yMin="13" xMax="612" yMax="998">
      <contour>
        <pt x="210" y="166" on="1"/>
        <pt x="210" y="151" on="0"/>
        <pt x="225" y="151" on="1"/>
        <pt x="274" y="151" on="0"/>
        <pt x="450" y="176" on="0"/>
        <pt x="493" y="176" on="1"/>
        <pt x="560" y="176" on="0"/>
        <pt x="560" y="141" on="1"/>
        <pt x="560" y="110" on="0"/>
        <pt x="422" y="48" on="0"/>
        <pt x="243" y="13" on="0"/>
        <pt x="173" y="13" on="1"/>
        <pt x="124" y="13" on="0"/>
        <pt x="49" y="117" on="0"/>
        <pt x="49" y="199" on="0"/>
        <pt x="170" y="328" on="0"/>
        <pt x="314" y="438" on="0"/>
        <pt x="435" y="536" on="0"/>
        <pt x="435" y="550" on="1"/>
        <pt x="435" y="596" on="0"/>
        <pt x="312" y="596" on="1"/>
        <pt x="274" y="597" on="0"/>
        <pt x="212" y="585" on="0"/>
        <pt x="202" y="585" on="1"/>
        <pt x="175" y="586" on="0"/>
        <pt x="119" y="659" on="0"/>
        <pt x="119" y="685" on="1"/>
        <pt x="119" y="711" on="0"/>
        <pt x="178" y="724" on="1"/>
        <pt x="210" y="731" on="0"/>
        <pt x="309" y="731" on="0"/>
        <pt x="402" y="715" on="0"/>
        <pt x="438" y="704" on="0"/>
        <pt x="511" y="679" on="0"/>
        <pt x="564" y="584" on="0"/>
        <pt x="563" y="514" on="0"/>
        <pt x="490" y="414" on="0"/>
        <pt x="386" y="322" on="0"/>
        <pt x="283" y="239" on="0"/>
        <pt x="210" y="177" on="0"/>
      </contour>
      <contour>
        <pt x="512" y="998" on="1"/>
        <pt x="553" y="1033" on="0"/>
        <pt x="590" y="988" on="1"/>
        <pt x="613" y="959" on="0"/>
        <pt x="610" y="894" on="0"/>
        <pt x="588" y="882" on="1"/>
        <pt x="479" y="827" on="1"/>
        <pt x="472" y="823" on="0"/>
        <pt x="444" y="805" on="0"/>
        <pt x="426" y="795" on="0"/>
        <pt x="414" y="792" on="1"/>
        <pt x="391" y="784" on="0"/>
        <pt x="359" y="829" on="0"/>
        <pt x="378" y="886" on="0"/>
        <pt x="406" y="910" on="1"/>
      </contour>
    </TTGlyph>
    <TTGlyph name="Zcaron" xMin="49" yMin="13" xMax="573" yMax="998">
      <contour>
        <pt x="210" y="166" on="1"/>
        <pt x="210" y="151" on="0"/>
        <pt x="225" y="151" on="1"/>
        <pt x="274" y="151" on="0"/>
        <pt x="450" y="176" on="0"/>
        <pt x="493" y="176" on="1"/>
        <pt x="560" y="176" on="0"/>
        <pt x="560" y="141" on="1"/>
        <pt x="560" y="110" on="0"/>
        <pt x="422" y="48" on="0"/>
        <pt x="243" y="13" on="0"/>
        <pt x="173" y="13" on="1"/>
        <pt x="124" y="13" on="0"/>
        <pt x="49" y="117" on="0"/>
        <pt x="49" y="199" on="0"/>
        <pt x="170" y="328" on="0"/>
        <pt x="314" y="438" on="0"/>
        <pt x="435" y="536" on="0"/>
        <pt x="435" y="550" on="1"/>
        <pt x="435" y="596" on="0"/>
        <pt x="312" y="596" on="1"/>
        <pt x="274" y="597" on="0"/>
        <pt x="212" y="585" on="0"/>
        <pt x="202" y="585" on="1"/>
        <pt x="175" y="586" on="0"/>
        <pt x="119" y="659" on="0"/>
        <pt x="119" y="685" on="1"/>
        <pt x="119" y="711" on="0"/>
        <pt x="178" y="724" on="1"/>
        <pt x="210" y="731" on="0"/>
        <pt x="309" y="731" on="0"/>
        <pt x="402" y="715" on="0"/>
        <pt x="438" y="704" on="0"/>
        <pt x="511" y="679" on="0"/>
        <pt x="564" y="584" on="0"/>
        <pt x="563" y="514" on="0"/>
        <pt x="490" y="414" on="0"/>
        <pt x="386" y="322" on="0"/>
        <pt x="283" y="239" on="0"/>
        <pt x="210" y="177" on="0"/>
      </contour>
      <contour>
        <pt x="536" y="964" on="1"/>
        <pt x="573" y="964" on="0"/>
        <pt x="573" y="929" on="1"/>
        <pt x="573" y="912" on="0"/>
        <pt x="541" y="884" on="0"/>
        <pt x="522" y="870" on="0"/>
        <pt x="489" y="847" on="0"/>
        <pt x="469" y="832" on="0"/>
        <pt x="439" y="807" on="0"/>
        <pt x="430" y="800" on="1"/>
        <pt x="409" y="782" on="0"/>
        <pt x="393" y="782" on="1"/>
        <pt x="370" y="782" on="0"/>
        <pt x="243" y="907" on="0"/>
        <pt x="243" y="944" on="1"/>
        <pt x="243" y="967" on="0"/>
        <pt x="268" y="998" on="0"/>
        <pt x="308" y="998" on="0"/>
        <pt x="338" y="975" on="0"/>
        <pt x="384" y="922" on="0"/>
        <pt x="406" y="904" on="1"/>
        <pt x="489" y="964" on="0"/>
      </contour>
    </TTGlyph>
    <TTGlyph name="Zdotaccent" xMin="49" yMin="13" xMax="564" yMax="944">
      <contour>
        <pt x="400" y="785" on="0"/>
        <pt x="336" y="849" on="0"/>
        <pt x="336" y="896" on="0"/>
        <pt x="377" y="944" on="0"/>
        <pt x="418" y="944" on="0"/>
        <pt x="472" y="850" on="0"/>
        <pt x="472" y="814" on="0"/>
        <pt x="442" y="785" on="0"/>
        <pt x="427" y="785" on="1"/>
      </contour>
      <contour>
        <pt x="210" y="166" on="1"/>
        <pt x="210" y="151" on="0"/>
        <pt x="225" y="151" on="1"/>
        <pt x="274" y="151" on="0"/>
        <pt x="450" y="176" on="0"/>
        <pt x="493" y="176" on="1"/>
        <pt x="560" y="176" on="0"/>
        <pt x="560" y="141" on="1"/>
        <pt x="560" y="110" on="0"/>
        <pt x="422" y="48" on="0"/>
        <pt x="243" y="13" on="0"/>
        <pt x="173" y="13" on="1"/>
        <pt x="124" y="13" on="0"/>
        <pt x="49" y="117" on="0"/>
        <pt x="49" y="199" on="0"/>
        <pt x="170" y="328" on="0"/>
        <pt x="314" y="438" on="0"/>
        <pt x="435" y="536" on="0"/>
        <pt x="435" y="550" on="1"/>
        <pt x="435" y="596" on="0"/>
        <pt x="312" y="596" on="1"/>
        <pt x="274" y="597" on="0"/>
        <pt x="212" y="585" on="0"/>
        <pt x="202" y="585" on="1"/>
        <pt x="175" y="586" on="0"/>
        <pt x="119" y="659" on="0"/>
        <pt x="119" y="685" on="1"/>
        <pt x="119" y="711" on="0"/>
        <pt x="178" y="724" on="1"/>
        <pt x="210" y="731" on="0"/>
        <pt x="309" y="731" on="0"/>
        <pt x="402" y="715" on="0"/>
        <pt x="438" y="704" on="0"/>
        <pt x="511" y="679" on="0"/>
        <pt x="564" y="584" on="0"/>
        <pt x="563" y="514" on="0"/>
        <pt x="490" y="414" on="0"/>
        <pt x="386" y="322" on="0"/>
        <pt x="283" y="239" on="0"/>
        <pt x="210" y="177" on="0"/>
      </contour>
    </TTGlyph>
    <TTGlyph name="a" xMin="20" yMin="12" xMax="480" yMax="528">
      <contour>
        <pt x="450" y="296" on="1"/>
        <pt x="468" y="280" on="0"/>
        <pt x="468" y="254" on="0"/>
        <pt x="444" y="172" on="0"/>
        <pt x="436" y="127" on="0"/>
        <pt x="431" y="101" on="0"/>
        <pt x="429" y="86" on="0"/>
        <pt x="424" y="64" on="0"/>
        <pt x="421" y="51" on="0"/>
        <pt x="416" y="34" on="0"/>
        <pt x="410" y="25" on="0"/>
        <pt x="406" y="20" on="1"/>
        <pt x="400" y="12" on="0"/>
        <pt x="372" y="12" on="0"/>
        <pt x="331" y="68" on="0"/>
        <pt x="321" y="108" on="1"/>
        <pt x="227" y="12" on="0"/>
        <pt x="163" y="12" on="1"/>
        <pt x="120" y="12" on="0"/>
        <pt x="20" y="107" on="0"/>
        <pt x="20" y="202" on="0"/>
        <pt x="106" y="378" on="0"/>
        <pt x="255" y="528" on="0"/>
        <pt x="328" y="528" on="1"/>
        <pt x="370" y="528" on="0"/>
        <pt x="480" y="430" on="0"/>
        <pt x="480" y="349" on="0"/>
      </contour>
      <contour>
        <pt x="159" y="138" on="1"/>
        <pt x="199" y="138" on="0"/>
        <pt x="332" y="247" on="0"/>
        <pt x="348" y="330" on="1"/>
        <pt x="349" y="342" on="0"/>
        <pt x="365" y="344" on="1"/>
        <pt x="362" y="401" on="0"/>
        <pt x="346" y="401" on="1"/>
        <pt x="306" y="401" on="0"/>
        <pt x="207" y="297" on="0"/>
        <pt x="144" y="179" on="0"/>
        <pt x="144" y="151" on="1"/>
        <pt x="144" y="143" on="0"/>
        <pt x="149" y="138" on="0"/>
      </contour>
    </TTGlyph>
    <TTGlyph name="aacute" xMin="29" yMin="12" xMax="617" yMax="762">
      <contour>
        <pt x="411" y="674" on="1"/>
        <pt x="517" y="762" on="1"/>
        <pt x="558" y="797" on="0"/>
        <pt x="595" y="752" on="1"/>
        <pt x="618" y="723" on="0"/>
        <pt x="615" y="658" on="0"/>
        <pt x="593" y="646" on="1"/>
        <pt x="484" y="591" on="1"/>
        <pt x="477" y="587" on="0"/>
        <pt x="449" y="569" on="0"/>
        <pt x="431" y="559" on="0"/>
        <pt x="420" y="556" on="1"/>
        <pt x="396" y="548" on="0"/>
        <pt x="364" y="593" on="0"/>
        <pt x="383" y="650" on="0"/>
      </contour>
      <contour>
        <pt x="337" y="528" on="1"/>
        <pt x="379" y="528" on="0"/>
        <pt x="489" y="430" on="0"/>
        <pt x="489" y="349" on="0"/>
        <pt x="459" y="296" on="1"/>
        <pt x="477" y="280" on="0"/>
        <pt x="477" y="254" on="0"/>
        <pt x="453" y="172" on="0"/>
        <pt x="445" y="127" on="0"/>
        <pt x="440" y="101" on="0"/>
        <pt x="438" y="86" on="0"/>
        <pt x="433" y="64" on="0"/>
        <pt x="430" y="51" on="0"/>
        <pt x="425" y="34" on="0"/>
        <pt x="419" y="25" on="0"/>
        <pt x="416" y="20" on="1"/>
        <pt x="409" y="12" on="0"/>
        <pt x="381" y="12" on="0"/>
        <pt x="340" y="68" on="0"/>
        <pt x="330" y="108" on="1"/>
        <pt x="236" y="12" on="0"/>
        <pt x="172" y="12" on="1"/>
        <pt x="129" y="12" on="0"/>
        <pt x="29" y="107" on="0"/>
        <pt x="29" y="202" on="0"/>
        <pt x="115" y="378" on="0"/>
        <pt x="264" y="528" on="0"/>
      </contour>
      <contour>
        <pt x="168" y="138" on="1"/>
        <pt x="208" y="138" on="0"/>
        <pt x="341" y="247" on="0"/>
        <pt x="357" y="330" on="1"/>
        <pt x="358" y="342" on="0"/>
        <pt x="374" y="344" on="1"/>
        <pt x="371" y="401" on="0"/>
        <pt x="355" y="401" on="1"/>
        <pt x="315" y="401" on="0"/>
        <pt x="216" y="297" on="0"/>
        <pt x="153" y="179" on="0"/>
        <pt x="153" y="151" on="1"/>
        <pt x="153" y="143" on="0"/>
        <pt x="158" y="138" on="0"/>
      </contour>
    </TTGlyph>
    <TTGlyph name="abreve" xMin="29" yMin="12" xMax="606" yMax="766">
      <contour>
        <pt x="519" y="687" on="0"/>
        <pt x="557" y="723" on="0"/>
        <pt x="589" y="723" on="0"/>
        <pt x="606" y="705" on="0"/>
        <pt x="606" y="691" on="1"/>
        <pt x="606" y="645" on="0"/>
        <pt x="489" y="552" on="0"/>
        <pt x="360" y="552" on="0"/>
        <pt x="273" y="638" on="0"/>
        <pt x="273" y="725" on="0"/>
        <pt x="320" y="766" on="0"/>
        <pt x="342" y="766" on="1"/>
        <pt x="362" y="766" on="0"/>
        <pt x="376" y="708" on="1"/>
        <pt x="382" y="687" on="0"/>
        <pt x="415" y="651" on="0"/>
        <pt x="471" y="651" on="0"/>
      </contour>
      <contour>
        <pt x="337" y="528" on="1"/>
        <pt x="379" y="528" on="0"/>
        <pt x="489" y="430" on="0"/>
        <pt x="489" y="349" on="0"/>
        <pt x="459" y="296" on="1"/>
        <pt x="477" y="280" on="0"/>
        <pt x="477" y="254" on="0"/>
        <pt x="453" y="172" on="0"/>
        <pt x="445" y="127" on="0"/>
        <pt x="440" y="101" on="0"/>
        <pt x="438" y="86" on="0"/>
        <pt x="433" y="64" on="0"/>
        <pt x="430" y="51" on="0"/>
        <pt x="425" y="34" on="0"/>
        <pt x="419" y="25" on="0"/>
        <pt x="416" y="20" on="1"/>
        <pt x="409" y="12" on="0"/>
        <pt x="381" y="12" on="0"/>
        <pt x="340" y="68" on="0"/>
        <pt x="330" y="108" on="1"/>
        <pt x="236" y="12" on="0"/>
        <pt x="172" y="12" on="1"/>
        <pt x="129" y="12" on="0"/>
        <pt x="29" y="107" on="0"/>
        <pt x="29" y="202" on="0"/>
        <pt x="115" y="378" on="0"/>
        <pt x="264" y="528" on="0"/>
      </contour>
      <contour>
        <pt x="168" y="138" on="1"/>
        <pt x="208" y="138" on="0"/>
        <pt x="341" y="247" on="0"/>
        <pt x="357" y="330" on="1"/>
        <pt x="358" y="342" on="0"/>
        <pt x="374" y="344" on="1"/>
        <pt x="371" y="401" on="0"/>
        <pt x="355" y="401" on="1"/>
        <pt x="315" y="401" on="0"/>
        <pt x="216" y="297" on="0"/>
        <pt x="153" y="179" on="0"/>
        <pt x="153" y="151" on="1"/>
        <pt x="153" y="143" on="0"/>
        <pt x="158" y="138" on="0"/>
      </contour>
    </TTGlyph>
    <TTGlyph name="acircumflex" xMin="29" yMin="12" xMax="583" yMax="765">
      <contour>
        <pt x="562" y="627" on="0"/>
        <pt x="583" y="595" on="0"/>
        <pt x="583" y="568" on="0"/>
        <pt x="564" y="551" on="0"/>
        <pt x="553" y="551" on="1"/>
        <pt x="526" y="551" on="0"/>
        <pt x="445" y="608" on="0"/>
        <pt x="417" y="643" on="1"/>
        <pt x="389" y="629" on="0"/>
        <pt x="339" y="590" on="0"/>
        <pt x="309" y="570" on="0"/>
        <pt x="273" y="570" on="0"/>
        <pt x="249" y="598" on="0"/>
        <pt x="249" y="619" on="1"/>
        <pt x="249" y="667" on="0"/>
        <pt x="322" y="709" on="1"/>
        <pt x="333" y="715" on="0"/>
        <pt x="365" y="735" on="0"/>
        <pt x="385" y="747" on="0"/>
        <pt x="396" y="753" on="1"/>
        <pt x="419" y="765" on="0"/>
        <pt x="442" y="765" on="0"/>
        <pt x="462" y="743" on="0"/>
        <pt x="491" y="698" on="0"/>
        <pt x="511" y="677" on="0"/>
      </contour>
      <contour>
        <pt x="337" y="528" on="1"/>
        <pt x="379" y="528" on="0"/>
        <pt x="489" y="430" on="0"/>
        <pt x="489" y="349" on="0"/>
        <pt x="459" y="296" on="1"/>
        <pt x="477" y="280" on="0"/>
        <pt x="477" y="254" on="0"/>
        <pt x="453" y="172" on="0"/>
        <pt x="445" y="127" on="0"/>
        <pt x="440" y="101" on="0"/>
        <pt x="438" y="86" on="0"/>
        <pt x="433" y="64" on="0"/>
        <pt x="430" y="51" on="0"/>
        <pt x="425" y="34" on="0"/>
        <pt x="419" y="25" on="0"/>
        <pt x="416" y="20" on="1"/>
        <pt x="409" y="12" on="0"/>
        <pt x="381" y="12" on="0"/>
        <pt x="340" y="68" on="0"/>
        <pt x="330" y="108" on="1"/>
        <pt x="236" y="12" on="0"/>
        <pt x="172" y="12" on="1"/>
        <pt x="129" y="12" on="0"/>
        <pt x="29" y="107" on="0"/>
        <pt x="29" y="202" on="0"/>
        <pt x="115" y="378" on="0"/>
        <pt x="264" y="528" on="0"/>
      </contour>
      <contour>
        <pt x="168" y="138" on="1"/>
        <pt x="208" y="138" on="0"/>
        <pt x="341" y="247" on="0"/>
        <pt x="357" y="330" on="1"/>
        <pt x="358" y="342" on="0"/>
        <pt x="374" y="344" on="1"/>
        <pt x="371" y="401" on="0"/>
        <pt x="355" y="401" on="1"/>
        <pt x="315" y="401" on="0"/>
        <pt x="216" y="297" on="0"/>
        <pt x="153" y="179" on="0"/>
        <pt x="153" y="151" on="1"/>
        <pt x="153" y="143" on="0"/>
        <pt x="158" y="138" on="0"/>
      </contour>
    </TTGlyph>
    <TTGlyph name="acute" xMin="-10" yMin="651" xMax="234" yMax="858">
      <contour>
        <pt x="134" y="858" on="1"/>
        <pt x="175" y="893" on="0"/>
        <pt x="212" y="848" on="1"/>
        <pt x="235" y="819" on="0"/>
        <pt x="232" y="754" on="0"/>
        <pt x="210" y="742" on="1"/>
        <pt x="101" y="687" on="1"/>
        <pt x="94" y="683" on="0"/>
        <pt x="66" y="665" on="0"/>
        <pt x="48" y="655" on="0"/>
        <pt x="36" y="652" on="1"/>
        <pt x="13" y="644" on="0"/>
        <pt x="-19" y="689" on="0"/>
        <pt x="0" y="746" on="0"/>
        <pt x="28" y="770" on="1"/>
      </contour>
    </TTGlyph>
    <TTGlyph name="adieresis" xMin="29" yMin="12" xMax="573" yMax="725">
      <contour>
        <pt x="436" y="675" on="0"/>
        <pt x="478" y="725" on="0"/>
        <pt x="519" y="725" on="0"/>
        <pt x="573" y="627" on="0"/>
        <pt x="573" y="592" on="0"/>
        <pt x="542" y="563" on="0"/>
        <pt x="527" y="563" on="1"/>
        <pt x="500" y="563" on="0"/>
        <pt x="436" y="628" on="0"/>
      </contour>
      <contour>
        <pt x="337" y="528" on="1"/>
        <pt x="379" y="528" on="0"/>
        <pt x="489" y="430" on="0"/>
        <pt x="489" y="349" on="0"/>
        <pt x="459" y="296" on="1"/>
        <pt x="477" y="280" on="0"/>
        <pt x="477" y="254" on="0"/>
        <pt x="453" y="172" on="0"/>
        <pt x="445" y="127" on="0"/>
        <pt x="440" y="101" on="0"/>
        <pt x="438" y="86" on="0"/>
        <pt x="433" y="64" on="0"/>
        <pt x="430" y="51" on="0"/>
        <pt x="425" y="34" on="0"/>
        <pt x="419" y="25" on="0"/>
        <pt x="416" y="20" on="1"/>
        <pt x="409" y="12" on="0"/>
        <pt x="381" y="12" on="0"/>
        <pt x="340" y="68" on="0"/>
        <pt x="330" y="108" on="1"/>
        <pt x="236" y="12" on="0"/>
        <pt x="172" y="12" on="1"/>
        <pt x="129" y="12" on="0"/>
        <pt x="29" y="107" on="0"/>
        <pt x="29" y="202" on="0"/>
        <pt x="115" y="378" on="0"/>
        <pt x="264" y="528" on="0"/>
      </contour>
      <contour>
        <pt x="168" y="138" on="1"/>
        <pt x="208" y="138" on="0"/>
        <pt x="341" y="247" on="0"/>
        <pt x="357" y="330" on="1"/>
        <pt x="358" y="342" on="0"/>
        <pt x="374" y="344" on="1"/>
        <pt x="371" y="401" on="0"/>
        <pt x="355" y="401" on="1"/>
        <pt x="315" y="401" on="0"/>
        <pt x="216" y="297" on="0"/>
        <pt x="153" y="179" on="0"/>
        <pt x="153" y="151" on="1"/>
        <pt x="153" y="143" on="0"/>
        <pt x="158" y="138" on="0"/>
      </contour>
      <contour>
        <pt x="349" y="563" on="1"/>
        <pt x="322" y="563" on="0"/>
        <pt x="258" y="628" on="0"/>
        <pt x="258" y="675" on="0"/>
        <pt x="300" y="725" on="0"/>
        <pt x="341" y="725" on="0"/>
        <pt x="395" y="627" on="0"/>
        <pt x="395" y="592" on="0"/>
        <pt x="364" y="563" on="0"/>
      </contour>
    </TTGlyph>
    <TTGlyph name="ae" xMin="29" yMin="12" xMax="779" yMax="528">
      <contour>
        <pt x="341" y="528" on="1"/>
        <pt x="366" y="528" on="0"/>
        <pt x="437" y="488" on="0"/>
        <pt x="463" y="459" on="1"/>
        <pt x="535" y="528" on="0"/>
        <pt x="671" y="528" on="0"/>
        <pt x="779" y="403" on="0"/>
        <pt x="779" y="341" on="1"/>
        <pt x="779" y="292" on="0"/>
        <pt x="646" y="214" on="0"/>
        <pt x="505" y="214" on="0"/>
        <pt x="460" y="224" on="1"/>
        <pt x="452" y="195" on="0"/>
        <pt x="452" y="143" on="0"/>
        <pt x="470" y="120" on="0"/>
        <pt x="506" y="120" on="1"/>
        <pt x="581" y="120" on="0"/>
        <pt x="688" y="148" on="0"/>
        <pt x="690" y="148" on="1"/>
        <pt x="731" y="148" on="0"/>
        <pt x="731" y="121" on="1"/>
        <pt x="731" y="82" on="0"/>
        <pt x="602" y="12" on="0"/>
        <pt x="527" y="12" on="1"/>
        <pt x="396" y="12" on="0"/>
        <pt x="346" y="116" on="1"/>
        <pt x="240" y="12" on="0"/>
        <pt x="176" y="12" on="1"/>
        <pt x="132" y="12" on="0"/>
        <pt x="29" y="108" on="0"/>
        <pt x="29" y="201" on="0"/>
        <pt x="118" y="378" on="0"/>
        <pt x="269" y="528" on="0"/>
      </contour>
      <contour>
        <pt x="526" y="309" on="1"/>
        <pt x="663" y="309" on="0"/>
        <pt x="663" y="357" on="1"/>
        <pt x="663" y="367" on="0"/>
        <pt x="621" y="405" on="0"/>
        <pt x="584" y="405" on="0"/>
        <pt x="523" y="350" on="0"/>
        <pt x="498" y="309" on="1"/>
      </contour>
      <contour>
        <pt x="359" y="401" on="1"/>
        <pt x="301" y="401" on="0"/>
        <pt x="153" y="198" on="0"/>
        <pt x="153" y="151" on="1"/>
        <pt x="153" y="138" on="0"/>
        <pt x="199" y="138" on="0"/>
        <pt x="306" y="202" on="0"/>
        <pt x="339" y="253" on="1"/>
        <pt x="350" y="299" on="0"/>
        <pt x="380" y="351" on="1"/>
        <pt x="374" y="401" on="0"/>
      </contour>
    </TTGlyph>
    <TTGlyph name="agrave" xMin="29" yMin="12" xMax="489" yMax="760">
      <contour>
        <pt x="337" y="528" on="1"/>
        <pt x="379" y="528" on="0"/>
        <pt x="489" y="430" on="0"/>
        <pt x="489" y="349" on="0"/>
        <pt x="459" y="296" on="1"/>
        <pt x="477" y="280" on="0"/>
        <pt x="477" y="254" on="0"/>
        <pt x="453" y="172" on="0"/>
        <pt x="445" y="127" on="0"/>
        <pt x="440" y="101" on="0"/>
        <pt x="438" y="86" on="0"/>
        <pt x="433" y="64" on="0"/>
        <pt x="430" y="51" on="0"/>
        <pt x="425" y="34" on="0"/>
        <pt x="419" y="25" on="0"/>
        <pt x="416" y="20" on="1"/>
        <pt x="409" y="12" on="0"/>
        <pt x="381" y="12" on="0"/>
        <pt x="340" y="68" on="0"/>
        <pt x="330" y="108" on="1"/>
        <pt x="236" y="12" on="0"/>
        <pt x="172" y="12" on="1"/>
        <pt x="129" y="12" on="0"/>
        <pt x="29" y="107" on="0"/>
        <pt x="29" y="202" on="0"/>
        <pt x="115" y="378" on="0"/>
        <pt x="264" y="528" on="0"/>
      </contour>
      <contour>
        <pt x="168" y="138" on="1"/>
        <pt x="208" y="138" on="0"/>
        <pt x="341" y="247" on="0"/>
        <pt x="357" y="330" on="1"/>
        <pt x="358" y="342" on="0"/>
        <pt x="374" y="344" on="1"/>
        <pt x="371" y="401" on="0"/>
        <pt x="355" y="401" on="1"/>
        <pt x="315" y="401" on="0"/>
        <pt x="216" y="297" on="0"/>
        <pt x="153" y="179" on="0"/>
        <pt x="153" y="151" on="1"/>
        <pt x="153" y="143" on="0"/>
        <pt x="158" y="138" on="0"/>
      </contour>
      <contour>
        <pt x="472" y="555" on="0"/>
        <pt x="443" y="555" on="0"/>
        <pt x="425" y="565" on="0"/>
        <pt x="406" y="579" on="1"/>
        <pt x="389" y="592" on="0"/>
        <pt x="277" y="663" on="1"/>
        <pt x="257" y="675" on="0"/>
        <pt x="259" y="731" on="0"/>
        <pt x="284" y="756" on="1"/>
        <pt x="324" y="799" on="0"/>
        <pt x="361" y="760" on="1"/>
        <pt x="460" y="661" on="1"/>
        <pt x="517" y="605" on="0"/>
        <pt x="484" y="568" on="1"/>
      </contour>
    </TTGlyph>
    <TTGlyph name="amacron" xMin="29" yMin="12" xMax="587" yMax="677">
      <contour>
        <pt x="587" y="648" on="1"/>
        <pt x="587" y="629" on="0"/>
        <pt x="524" y="611" on="0"/>
        <pt x="398" y="590" on="0"/>
        <pt x="364" y="584" on="1"/>
        <pt x="304" y="572" on="0"/>
        <pt x="266" y="573" on="0"/>
        <pt x="230" y="618" on="0"/>
        <pt x="230" y="637" on="1"/>
        <pt x="231" y="664" on="0"/>
        <pt x="374" y="679" on="0"/>
        <pt x="513" y="677" on="1"/>
        <pt x="587" y="675" on="0"/>
      </contour>
      <contour>
        <pt x="337" y="528" on="1"/>
        <pt x="379" y="528" on="0"/>
        <pt x="489" y="430" on="0"/>
        <pt x="489" y="349" on="0"/>
        <pt x="459" y="296" on="1"/>
        <pt x="477" y="280" on="0"/>
        <pt x="477" y="254" on="0"/>
        <pt x="453" y="172" on="0"/>
        <pt x="445" y="127" on="0"/>
        <pt x="440" y="101" on="0"/>
        <pt x="438" y="86" on="0"/>
        <pt x="433" y="64" on="0"/>
        <pt x="430" y="51" on="0"/>
        <pt x="425" y="34" on="0"/>
        <pt x="419" y="25" on="0"/>
        <pt x="416" y="20" on="1"/>
        <pt x="409" y="12" on="0"/>
        <pt x="381" y="12" on="0"/>
        <pt x="340" y="68" on="0"/>
        <pt x="330" y="108" on="1"/>
        <pt x="236" y="12" on="0"/>
        <pt x="172" y="12" on="1"/>
        <pt x="129" y="12" on="0"/>
        <pt x="29" y="107" on="0"/>
        <pt x="29" y="202" on="0"/>
        <pt x="115" y="378" on="0"/>
        <pt x="264" y="528" on="0"/>
      </contour>
      <contour>
        <pt x="168" y="138" on="1"/>
        <pt x="208" y="138" on="0"/>
        <pt x="341" y="247" on="0"/>
        <pt x="357" y="330" on="1"/>
        <pt x="358" y="342" on="0"/>
        <pt x="374" y="344" on="1"/>
        <pt x="371" y="401" on="0"/>
        <pt x="355" y="401" on="1"/>
        <pt x="315" y="401" on="0"/>
        <pt x="216" y="297" on="0"/>
        <pt x="153" y="179" on="0"/>
        <pt x="153" y="151" on="1"/>
        <pt x="153" y="143" on="0"/>
        <pt x="158" y="138" on="0"/>
      </contour>
    </TTGlyph>
    <TTGlyph name="ampersand" xMin="3" yMin="-3" xMax="714" yMax="726">
      <contour>
        <pt x="491" y="157" on="1"/>
        <pt x="555" y="111" on="0"/>
        <pt x="674" y="111" on="0"/>
        <pt x="714" y="98" on="0"/>
        <pt x="714" y="79" on="1"/>
        <pt x="714" y="46" on="0"/>
        <pt x="648" y="9" on="0"/>
        <pt x="588" y="9" on="1"/>
        <pt x="493" y="9" on="0"/>
        <pt x="395" y="96" on="1"/>
        <pt x="230" y="-3" on="0"/>
        <pt x="148" y="-3" on="1"/>
        <pt x="101" y="-3" on="0"/>
        <pt x="3" y="101" on="0"/>
        <pt x="3" y="139" on="1"/>
        <pt x="3" y="172" on="0"/>
        <pt x="62" y="228" on="1"/>
        <pt x="112" y="276" on="0"/>
        <pt x="197" y="347" on="0"/>
        <pt x="206" y="355" on="0"/>
        <pt x="210" y="358" on="1"/>
        <pt x="166" y="458" on="0"/>
        <pt x="163" y="617" on="0"/>
        <pt x="287" y="726" on="0"/>
        <pt x="381" y="726" on="1"/>
        <pt x="462" y="726" on="0"/>
        <pt x="496" y="651" on="1"/>
        <pt x="513" y="612" on="0"/>
        <pt x="513" y="575" on="1"/>
        <pt x="513" y="480" on="0"/>
        <pt x="355" y="328" on="1"/>
        <pt x="374" y="290" on="0"/>
        <pt x="399" y="254" on="1"/>
        <pt x="437" y="279" on="0"/>
        <pt x="510" y="328" on="1"/>
        <pt x="646" y="421" on="0"/>
        <pt x="660" y="421" on="1"/>
        <pt x="709" y="421" on="0"/>
        <pt x="709" y="367" on="1"/>
        <pt x="709" y="340" on="0"/>
        <pt x="584" y="222" on="0"/>
      </contour>
      <contour>
        <pt x="373" y="552" on="1"/>
        <pt x="371" y="605" on="0"/>
        <pt x="339" y="605" on="1"/>
        <pt x="322" y="605" on="0"/>
        <pt x="312" y="584" on="1"/>
        <pt x="292" y="545" on="0"/>
        <pt x="312" y="451" on="1"/>
        <pt x="373" y="514" on="0"/>
      </contour>
      <contour>
        <pt x="144" y="120" on="1"/>
        <pt x="187" y="121" on="0"/>
        <pt x="305" y="194" on="1"/>
        <pt x="297" y="204" on="0"/>
        <pt x="268" y="248" on="1"/>
        <pt x="171" y="161" on="0"/>
        <pt x="146" y="128" on="0"/>
      </contour>
    </TTGlyph>
    <TTGlyph name="aogonek" xMin="29" yMin="-170" xMax="489" yMax="528">
      <contour>
        <pt x="459" y="296" on="1"/>
        <pt x="477" y="280" on="0"/>
        <pt x="477" y="254" on="0"/>
        <pt x="453" y="172" on="0"/>
        <pt x="439" y="92" on="0"/>
        <pt x="434" y="67" on="1"/>
        <pt x="453" y="34" on="0"/>
        <pt x="403" y="-6" on="1"/>
        <pt x="351" y="-45" on="0"/>
        <pt x="351" y="-61" on="1"/>
        <pt x="351" y="-71" on="0"/>
        <pt x="397" y="-71" on="0"/>
        <pt x="421" y="-65" on="0"/>
        <pt x="454" y="-84" on="0"/>
        <pt x="469" y="-121" on="0"/>
        <pt x="452" y="-139" on="1"/>
        <pt x="423" y="-170" on="0"/>
        <pt x="312" y="-170" on="1"/>
        <pt x="277" y="-170" on="0"/>
        <pt x="224" y="-132" on="0"/>
        <pt x="224" y="-108" on="1"/>
        <pt x="224" y="-67" on="0"/>
        <pt x="296" y="36" on="0"/>
        <pt x="342" y="73" on="1"/>
        <pt x="335" y="89" on="0"/>
        <pt x="330" y="108" on="1"/>
        <pt x="236" y="12" on="0"/>
        <pt x="172" y="12" on="1"/>
        <pt x="129" y="12" on="0"/>
        <pt x="29" y="107" on="0"/>
        <pt x="29" y="202" on="0"/>
        <pt x="115" y="378" on="0"/>
        <pt x="264" y="528" on="0"/>
        <pt x="337" y="528" on="1"/>
        <pt x="379" y="528" on="0"/>
        <pt x="489" y="430" on="0"/>
        <pt x="489" y="349" on="0"/>
      </contour>
      <contour>
        <pt x="168" y="138" on="1"/>
        <pt x="208" y="138" on="0"/>
        <pt x="341" y="247" on="0"/>
        <pt x="357" y="330" on="1"/>
        <pt x="358" y="342" on="0"/>
        <pt x="374" y="344" on="1"/>
        <pt x="371" y="401" on="0"/>
        <pt x="355" y="401" on="1"/>
        <pt x="315" y="401" on="0"/>
        <pt x="216" y="297" on="0"/>
        <pt x="153" y="179" on="0"/>
        <pt x="153" y="151" on="1"/>
        <pt x="153" y="143" on="0"/>
        <pt x="158" y="138" on="0"/>
      </contour>
    </TTGlyph>
</ttFont>
